<?xml version="1.0" standalone="no"?>
<!DOCTYPE svg PUBLIC "-//W3C//DTD SVG 20010904//EN"
 "http://www.w3.org/TR/2001/REC-SVG-20010904/DTD/svg10.dtd">
<svg version="1.0" xmlns="http://www.w3.org/2000/svg"
 width="512.000000pt" height="512.000000pt" viewBox="0 0 512.000000 512.000000"
 preserveAspectRatio="xMidYMid meet">
<metadata>
Created by potrace 1.16, written by Peter Selinger 2001-2019
</metadata>
<g transform="translate(0.000000,512.000000) scale(0.100000,-0.100000)"
fill="#000000" stroke="none">
<path d="M374 5087 c17 -18 92 -99 166 -180 140 -154 196 -200 265 -218 22 -6
51 -15 65 -19 25 -8 25 -8 2 -9 -35 -1 -300 67 -341 88 -53 27 -88 66 -106
119 -10 26 -21 57 -26 70 -9 24 -52 45 -78 39 -11 -3 -9 -5 5 -6 35 -2 71 -38
79 -78 12 -63 43 -112 91 -143 l46 -29 -45 -6 c-59 -9 -80 4 -124 73 -48 77
-80 109 -120 123 -18 6 -33 17 -33 24 0 20 -40 45 -70 44 -20 -1 -21 -2 -5 -6
26 -7 55 -33 55 -50 0 -20 -27 -16 -51 8 -26 26 -64 19 -96 -17 -28 -31 -29
-60 -3 -99 l20 -30 -33 -5 -32 -5 -3 -136 -3 -137 44 -25 c79 -47 164 -116
190 -156 29 -44 132 -101 222 -123 62 -15 61 -14 45 -33 -20 -24 -60 -17 -138
25 -79 43 -94 48 -86 26 9 -24 -17 -29 -40 -7 -16 15 -25 18 -33 10 -8 -8 -19
-6 -41 5 -43 22 -73 20 -79 -4 -6 -23 -7 -23 -51 -11 l-32 10 0 -48 0 -48 44
14 c33 11 52 12 73 5 28 -10 28 -10 -10 -11 -21 -1 -53 -8 -72 -15 l-35 -15 0
-73 0 -73 19 31 c20 33 67 74 85 74 6 0 -6 -11 -27 -25 -51 -35 -77 -90 -77
-163 0 -53 2 -60 23 -66 l22 -7 -22 -9 c-22 -9 -32 -30 -14 -30 5 0 26 7 47
16 51 22 147 22 211 0 28 -9 72 -35 97 -57 25 -22 53 -39 63 -37 13 2 19 -4
21 -22 3 -21 2 -22 -11 -11 -26 21 -70 10 -77 -19 l-6 -25 -29 33 c-32 36 -52
40 -70 15 -13 -17 -14 -17 -32 0 -36 32 -73 15 -73 -34 0 -29 31 -59 60 -59 9
0 31 -14 50 -31 l35 -30 -46 25 c-25 14 -54 26 -63 26 -10 0 -31 14 -47 31
-31 33 -39 28 -14 -9 16 -21 15 -22 -14 -16 -23 5 -32 2 -37 -10 -8 -21 13
-46 38 -46 10 0 16 -4 13 -10 -3 -5 -16 -10 -29 -10 -12 0 -28 -6 -35 -12 -10
-11 -17 -7 -37 15 l-24 28 0 -41 c0 -33 4 -42 22 -50 l23 -9 -22 -7 c-22 -6
-23 -12 -23 -90 0 -46 3 -84 6 -84 3 0 33 14 66 32 40 21 98 70 177 149 105
105 127 122 221 170 58 29 125 63 150 76 127 66 279 47 540 -66 188 -82 318
-181 418 -319 78 -108 77 -109 -52 -9 -62 48 -248 159 -340 203 -38 18 -93 38
-123 44 -108 23 -248 -24 -355 -117 l-53 -47 43 45 c47 50 51 59 22 59 -15 0
-19 6 -17 23 1 17 -2 21 -18 19 -11 -2 -27 -12 -37 -23 -20 -23 -27 -24 -43
-3 -17 25 -55 9 -62 -26 -6 -34 -30 -30 -39 6 -8 32 -29 30 -56 -6 -25 -34
-39 -37 -59 -14 -12 15 -7 22 36 62 40 36 44 42 19 29 -17 -9 -74 -59 -128
-112 -109 -108 -177 -156 -256 -184 -53 -19 -55 -21 -58 -60 l-3 -40 55 6 c33
3 100 -1 165 -12 106 -17 180 -14 258 11 10 3 -6 -17 -35 -45 -34 -33 -67 -54
-95 -62 -110 -29 -205 -60 -238 -77 -32 -16 -40 -17 -60 -6 -42 23 -49 18 -49
-40 l0 -55 48 21 c65 29 170 35 252 14 36 -9 109 -37 162 -62 79 -37 116 -48
197 -58 153 -20 190 -47 305 -221 36 -56 79 -114 96 -130 31 -30 39 -55 17
-55 -7 0 -18 5 -25 12 -7 7 -29 11 -50 10 -31 -2 -47 4 -83 33 -56 44 -96 47
-101 8 -2 -23 -9 -29 -33 -31 -29 -4 -29 -3 -12 15 9 11 17 25 17 31 0 21 -44
35 -108 34 -78 -2 -143 -29 -237 -101 -45 -35 -76 -51 -96 -51 -16 0 -29 2
-29 4 0 3 27 25 59 50 59 46 139 142 127 153 -3 4 -6 2 -6 -4 0 -20 -93 -114
-151 -153 -46 -32 -58 -37 -63 -24 -3 8 -10 13 -14 10 -9 -5 -157 -46 -168
-46 -3 0 -4 6 -1 14 4 11 -2 12 -27 6 -59 -13 -76 -28 -76 -65 0 -19 2 -35 4
-35 2 0 26 9 53 21 73 32 124 49 119 40 -3 -4 -44 -23 -91 -41 l-85 -33 1
-186 0 -186 21 30 c97 139 291 235 473 235 64 0 157 -19 190 -38 19 -11 19
-11 -5 -13 -16 -1 -11 -4 17 -10 34 -6 52 -4 85 11 24 10 61 22 83 26 62 11
71 19 115 103 91 174 237 261 441 261 164 0 254 -47 364 -190 35 -45 52 -59
80 -64 53 -10 96 -55 165 -170 60 -103 144 -196 187 -210 28 -9 65 7 208 93
133 80 246 121 330 121 103 0 208 -53 259 -130 27 -41 60 -120 50 -120 -3 0
-23 9 -46 21 -52 26 -131 28 -183 3 -21 -10 -52 -37 -69 -61 -30 -43 -30 -44
-76 -36 -25 4 -77 8 -117 8 -75 0 -85 7 -31 21 l33 8 -38 3 c-56 6 -140 -22
-247 -81 -141 -79 -157 -80 -88 -9 52 53 74 84 48 68 -14 -9 -56 16 -130 75
-36 29 -82 63 -102 76 -21 13 -45 39 -54 56 -26 52 -55 78 -86 78 -76 0 -54
-157 35 -248 49 -51 77 -67 149 -86 l53 -15 -40 0 c-94 -2 -201 81 -256 197
-47 101 -81 131 -109 97 -16 -19 -31 -19 -24 0 9 24 -4 78 -27 105 -20 25 -20
25 1 -15 24 -48 25 -73 4 -103 -18 -26 -65 -30 -88 -6 -22 21 -20 25 9 18 22
-5 25 -3 25 20 0 34 -37 54 -69 37 -27 -15 -44 -5 -36 20 7 22 -10 49 -32 49
-8 0 -26 -12 -40 -26 -20 -20 -28 -23 -34 -12 -12 18 -11 32 3 46 9 9 9 12 0
12 -22 0 -25 -29 -8 -72 12 -28 14 -44 7 -51 -7 -7 -14 -1 -21 19 -15 38 -38
64 -75 81 -27 12 -27 14 -5 10 14 -3 34 -8 45 -12 19 -7 19 -7 3 11 -24 25
-104 24 -148 -2 -19 -11 -43 -34 -53 -51 l-18 -32 45 -19 c44 -20 66 -45 66
-78 0 -15 -3 -15 -24 5 -16 15 -33 21 -52 19 -26 -3 -29 -6 -26 -37 4 -52 -39
-87 -51 -41 -6 22 -36 26 -70 9 -12 -6 -43 -34 -69 -62 -52 -54 -69 -58 -41
-9 17 30 17 32 0 49 -17 17 -19 17 -55 -2 -20 -11 -48 -37 -61 -57 -29 -45
-39 -43 -16 2 20 38 16 74 -8 78 -10 2 -35 -12 -57 -32 -42 -38 -65 -49 -37
-18 24 26 21 39 -9 46 -18 5 -32 2 -46 -11 -17 -15 -21 -15 -28 -3 -21 33 -11
79 28 122 l37 41 -54 -7 c-68 -9 -169 -35 -201 -51 -14 -7 -36 -26 -50 -41
-23 -26 -22 -26 12 3 46 39 109 59 138 43 11 -6 31 -35 45 -64 14 -30 36 -61
50 -70 13 -9 42 -43 64 -75 l40 -59 43 10 c64 15 192 3 283 -27 178 -58 249
-94 332 -167 74 -66 131 -103 213 -134 l35 -14 -50 6 c-69 8 -136 40 -232 112
-44 34 -85 62 -89 62 -4 0 6 -10 22 -22 17 -13 55 -44 85 -69 58 -50 107 -78
154 -90 l30 -7 -28 -1 c-17 -1 -57 16 -97 39 -112 67 -177 63 -134 -7 13 -20
4 -15 -32 20 -64 61 -105 62 -90 2 16 -63 100 -123 217 -155 l74 -21 -64 6
c-75 7 -149 33 -211 75 -42 28 -45 29 -48 11 -7 -43 -55 -52 -69 -14 -13 37
-57 86 -89 99 -25 11 -44 12 -76 5 -50 -12 -76 1 -104 48 -24 41 -59 59 -85
43 -11 -7 -24 -10 -30 -6 -6 3 -18 -1 -28 -11 -22 -19 -71 -11 -71 11 0 23
-39 16 -64 -11 l-23 -25 -27 21 c-35 27 -33 60 5 99 37 36 71 55 158 85 l64
23 -42 30 c-50 37 -87 46 -142 37 -78 -13 -135 -94 -121 -172 l5 -28 -20 25
c-34 43 -46 73 -53 135 l-7 60 -2 -58 c-2 -79 17 -117 101 -204 83 -86 116
-104 248 -132 99 -22 191 -60 262 -109 70 -48 123 -71 198 -87 90 -19 154 -19
215 0 64 19 70 12 8 -9 -93 -31 -229 -56 -306 -56 -117 0 -226 41 -307 115
-40 36 -67 49 -75 35 -4 -6 1 -20 9 -32 30 -42 10 -52 -34 -18 -28 22 -55 26
-65 9 -18 -28 58 -69 206 -113 46 -14 74 -25 63 -25 -47 -2 -205 53 -323 110
-110 54 -133 70 -206 142 -97 98 -115 132 -116 224 l-1 68 -9 -45 c-5 -25 -7
-67 -3 -93 l6 -49 -31 17 c-48 24 -69 1 -34 -38 18 -20 17 -20 -14 -14 -35 7
-44 -8 -21 -31 19 -19 -1 -14 -33 9 l-29 20 0 -41 c0 -37 2 -40 19 -30 48 25
202 0 224 -38 4 -5 -12 0 -35 11 -49 24 -141 33 -181 18 -26 -10 -27 -13 -27
-79 l0 -69 70 -5 c98 -7 158 -40 255 -138 43 -45 105 -97 136 -116 62 -37 178
-84 209 -84 40 0 18 -16 -44 -33 -124 -33 -177 -22 -265 56 l-46 41 45 -48
c80 -86 147 -103 261 -65 97 32 192 36 259 10 69 -26 125 -71 151 -122 11 -22
36 -51 57 -65 98 -66 142 -94 148 -94 3 0 30 -22 60 -49 64 -59 124 -89 182
-93 23 -1 42 -4 42 -5 0 -9 -128 -63 -160 -68 l-35 -5 35 11 c49 15 61 29 24
29 -39 1 -97 28 -188 90 -104 69 -154 90 -205 83 -26 -4 -41 -2 -41 5 0 6 6 9
14 6 23 -9 15 33 -10 57 -12 11 -28 21 -36 22 -7 2 -30 13 -50 25 -27 17 -49
22 -80 20 l-43 -3 3 -37 c2 -21 0 -38 -4 -38 -3 0 -19 13 -34 30 -43 46 -84
37 -92 -20 -2 -19 -9 -25 -28 -25 -20 0 -26 6 -30 30 -4 22 -11 31 -28 33 -35
5 -69 -22 -102 -82 -17 -29 -58 -79 -91 -111 l-60 -57 -72 5 -72 6 90 -20 c50
-12 105 -21 122 -22 20 -1 28 -4 20 -9 -9 -6 -8 -8 4 -8 9 0 44 -18 78 -40 34
-22 69 -40 77 -40 28 0 58 22 135 96 83 80 117 99 194 108 57 7 43 -1 -50 -30
-49 -15 -74 -32 -135 -90 -115 -109 -131 -113 -218 -59 -44 26 -85 41 -177 60
-66 13 -138 29 -160 35 -49 12 -127 13 -105 1 8 -4 42 -14 75 -21 57 -12 157
-56 227 -101 28 -17 29 -19 8 -14 -14 4 -56 21 -95 38 -72 31 -215 70 -224 61
-8 -7 21 -24 42 -24 24 0 124 -49 140 -68 10 -12 6 -12 -20 1 -41 22 -55 21
-106 -3 -30 -15 -36 -16 -22 -4 11 9 33 21 49 27 29 10 29 10 6 19 -12 5 -38
6 -56 2 l-32 -6 -1 -79 c0 -78 6 -92 28 -65 20 24 124 64 193 76 118 18 202
-2 383 -93 123 -61 199 -87 257 -87 33 0 50 9 108 58 38 32 95 71 126 86 108
53 250 68 329 35 17 -7 60 -11 100 -10 88 3 149 -18 241 -85 132 -97 144 -101
198 -59 66 50 125 69 216 70 72 0 94 -4 142 -27 31 -14 65 -36 75 -47 15 -18
29 -21 90 -21 72 0 74 1 114 40 51 49 82 59 109 35 19 -18 22 -16 73 36 29 30
61 65 70 79 10 14 8 6 -5 -18 -12 -24 -54 -72 -92 -108 l-69 -64 102 0 c102 0
102 0 128 30 31 37 52 49 117 66 68 18 71 10 4 -10 -55 -16 -128 -60 -128 -76
0 -15 160 -11 205 5 52 19 132 19 185 0 25 -9 78 -15 129 -15 83 0 89 1 115
29 15 16 34 46 41 67 12 32 14 34 14 14 1 -28 -25 -72 -55 -95 -17 -13 17 -14
285 -15 l303 0 58 60 c70 72 154 115 257 130 92 13 150 2 260 -50 119 -56 118
-49 -2 12 -55 28 -119 66 -142 85 -35 29 -44 32 -49 20 -3 -9 -2 -21 2 -28 4
-7 2 -10 -7 -7 -7 2 -25 24 -39 49 -29 49 -55 61 -63 29 -7 -27 -21 -25 -41 5
-19 30 -36 32 -36 6 0 -21 -51 -47 -75 -37 -8 3 -22 24 -31 46 -14 34 -26 46
-71 67 -57 27 -69 25 -75 -17 -2 -14 -11 -26 -20 -28 -12 -2 -16 1 -13 11 9
23 -27 57 -67 64 -46 7 -97 -12 -108 -41 l-9 -21 0 21 c-1 23 32 58 69 73 l25
10 -23 0 c-35 1 -92 -59 -92 -97 0 -26 4 -31 36 -37 21 -3 47 -13 59 -21 25
-16 48 -61 40 -75 -9 -14 -25 -11 -25 6 0 35 -69 46 -100 15 -22 -22 -18 -46
10 -55 20 -6 34 -45 21 -58 -4 -4 -16 2 -26 13 -10 11 -24 20 -31 20 -23 0
-44 -31 -44 -66 0 -28 -4 -35 -17 -32 -13 2 -19 16 -23 48 -4 38 -9 46 -29 48
-13 2 -37 -6 -53 -18 -32 -23 -35 -23 -52 12 -16 33 -43 34 -69 3 -68 -82
-105 -119 -139 -136 -52 -27 -48 -17 6 15 46 27 109 104 127 154 21 62 -31
101 -83 62 -29 -21 -30 -21 -50 -3 -18 16 -22 16 -30 3 -5 -8 -29 -50 -54 -93
-24 -42 -49 -77 -55 -77 -6 0 -6 7 1 20 14 27 -5 27 -45 0 -35 -23 -60 -27
-27 -4 21 14 29 44 16 57 -4 4 -20 -5 -36 -18 -16 -14 -34 -25 -40 -25 -6 0 4
10 22 22 19 13 35 28 37 35 3 6 -14 24 -36 38 -30 21 -50 26 -88 25 -73 -3
-75 -2 -71 22 2 13 11 24 23 26 33 6 38 19 16 41 -28 28 -36 27 -68 -9 -34
-38 -66 -41 -57 -5 13 54 -100 60 -133 7 -29 -46 -44 -61 -59 -55 -8 3 -14 12
-14 20 0 13 3 13 15 3 12 -10 16 -8 25 15 5 14 10 33 10 41 0 18 -29 18 -54
-1 -11 -8 -41 -15 -66 -15 -25 0 -50 -4 -56 -9 -9 -9 -129 -71 -137 -71 -2 0
-2 11 0 24 4 17 -2 28 -18 40 -21 14 -25 14 -44 1 -11 -9 -34 -22 -51 -30 -40
-18 -58 -40 -51 -65 3 -10 -1 -24 -9 -31 -23 -19 -17 -49 9 -49 18 0 19 -2 7
-10 -8 -5 -32 -10 -52 -10 -46 0 -52 16 -39 99 12 75 24 97 64 121 18 11 27
20 21 20 -7 0 -22 -8 -35 -19 -22 -18 -23 -18 -53 28 -39 57 -101 101 -153
108 -35 5 -41 3 -46 -17 -5 -19 -8 -20 -28 -10 -22 13 -38 1 -39 -27 0 -24
-40 -14 -50 12 -13 35 -66 35 -82 0 -14 -30 -28 -32 -35 -5 -7 26 -33 25 -78
-1 -20 -12 -38 -19 -41 -16 -11 10 146 164 193 189 161 87 337 73 484 -40 146
-112 187 -128 316 -120 57 3 76 9 116 36 27 19 45 38 41 44 -4 6 -3 8 3 5 10
-6 103 57 103 69 0 3 -15 3 -32 0 -30 -6 -31 -5 -9 4 14 6 31 8 39 5 9 -3 48
27 101 77 108 103 188 148 261 148 58 0 113 -31 125 -70 5 -16 15 -20 46 -20
29 0 47 -7 64 -25 31 -31 33 -52 3 -31 -48 34 -111 9 -172 -67 -40 -50 -43
-119 -8 -167 23 -30 23 -32 5 -46 -27 -21 -55 -13 -80 25 -33 49 -32 129 2
188 14 23 24 43 21 43 -3 0 -18 -21 -33 -47 -45 -77 -31 -185 29 -227 l22 -16
-29 -31 c-36 -39 -17 -29 51 26 28 23 77 57 110 75 32 19 109 83 171 142 150
145 243 187 390 175 85 -6 149 -40 253 -133 95 -85 135 -108 201 -118 59 -9
92 -39 164 -152 100 -156 181 -224 328 -275 56 -20 73 -29 52 -28 -16 0 -46 6
-65 13 -68 26 -75 26 -26 2 l49 -24 -44 -7 c-28 -4 -62 -1 -94 9 -56 17 -71
15 -26 -4 17 -7 36 -18 42 -26 8 -10 35 -14 88 -14 73 0 79 2 107 31 16 17 50
46 77 66 37 28 47 41 47 64 0 16 -3 29 -7 29 -3 0 -28 -14 -54 -30 -26 -17
-65 -33 -86 -36 l-38 -4 40 12 c22 7 64 27 92 43 43 25 53 35 53 58 0 15 -4
27 -9 27 -5 0 -36 -20 -69 -45 -54 -41 -118 -75 -139 -75 -4 0 17 14 47 31 30
16 66 40 80 53 14 13 41 33 60 45 43 26 39 26 -41 2 -75 -22 -170 -43 -176
-38 -2 2 29 14 69 26 184 56 224 82 107 70 -90 -10 -129 -23 -174 -59 -35 -28
-91 -46 -115 -38 -6 2 26 29 72 60 87 60 165 88 245 88 39 0 43 2 43 25 0 29
1 29 -69 10 -79 -21 -272 -47 -317 -43 l-39 4 55 16 c30 10 104 22 163 29 60
6 130 16 155 22 45 12 47 14 50 51 l3 40 -43 -36 c-24 -19 -54 -40 -68 -47
-21 -10 -20 -8 5 11 17 12 47 39 68 59 34 34 37 41 37 95 l0 57 -22 -20 c-31
-28 -101 -73 -112 -73 -6 0 10 13 35 29 74 48 101 82 97 127 -3 36 -6 39 -36
42 -27 3 -34 -1 -42 -22 -11 -30 -18 -32 -35 -10 -10 15 -15 14 -51 -9 -21
-15 -57 -33 -79 -40 -34 -12 -42 -12 -53 -1 -7 8 -25 14 -40 14 -26 0 -26 1
18 38 25 20 88 80 140 132 55 55 113 103 137 114 l43 19 0 74 c0 73 0 74 -22
62 -13 -7 -59 -50 -103 -96 -44 -46 -84 -83 -89 -83 -14 0 131 155 174 185 37
26 40 31 40 74 0 40 -4 48 -27 58 -39 18 -77 -10 -167 -122 -115 -142 -212
-216 -301 -229 l-40 -6 40 13 c62 21 95 41 162 99 61 53 193 201 193 217 0 18
-30 19 -52 2 -30 -24 -84 -51 -100 -51 -7 0 2 9 20 20 18 11 35 28 39 38 3 9
13 26 22 37 9 11 -9 -1 -39 -26 -79 -65 -101 -79 -127 -79 -28 0 -28 6 -2 50
60 99 118 146 224 180 41 13 88 40 82 46 -2 2 -17 0 -35 -5 -24 -7 -30 -6 -26
4 6 15 -44 45 -73 45 -27 -1 -53 -24 -53 -49 0 -17 -6 -21 -30 -21 -19 0 -30
5 -30 14 0 20 -67 76 -91 76 -12 0 -35 -10 -51 -22 -30 -21 -31 -21 -64 -3
-23 12 -34 25 -34 40 0 12 -11 34 -25 49 -54 58 -173 17 -209 -73 -9 -23 -16
-50 -16 -61 0 -28 -17 -34 -26 -8 -11 37 -7 103 9 134 18 35 41 57 82 78 17 9
23 16 14 16 -21 0 -79 -44 -100 -77 -42 -64 -30 -160 33 -250 16 -24 25 -43
20 -43 -18 0 -77 23 -93 36 -49 42 -67 -11 -19 -56 27 -25 30 -40 8 -40 -5 0
-28 18 -53 41 l-44 41 -7 -26 c-7 -31 -19 -33 -34 -6 -13 23 -40 27 -40 5 0
-23 -18 -18 -26 7 -6 21 -7 21 -21 -5 -7 -15 -27 -34 -43 -42 -17 -9 -42 -34
-57 -55 -27 -42 -44 -48 -23 -10 10 18 8 24 -7 35 -16 12 -20 10 -32 -13 l-14
-26 -15 22 c-20 30 -35 28 -49 -8 -8 -21 -25 -36 -55 -50 -42 -18 -176 -45
-185 -37 -2 3 24 10 58 16 93 16 140 54 107 88 -13 13 -19 13 -53 -1 -43 -18
-75 -21 -75 -6 0 16 -23 12 -118 -20 -50 -16 -96 -30 -103 -30 -8 0 41 27 109
60 68 33 145 75 170 93 73 53 108 68 200 83 73 12 97 21 169 66 93 59 148 111
220 208 66 88 136 125 237 125 55 -1 84 -7 130 -28 32 -15 75 -27 95 -27 50 0
100 -33 118 -78 8 -21 29 -47 46 -59 29 -20 173 -73 197 -73 5 0 25 14 45 31
l35 31 0 138 0 138 -52 -20 c-62 -23 -212 -58 -248 -57 -14 0 13 9 60 20 83
19 157 40 213 61 24 9 27 16 27 54 0 43 -1 44 -27 39 l-28 -5 28 12 c16 7 27
20 27 31 0 16 -17 9 -116 -43 -64 -34 -118 -59 -121 -57 -3 3 10 13 29 22 18
10 54 32 79 50 55 39 111 70 122 67 4 -1 7 41 7 93 0 52 -4 95 -8 95 -16 0
-59 -55 -91 -115 -18 -33 -46 -76 -62 -95 l-30 -35 20 45 c21 46 29 126 11
115 -5 -3 -23 -32 -41 -65 -17 -33 -47 -77 -66 -97 l-34 -38 25 36 c32 44 33
59 4 32 -38 -33 -188 -129 -188 -120 0 3 27 22 60 42 78 47 163 120 173 148 6
18 3 16 -20 -9 -15 -17 -48 -47 -73 -66 -46 -37 -180 -114 -180 -104 0 3 13
12 28 20 64 33 145 112 211 205 79 111 137 167 211 202 48 23 50 25 50 65 0
44 -12 54 -67 54 -27 0 -33 -37 -8 -46 8 -4 15 -10 15 -15 0 -16 -22 -9 -53
17 -22 18 -32 22 -38 13 -11 -18 0 -38 30 -54 14 -8 19 -14 11 -15 -8 0 -30 9
-48 20 -51 31 -97 23 -57 -10 27 -22 9 -22 -34 -1 -50 26 -83 27 -105 2 -10
-10 -33 -22 -52 -26 -20 -3 -43 -9 -52 -12 -15 -6 -15 -4 -4 10 8 8 22 17 33
19 29 5 28 21 -3 32 -23 8 -32 6 -53 -14 -14 -13 -25 -18 -25 -12 0 19 38 52
60 52 31 0 37 30 11 52 -15 12 -39 18 -71 18 -60 0 -104 -28 -147 -95 -95
-145 -240 -232 -474 -287 -84 -19 -159 -19 -159 1 0 4 33 14 73 21 110 19 232
57 314 97 84 41 177 121 171 149 -5 30 -25 27 -70 -13 -24 -20 -34 -26 -22
-13 28 33 37 50 27 50 -5 0 -28 -25 -51 -55 -24 -30 -53 -60 -65 -65 -16 -8
-13 -4 8 14 20 17 26 29 19 36 -7 7 -27 -3 -63 -30 -30 -22 -56 -38 -59 -35
-3 3 0 11 6 17 7 7 12 16 12 20 0 16 -31 7 -81 -24 -132 -81 -304 -111 -366
-65 l-31 23 101 12 c125 15 212 54 305 135 39 34 79 59 107 67 24 7 54 23 66
36 12 13 38 29 58 35 55 18 100 52 147 113 62 79 119 99 279 100 159 1 206
-15 285 -95 46 -47 63 -59 88 -59 l32 0 0 93 -1 92 -35 -58 c-20 -32 -38 -56
-40 -54 -3 2 14 34 36 70 46 76 52 125 20 157 -31 31 -88 21 -74 -13 5 -14 -1
-17 -35 -17 -35 0 -43 -4 -56 -30 -13 -25 -21 -30 -47 -28 -23 2 -35 -4 -46
-20 -18 -28 -52 -30 -52 -3 0 24 44 78 71 86 11 4 18 9 16 12 -10 10 -66 -28
-99 -67 -37 -43 -69 -51 -124 -30 -21 8 -38 6 -83 -11 -43 -17 -79 -22 -156
-23 -93 -1 -105 1 -168 31 -112 53 -216 131 -329 247 -100 101 -108 107 -116
86 -8 -22 -9 -22 -21 7 -7 16 -58 76 -113 133 -114 116 -114 118 -2 119 155 2
283 -88 402 -282 79 -128 171 -206 287 -243 33 -10 35 -13 14 -13 -79 -2 -226
80 -350 197 -52 48 -93 77 -129 91 -30 11 -55 19 -57 17 -2 -2 47 -52 110
-112 173 -169 333 -266 436 -266 64 0 167 55 295 159 196 158 241 181 384 198
l62 7 0 112 0 112 -63 51 c-35 28 -71 67 -81 87 -20 43 -37 45 -65 10 -36 -45
-28 -78 34 -143 75 -79 119 -185 85 -206 -6 -4 -10 9 -10 32 0 48 -46 130 -97
172 -50 42 -131 81 -162 80 -24 -1 -24 -2 4 -8 81 -20 128 -88 129 -186 0 -59
-27 -133 -55 -150 -6 -4 -1 12 11 35 44 86 36 198 -18 240 l-26 21 -16 -21
c-10 -13 -22 -19 -32 -15 -10 4 -17 -1 -21 -15 -5 -18 -9 -20 -26 -11 -28 16
-35 14 -46 -11 -14 -32 -55 -37 -62 -8 -8 32 -45 19 -112 -41 -108 -97 -264
-155 -373 -139 l-43 6 60 12 c33 7 78 17 100 23 118 33 227 131 169 153 -31
12 -46 5 -100 -45 l-54 -52 0 39 0 39 -33 -37 c-37 -42 -71 -65 -116 -78 -57
-16 -83 8 -33 29 16 7 51 35 78 63 l49 52 -44 -37 c-37 -31 -46 -34 -67 -25
-28 13 -24 24 14 33 38 8 63 31 104 95 71 113 164 154 258 116 11 -4 46 20
105 74 107 96 146 120 245 151 61 20 97 24 193 24 l117 0 0 150 -1 150 -24
-30 c-13 -16 -27 -43 -31 -60 -4 -16 -9 -24 -11 -17 -6 16 36 102 53 109 8 3
14 20 14 39 l0 34 -41 -20 c-23 -12 -43 -19 -45 -17 -2 2 16 15 41 28 39 21
45 28 45 56 0 26 -4 33 -19 33 -10 0 -24 -6 -30 -14 -8 -10 -23 -13 -44 -9
-43 7 -83 -26 -112 -91 -23 -51 -47 -78 -97 -109 -31 -19 -74 -22 -83 -6 -5 7
-12 5 -23 -4 -10 -9 -28 -17 -42 -19 -23 -3 -21 -6 25 -37 27 -18 67 -36 87
-39 21 -2 35 -9 32 -14 -10 -16 -66 0 -111 32 -45 33 -59 36 -66 18 -3 -9 -12
-6 -29 10 -31 28 -42 28 -71 -4 -21 -22 -25 -23 -37 -10 -15 19 -41 21 -57 5
-9 -9 -22 -4 -54 19 l-42 31 29 12 c16 6 58 15 93 20 83 12 177 36 216 56 39
20 125 103 125 121 0 23 -55 9 -165 -42 -54 -25 -100 -44 -102 -42 -2 2 13 11
32 21 20 9 34 19 31 23 -3 3 -67 -25 -142 -61 -157 -78 -202 -89 -67 -18 102
54 403 251 403 263 0 5 -7 8 -15 8 -9 0 -38 16 -66 35 -50 34 -120 60 -142 52
-7 -2 3 -7 20 -11 18 -4 35 -12 38 -16 7 -11 -54 8 -72 22 -13 11 -70 2 -78
-12 -3 -5 8 -16 25 -25 37 -19 40 -28 4 -15 -14 6 -46 9 -72 9 l-47 -1 60 -9
c47 -7 75 -19 128 -55 37 -25 70 -50 72 -55 3 -4 -8 -15 -24 -24 -38 -19 -51
-19 -25 0 19 15 19 15 -1 31 -63 49 -150 73 -222 59 -36 -6 -37 -7 -15 -19 22
-12 21 -12 -21 -33 -53 -26 -107 -70 -107 -89 0 -30 -103 -62 -160 -49 -23 5
-29 10 -21 18 20 20 11 28 -16 14 -39 -20 -521 -6 -607 18 -82 22 -166 68
-212 118 l-39 41 49 -42 c63 -55 139 -91 205 -99 32 -3 99 1 165 10 61 9 156
21 211 27 148 15 255 51 340 115 81 61 125 85 213 113 126 42 248 37 318 -11
18 -12 53 -37 79 -56 29 -21 64 -36 89 -38 39 -5 45 -2 114 60 41 37 91 74
112 84 l39 18 1 141 0 141 -25 -5 c-27 -5 -32 6 -12 27 10 10 8 12 -7 9 -33
-6 -43 -34 -23 -67 9 -16 17 -34 17 -40 0 -15 -26 -14 -51 2 -17 10 -22 9 -40
-13 -19 -24 -20 -24 -34 -6 -12 16 -12 22 -2 35 6 9 -5 1 -26 -16 -21 -18 -42
-33 -47 -33 -14 0 -21 18 -10 25 19 12 10 25 -27 42 -21 10 -48 33 -60 52
l-23 34 36 13 c58 20 104 64 171 163 35 51 63 95 63 97 0 2 -27 4 -61 4 -41 0
-58 -3 -53 -11 4 -8 0 -7 -15 1 -26 14 -258 9 -312 -7 -21 -6 -43 -7 -50 -3
-8 6 -3 10 17 13 16 2 3 5 -29 6 l-58 1 74 -59 c85 -68 162 -159 232 -276 98
-163 139 -217 190 -251 27 -19 46 -34 42 -34 -5 0 -58 25 -119 56 -103 51
-150 62 -132 32 4 -7 -6 -1 -23 15 -16 15 -33 27 -38 27 -5 0 -17 8 -28 18
-20 17 -20 17 -1 -17 26 -45 87 -97 149 -125 110 -50 104 -46 70 -40 -133 27
-315 193 -315 288 0 13 -3 32 -6 41 -8 20 -56 45 -86 44 -25 -1 -19 -4 24 -13
47 -11 56 -28 51 -99 -6 -72 13 -128 69 -200 l32 -42 -48 45 c-33 31 -61 73
-92 136 -37 78 -57 104 -80 104 -2 0 -4 -16 -4 -35 0 -41 -3 -42 -30 -15 -11
11 -27 20 -36 20 -14 0 -14 2 0 22 23 33 20 73 -9 105 l-26 28 22 -38 c27 -47
19 -81 -24 -107 -49 -30 -87 -24 -55 8 9 9 9 15 0 24 -9 9 -22 9 -54 1 -50
-14 -57 -10 -34 16 10 11 16 30 14 43 -2 19 -10 24 -40 26 -53 4 -120 -33
-166 -92 -26 -34 -30 -115 -7 -160 8 -15 15 -42 15 -59 0 -25 12 -43 60 -89
73 -71 48 -61 -37 15 -64 58 -106 76 -129 56 -33 -27 2 -142 66 -212 27 -30
36 -46 23 -39 -36 20 -83 84 -100 140 -16 50 -18 52 -44 47 -17 -4 -40 0 -58
9 -25 13 -30 23 -33 58 -3 39 -6 43 -31 46 -39 5 -55 -11 -49 -49 3 -20 0 -34
-9 -40 -24 -15 -31 -10 -24 21 6 28 5 30 -24 30 -37 0 -52 -24 -44 -72 7 -46
-9 -55 -48 -28 -24 18 -38 21 -67 15 -55 -10 -129 -11 -139 -1 -4 4 5 18 21
30 68 50 79 65 22 31 -33 -19 -67 -35 -76 -35 -9 0 -34 15 -55 33 l-38 33 79
29 c116 41 143 57 204 120 75 77 119 99 200 100 36 0 71 4 78 8 7 5 28 39 46
75 37 74 112 151 191 198 l50 29 -141 3 -141 3 -33 -31 c-18 -16 -36 -30 -41
-30 -5 0 5 13 23 30 l33 29 -143 1 c-136 0 -142 -1 -133 -19 9 -16 17 -17 53
-10 73 14 111 -4 199 -90 76 -75 109 -126 53 -82 -15 12 -32 21 -39 21 -7 0
-29 12 -50 26 -32 21 -42 24 -62 15 -13 -6 -41 -11 -61 -11 l-37 0 23 18 c31
24 12 42 -45 42 -40 0 -43 -2 -43 -28 0 -31 -15 -54 -45 -70 -16 -8 -23 -5
-41 19 l-22 30 25 45 c21 38 24 50 14 70 -10 22 -16 24 -87 24 l-77 0 37 -42
c20 -24 42 -54 48 -67 7 -13 27 -38 45 -56 20 -20 33 -43 33 -58 0 -28 -32
-57 -64 -57 -18 0 -18 1 -2 19 21 23 14 42 -25 65 -29 17 -66 15 -54 -3 7 -12
-1 -17 -42 -26 -26 -5 -33 -3 -33 9 0 9 5 16 10 16 6 0 10 5 10 10 0 19 -67
10 -101 -13 -18 -12 -44 -38 -57 -57 -20 -30 -23 -44 -19 -95 2 -33 8 -68 12
-79 8 -17 7 -17 -24 -1 -59 30 -108 5 -125 -65 -5 -17 0 -13 14 13 24 43 54
59 88 46 34 -13 171 -107 218 -149 88 -80 260 -176 413 -231 123 -44 121 -50
-5 -13 -81 23 -128 44 -291 129 -43 22 -56 25 -68 15 -12 -10 -21 -7 -50 19
-27 24 -45 31 -75 31 -22 0 -40 -3 -40 -6 0 -4 16 -29 36 -58 l36 -51 -41 45
c-22 24 -43 41 -47 38 -14 -15 9 -58 77 -143 42 -53 56 -76 34 -55 -20 19 -62
66 -93 104 -92 112 -99 118 -122 106 -14 -7 -20 -21 -20 -43 0 -28 13 -45 97
-125 177 -169 271 -242 368 -287 155 -72 145 -66 101 -59 -111 16 -224 83
-359 212 -51 48 -129 120 -174 160 -72 64 -86 72 -121 72 -32 0 -45 6 -61 26
-12 15 -21 37 -21 50 0 15 -6 24 -15 24 -12 0 -14 8 -9 40 4 26 2 45 -6 55
-17 21 -63 19 -93 -5 -30 -24 -46 -25 -53 -5 -9 21 -44 19 -44 -3 0 -24 -28
-62 -46 -62 -10 0 -9 5 6 20 26 26 25 42 -1 66 -21 19 -21 19 -43 -8 -16 -20
-25 -25 -36 -18 -27 17 -52 10 -87 -25 -19 -19 -53 -49 -76 -67 -23 -17 -78
-69 -122 -115 -54 -56 -87 -83 -103 -83 -20 0 -18 4 18 36 54 49 74 84 109
192 36 111 55 145 120 205 57 53 97 75 208 111 109 36 154 71 211 163 26 41
58 88 70 104 l24 29 -62 0 c-64 0 -112 -18 -180 -68 l-35 -25 25 28 c14 15 43
36 65 46 l40 19 -190 -1 c-181 0 -188 -1 -155 -16 133 -60 202 -100 255 -148
l59 -54 -57 -26 c-72 -32 -110 -31 -167 1 -40 22 -43 23 -24 4 11 -12 38 -28
60 -35 32 -11 34 -14 14 -14 -39 -1 -119 41 -200 104 -102 78 -138 95 -205 95
-52 0 -59 3 -104 45 -26 25 -57 45 -67 45 -22 -1 17 -38 131 -125 39 -29 86
-69 104 -89 21 -22 44 -36 59 -36 31 0 89 -28 96 -46 7 -18 -4 -18 -40 1 -53
27 -72 15 -33 -21 12 -10 30 -31 41 -46 19 -27 19 -28 0 -28 -10 0 -39 13 -63
29 -48 33 -60 32 -52 -2 5 -19 -1 -16 -35 17 -33 31 -45 37 -66 32 -33 -8 -33
-30 1 -75 24 -31 25 -33 5 -19 -12 8 -47 47 -77 85 -105 135 -205 173 -309
118 l-48 -25 -18 22 c-15 19 -21 21 -43 11 -15 -7 -37 -34 -51 -60 -30 -58
-34 -43 -6 27 26 67 9 55 -31 -21 -44 -82 -120 -149 -213 -188 -78 -32 -254
-68 -282 -57 -26 10 -12 16 49 21 252 21 437 150 436 305 0 25 -5 55 -13 68
-17 31 -65 62 -96 61 l-25 -1 26 -7 c62 -20 99 -61 99 -112 0 -20 -5 -17 -37
21 -42 49 -85 70 -141 70 -45 0 -67 -19 -59 -51 4 -15 1 -19 -11 -17 -9 2 -18
13 -20 26 -2 12 -8 22 -13 22 -6 0 -7 -9 -4 -21 6 -19 4 -21 -19 -17 -21 4
-31 0 -43 -18 -21 -33 -47 -32 -41 1 7 32 -9 43 -26 19 -13 -17 -14 -16 -20 4
-9 28 -16 27 -44 -2 -36 -39 -106 -68 -175 -72 l-62 -5 55 22 c83 33 155 87
202 152 l19 27 -88 -1 -88 -1 65 -18 c82 -23 53 -25 -42 -4 -70 16 -207 16
-253 0 -13 -5 -11 -2 5 8 23 14 17 15 -96 16 l-122 0 32 -33z m4574 -22 c-15
-9 -83 -21 -152 -29 -68 -7 -129 -17 -135 -20 -6 -4 -11 -4 -11 -1 0 15 74 34
170 45 58 6 107 13 109 16 2 2 14 4 25 4 19 -1 18 -2 -6 -15z m-2823 -73 c53
-29 197 -143 190 -150 -4 -4 -60 35 -140 98 -42 33 -58 40 -96 40 -33 0 -51 6
-64 20 -18 20 -17 20 21 20 24 0 59 -11 89 -28z m-1185 -80 c-49 -24 -68 -27
-165 -28 l-110 -2 105 7 c76 5 118 13 150 28 25 12 52 21 60 21 8 0 -10 -12
-40 -26z m416 -19 c-9 -40 -52 -84 -127 -133 -99 -64 -124 -67 -239 -31 -97
31 -175 38 -230 22 -22 -7 -19 -9 20 -14 25 -4 86 -12 135 -19 l90 -13 -94 -3
c-85 -3 -99 0 -150 24 -49 24 -177 131 -168 141 2 2 24 -4 48 -13 24 -8 84
-24 132 -35 49 -11 130 -37 181 -59 121 -52 161 -53 242 -4 75 45 131 99 146
141 14 39 22 36 14 -4z m432 10 c19 -9 50 -32 70 -52 l37 -36 -53 -3 c-61 -4
-69 -14 -52 -66 22 -66 125 -141 250 -181 66 -21 91 -40 40 -30 -86 16 -169
52 -251 108 -84 56 -91 59 -107 43 -33 -29 -82 -17 -82 20 0 39 -37 32 -48 -8
-9 -37 -41 -58 -87 -58 l-30 0 32 16 c17 9 34 22 37 30 18 47 -95 18 -239 -62
-152 -85 -211 -106 -305 -108 -69 -1 -83 2 -153 37 -125 62 -168 34 -78 -49
28 -26 49 -49 47 -51 -2 -2 -25 9 -51 26 -41 26 -50 28 -78 19 -29 -10 -33 -9
-61 25 -36 43 -66 49 -66 13 0 -32 -19 -44 -35 -23 -13 18 -42 22 -61 9 -21
-14 -32 -47 -30 -97 1 -44 4 -52 33 -70 42 -26 42 -39 1 -31 -20 3 -46 20 -66
43 l-32 36 0 -30 c0 -39 -23 -61 -45 -43 -8 7 -15 19 -15 26 0 8 -6 14 -14 14
-7 0 -24 9 -37 19 -16 12 -34 17 -51 14 -19 -4 -39 3 -67 23 -22 16 -41 32
-41 35 0 4 19 9 42 13 72 12 125 42 206 119 43 41 92 82 110 91 69 36 241 9
389 -61 71 -33 86 -36 163 -36 122 0 214 37 356 145 31 23 72 43 104 51 43 10
57 19 77 48 60 91 146 116 241 72z m-558 8 c-14 -5 -58 -24 -97 -45 -40 -20
-76 -36 -80 -35 -17 1 163 88 182 88 16 -1 15 -2 -5 -8z m2225 -179 c-5 -5
-45 74 -45 89 0 7 11 -10 25 -36 13 -27 23 -51 20 -53z m-3280 56 c-12 -68 49
-137 133 -149 l47 -6 -45 -2 c-95 -2 -175 93 -144 173 10 27 15 18 9 -16z
m1725 -96 c17 -13 48 -30 68 -37 20 -7 31 -14 24 -14 -57 -3 -172 90 -172 139
0 8 11 -3 24 -25 13 -22 38 -50 56 -63z m219 -27 c19 -14 31 -25 25 -25 -16 0
-81 58 -114 103 -32 42 -32 42 11 -6 24 -26 59 -58 78 -72z m150 84 c-7 -4
-21 -3 -31 2 -25 14 -23 16 13 11 21 -3 27 -7 18 -13z m-2229 -18 c-15 -30
-12 -73 9 -114 23 -46 18 -48 -9 -4 -22 35 -26 87 -10 118 6 10 13 19 16 19 2
0 0 -9 -6 -19z m338 -6 c20 -14 32 -25 27 -25 -12 0 -75 38 -75 45 0 10 11 5
48 -20z m2739 -108 l38 -41 -42 32 c-39 31 -83 101 -83 133 0 8 11 -8 25 -35
13 -27 41 -67 62 -89z m1240 67 c16 -14 16 -14 -7 -3 -38 18 -50 30 -43 42 4
6 11 3 19 -7 7 -10 21 -24 31 -32z m-287 -69 c0 -16 -5 -37 -10 -45 -6 -10 -8
-4 -4 21 4 24 0 48 -11 70 l-16 34 20 -25 c11 -14 21 -38 21 -55z m939 -2 c13
-13 38 -27 55 -32 17 -5 23 -10 13 -10 -40 -2 -118 61 -116 93 0 6 6 2 12 -8
7 -11 23 -30 36 -43z m-3592 7 c-27 -10 -80 -41 -118 -69 -86 -63 -134 -88
-184 -95 -38 -6 -38 -5 7 8 53 15 104 44 164 92 55 44 130 82 164 83 8 0 -7
-8 -33 -19z m620 14 c-3 -3 -12 -4 -19 -1 -8 3 -5 6 6 6 11 1 17 -2 13 -5z
m2341 -114 c24 -7 45 -17 48 -21 7 -12 -74 18 -110 40 -28 18 -56 49 -81 91
-5 8 15 -10 45 -40 36 -36 70 -61 98 -70z m-168 56 c4 -20 4 -34 0 -31 -4 3
-10 15 -13 27 -2 13 -8 32 -12 43 -6 15 -5 17 4 9 7 -6 16 -28 21 -48z m-2555
34 c68 -10 170 -51 210 -84 11 -9 -5 -4 -35 12 -70 38 -113 51 -213 67 -45 7
-71 13 -57 14 14 0 57 -4 95 -9z m2774 -25 c34 -20 61 -38 61 -41 0 -5 -110
54 -124 68 -21 18 6 6 63 -27z m-2736 -81 c58 -14 229 -85 222 -92 -2 -2 -32
8 -67 23 -97 41 -146 55 -227 65 -100 13 -171 0 -273 -49 -46 -22 -103 -43
-128 -46 l-45 -5 53 15 c29 8 87 33 130 55 116 61 193 69 335 34z m981 -10 c3
-8 2 -12 -4 -9 -6 3 -10 10 -10 16 0 14 7 11 14 -7z m-563 -45 c-26 -68 -62
-112 -110 -136 -37 -19 -44 -19 -108 -5 -108 22 -219 11 -310 -32 -40 -19 -73
-33 -73 -31 0 11 87 58 136 75 29 10 86 22 126 25 164 14 245 45 317 119 19
20 36 36 38 36 2 0 -6 -23 -16 -51z m374 16 c85 -23 147 -60 243 -147 51 -46
123 -98 179 -129 52 -28 133 -81 181 -116 108 -81 181 -118 280 -143 42 -10
68 -19 56 -19 -37 -2 -173 38 -237 68 -34 17 -89 53 -122 81 -33 28 -100 75
-150 105 -49 29 -137 94 -194 144 -127 111 -190 144 -283 149 -98 6 -148 -4
-212 -43 -31 -19 -54 -30 -51 -25 11 18 99 64 144 76 62 17 96 17 166 -1z
m1193 -19 c15 -8 36 -24 47 -37 18 -20 16 -20 -15 4 -20 14 -47 30 -60 36 -14
5 -19 10 -12 10 7 1 25 -5 40 -13z m-2636 -51 c62 -25 154 -83 184 -116 14
-16 1 -12 -54 17 -78 41 -145 51 -161 25 -21 -33 217 -180 358 -222 23 -7 39
-14 37 -17 -16 -15 -261 94 -332 149 -27 21 -68 46 -90 55 -21 8 -46 25 -54
35 -23 30 -50 15 -50 -27 0 -30 -4 -35 -30 -40 -16 -4 -35 -13 -41 -20 -15
-19 -35 -18 -43 1 -4 12 -14 14 -39 10 -45 -9 -57 16 -23 50 25 25 24 35 -6
35 -40 0 -7 39 57 66 90 38 190 37 287 -1z m623 15 c-138 -8 -167 -15 -280
-74 -45 -23 -83 -36 -105 -35 l-35 1 36 7 c19 4 65 24 101 43 109 60 139 67
283 66 l130 -1 -130 -7z m915 -50 c25 -16 65 -50 90 -77 l45 -47 -51 46 c-56
50 -113 89 -159 106 l-30 12 30 -6 c17 -3 50 -18 75 -34z m1098 -1 c56 -19
157 -73 167 -89 3 -6 -27 8 -67 30 -40 21 -111 50 -158 65 -57 17 -70 23 -41
19 25 -4 69 -15 99 -25z m1026 -7 c19 -27 19 -27 -12 2 -35 32 -38 38 -19 30
6 -3 21 -17 31 -32z m-2255 13 c7 -7 -23 -10 -82 -10 -74 0 -102 -4 -142 -23
-45 -20 -48 -20 -25 -2 43 34 101 50 172 47 37 -1 72 -7 77 -12z m-489 -91
c121 -36 243 -155 201 -197 -15 -15 -14 -27 3 -21 22 8 83 -52 101 -101 22
-56 11 -76 -19 -33 -15 24 -34 36 -63 43 -24 6 -48 16 -55 23 -18 18 -25 15
-31 -17 -7 -31 -41 -51 -59 -33 -7 7 -3 12 11 17 23 7 27 26 11 56 -11 19 -50
27 -50 10 0 -5 -17 -11 -38 -15 -48 -7 -84 -35 -106 -80 -18 -38 -21 -111 -7
-149 13 -33 70 -97 95 -107 18 -8 16 -9 -10 -9 -39 -1 -116 63 -146 123 -31
61 -35 157 -9 226 13 37 15 48 5 35 -18 -24 -44 -109 -44 -144 0 -90 64 -201
139 -241 20 -11 29 -19 19 -20 -28 0 -61 16 -111 54 l-47 36 -58 -58 c-35 -35
-82 -70 -122 -89 -74 -36 -205 -62 -223 -44 -8 8 -2 11 20 11 42 0 159 37 209
65 47 28 114 98 114 121 0 27 -20 54 -40 54 -11 0 -37 -15 -57 -34 -77 -68
-178 -118 -263 -130 l-45 -6 45 14 c122 36 217 126 180 171 -20 25 -56 17
-102 -22 -59 -50 -137 -82 -229 -96 -78 -11 -119 -8 -305 25 l-71 12 3 45 3
46 -9 -44 c-5 -24 -11 -45 -12 -46 -2 -1 -27 -5 -56 -8 l-52 -6 7 27 c22 76
-8 174 -64 216 -38 28 -103 32 -132 9 -26 -22 -32 -73 -11 -99 10 -11 9 -15
-4 -20 -22 -9 -56 23 -56 53 0 13 -6 23 -14 23 -20 0 -56 -48 -56 -75 0 -12
-9 -30 -20 -40 -18 -16 -26 -17 -78 -6 -31 7 -67 15 -79 17 -15 3 -20 9 -17
19 4 10 1 14 -7 12 -8 -2 -11 -2 -7 0 4 3 10 3 12 1 3 -2 27 29 54 68 28 39
72 90 99 113 50 45 131 91 159 91 9 0 25 11 36 25 65 83 234 37 358 -99 120
-130 180 -185 231 -208 44 -20 47 -24 27 -30 -13 -3 -42 -6 -64 -7 -23 -1 -47
-8 -54 -16 -16 -19 -4 -52 27 -72 52 -34 249 -5 313 47 20 16 13 15 -35 -7
-50 -23 -78 -28 -163 -31 -88 -4 -106 -2 -122 13 -11 10 -20 24 -20 31 0 15 8
17 118 34 41 6 89 17 108 25 79 33 187 117 321 252 137 138 184 172 268 199
54 17 82 17 145 -2z m597 -67 c21 -14 44 -36 52 -48 11 -18 5 -16 -27 9 -59
47 -108 65 -162 59 -32 -4 -39 -3 -25 3 37 18 121 5 162 -23z m1763 -2 c0 -6
-56 -35 -67 -35 -4 1 8 9 27 20 39 22 40 22 40 15z m-3235 -167 c78 -36 168
-51 265 -45 45 3 63 2 45 -3 -52 -13 -179 -11 -240 5 -83 22 -150 61 -201 118
-63 70 -54 78 12 11 35 -34 81 -68 119 -86z m-750 104 c-3 -3 -11 0 -18 7 -9
10 -8 11 6 5 10 -3 15 -9 12 -12z m3250 -11 c-11 -10 -141 -51 -159 -50 -11 1
141 57 159 58 5 1 5 -2 0 -8z m502 -40 c55 -19 116 -51 183 -97 56 -38 138
-91 183 -117 103 -61 113 -70 133 -126 10 -25 23 -53 31 -62 18 -22 16 -37 -6
-48 -14 -8 -25 -6 -42 8 -13 10 -33 21 -44 25 -11 3 -25 16 -30 28 -12 27 -53
37 -60 14 -16 -52 -14 -51 -45 -21 -22 21 -35 26 -57 22 -21 -4 -35 2 -61 24
-42 38 -71 37 -113 -3 l-34 -33 -3 37 c-4 45 -32 66 -66 50 -11 -5 -30 -6 -41
-1 -11 4 -28 8 -39 8 -16 1 -14 -2 8 -20 14 -11 26 -27 26 -35 0 -19 -6 -18
-30 6 -24 24 -67 26 -91 4 -14 -13 -15 -21 -6 -51 10 -31 9 -37 -8 -50 -18
-13 -20 -12 -23 12 -4 28 -52 65 -85 65 -26 0 -74 -27 -81 -45 -3 -9 1 -29 9
-45 8 -16 14 -44 14 -62 -1 -30 -2 -30 -8 9 -9 52 -11 54 -50 55 -35 1 -39 14
-17 56 21 40 47 60 92 71 24 5 30 9 16 10 -39 2 -91 -26 -112 -61 -21 -35 -27
-83 -10 -93 15 -10 12 -51 -6 -66 -12 -10 -20 -10 -35 -1 -28 18 -57 -1 -78
-51 -26 -60 -41 -70 -92 -60 -60 12 -69 41 -26 90 30 35 28 35 -33 -13 -36
-28 -80 -59 -97 -68 -32 -16 -33 -16 -33 4 0 44 -56 17 -102 -50 -17 -24 -17
-24 -3 12 20 49 19 55 -7 61 -33 9 -70 -13 -96 -58 -13 -22 -21 -31 -18 -20 2
11 7 31 11 45 3 16 -2 10 -15 -14 -28 -56 -48 -75 -70 -69 -15 4 -35 -11 -76
-56 -66 -71 -88 -80 -45 -17 17 24 40 68 51 97 34 87 79 147 159 215 80 69
139 94 221 94 122 0 219 65 285 192 51 96 111 159 184 192 118 53 247 55 388
7z m-1221 14 c73 -17 154 -52 210 -91 49 -34 262 -237 222 -211 -16 9 -40 25
-55 34 -16 9 -53 37 -83 62 -56 45 -53 41 25 -49 l30 -34 -35 27 c-58 45 -130
80 -130 63 0 -40 84 -108 174 -143 43 -16 51 -22 26 -17 -53 9 -132 50 -184
96 -38 33 -57 42 -95 46 -39 3 -52 0 -74 -19 -38 -35 -45 -73 -15 -96 39 -31
119 -116 113 -121 -3 -3 -15 4 -28 16 -13 12 -29 22 -35 22 -21 0 -13 -28 14
-49 15 -12 21 -21 15 -21 -6 0 -27 16 -47 35 -41 41 -56 43 -84 13 -20 -21
-22 -22 -31 -5 -15 25 -42 21 -74 -13 -37 -38 -63 -39 -67 -2 -2 22 -8 28 -35
30 -25 3 -38 -3 -59 -27 -15 -17 -36 -31 -46 -31 -10 0 -35 -16 -56 -34 -39
-35 -129 -86 -153 -86 -7 0 8 14 35 30 31 20 52 43 62 66 22 53 5 64 -43 31
-21 -15 -54 -38 -73 -51 -19 -14 -48 -28 -65 -31 -21 -5 -16 0 20 18 60 29 77
47 65 67 -8 13 -13 12 -39 -3 -37 -22 -40 -21 -34 2 8 31 -12 32 -53 4 -37
-25 -46 -27 -159 -27 -132 -1 -100 9 -351 -105 -50 -23 -113 -43 -140 -46 -27
-2 -40 -2 -29 1 11 2 40 10 65 16 25 6 80 29 122 50 43 21 113 52 155 69 43
16 103 45 133 64 30 18 84 41 120 50 35 9 76 23 90 30 40 21 95 85 130 152 18
34 47 79 65 101 39 45 138 101 210 118 69 17 198 17 271 -1z m1803 -1 c-7 -8
-26 -22 -43 -31 -37 -18 -33 -13 14 21 42 29 46 31 29 10z m-3216 -31 c-7 -2
-19 -2 -25 0 -7 3 -2 5 12 5 14 0 19 -2 13 -5z m-1270 -10 c-13 -2 -33 -2 -45
0 -13 2 -3 4 22 4 25 0 35 -2 23 -4z m428 -116 c19 -12 42 -38 51 -57 21 -42
23 -123 3 -165 l-13 -30 -1 39 c-1 59 -42 120 -96 146 -25 12 -52 29 -61 37
-13 14 -13 17 2 34 23 26 73 24 115 -4z m728 -31 c-2 -2 -31 -20 -64 -40 -69
-41 -109 -45 -171 -17 -74 34 -64 41 53 42 59 1 122 5 138 9 37 9 50 11 44 6z
m2144 -13 c-7 -2 -19 -2 -25 0 -7 3 -2 5 12 5 14 0 19 -2 13 -5z m-3358 -83
c4 -6 -7 -10 -25 -10 -18 0 -29 4 -25 10 3 6 15 10 25 10 10 0 22 -4 25 -10z
m295 -89 c0 -5 -7 -12 -16 -15 -14 -5 -15 -4 -4 9 14 17 20 19 20 6z m3770
-19 c0 -5 10 -14 23 -20 12 -6 17 -11 11 -11 -7 -1 -22 8 -35 19 -13 10 -18
19 -11 20 6 0 12 -4 12 -8z m83 -39 c-7 -2 -19 -2 -25 0 -7 3 -2 5 12 5 14 0
19 -2 13 -5z m-183 -23 c0 -20 -63 -90 -81 -90 -5 0 6 14 26 31 19 17 38 42
41 55 7 29 14 31 14 4z m-1270 -35 c17 -9 30 -17 30 -20 0 -7 -60 16 -66 26
-8 13 3 11 36 -6z m1470 -7 c-137 -59 -174 -81 -233 -140 -34 -35 -72 -76 -85
-93 -12 -17 -9 -7 8 21 55 94 159 176 265 210 49 15 80 17 45 2z m-530 -98
l-11 -25 6 25 c2 14 6 41 7 60 l1 35 4 -35 c2 -20 -1 -47 -7 -60z m111 -8 c-6
-22 -18 -45 -26 -52 -11 -9 -10 -1 5 31 11 24 20 55 21 69 1 16 3 19 6 8 2 -9
-1 -34 -6 -56z m-1151 48 c-8 -5 -19 -10 -25 -10 -5 0 -3 5 5 10 8 5 20 10 25
10 6 0 3 -5 -5 -10z m-194 -22 c-35 -49 -151 -106 -194 -95 -11 3 -8 5 8 6 36
2 141 54 169 85 30 32 38 34 17 4z m1160 -33 c-10 -19 -24 -36 -32 -39 -7 -3
-2 11 12 31 13 20 24 40 24 46 0 6 3 7 7 3 4 -4 -1 -22 -11 -41z m-1558 -11
c42 -14 104 -40 137 -59 62 -35 152 -111 143 -121 -3 -3 -48 13 -100 35 -240
103 -403 106 -624 11 -64 -27 -100 -38 -107 -31 -11 11 121 81 223 117 40 15
55 24 40 24 -14 0 -81 -27 -149 -60 -113 -55 -151 -66 -151 -43 0 13 236 125
292 139 92 22 209 17 296 -12z m-1043 -5 c100 -27 350 -174 485 -285 36 -30
97 -90 135 -135 78 -90 165 -168 258 -231 34 -22 92 -65 128 -94 94 -76 151
-99 314 -124 77 -12 158 -26 180 -30 36 -8 34 -9 -12 -4 -56 6 -230 -14 -238
-27 -10 -14 60 -54 123 -70 60 -15 62 -16 37 -27 -31 -15 -130 5 -198 39 -23
12 -105 83 -182 159 -114 112 -154 145 -214 175 -45 22 -83 35 -97 32 -13 -2
-21 0 -18 4 3 5 1 9 -5 9 -5 0 -12 -4 -15 -9 -3 -5 -28 -14 -56 -21 -42 -10
-57 -9 -99 5 -46 15 -53 15 -78 1 -16 -8 -59 -29 -97 -46 -38 -16 -89 -48
-113 -71 -25 -22 -47 -39 -49 -36 -3 2 2 20 10 38 7 19 22 53 32 77 27 65 90
118 159 132 74 15 114 7 204 -41 40 -22 76 -37 79 -34 7 7 10 5 -77 50 -58 30
-89 39 -143 43 -64 4 -70 7 -103 43 -19 22 -35 44 -35 51 0 6 -2 9 -5 6 -3 -3
-1 -17 4 -31 10 -25 9 -26 -18 -21 -28 6 -29 4 -28 -27 2 -28 -2 -35 -21 -37
-28 -4 -47 11 -78 60 -18 28 -31 38 -51 38 -29 0 -63 -25 -63 -47 0 -9 -8 -13
-22 -11 -24 3 -25 7 -12 95 5 38 3 46 -24 73 -17 16 -39 30 -49 30 -14 -1 -11
-4 9 -16 31 -16 48 -43 48 -73 0 -29 -13 -26 -48 9 -48 47 -106 35 -100 -21 5
-39 -29 -36 -53 5 -14 25 -28 36 -44 36 -52 0 -135 -105 -135 -171 0 -52 -32
-60 -71 -18 -40 42 -80 38 -95 -11 -14 -43 -44 -54 -44 -16 0 38 -43 35 -80
-6 l-29 -31 -63 19 c-41 12 -93 19 -149 19 -86 0 -87 0 -60 18 28 19 171 67
199 67 64 0 193 107 272 225 87 130 170 202 286 250 65 27 143 32 209 14z
m2490 -39 c-3 -5 -12 -10 -18 -10 -7 0 -6 4 3 10 19 12 23 12 15 0z m-3478
-30 c14 -11 20 -20 14 -20 -19 0 -51 19 -51 30 0 15 9 12 37 -10z m3369 -10
c44 -22 84 -56 161 -138 56 -61 112 -127 124 -148 12 -22 38 -56 58 -76 52
-55 27 -46 -36 13 -74 70 -101 49 -44 -35 31 -44 80 -84 216 -177 44 -30 112
-78 151 -107 78 -57 153 -88 244 -98 63 -7 83 -24 28 -24 -44 0 -152 26 -191
46 -18 9 -66 42 -107 74 -42 32 -121 86 -175 121 -55 34 -118 76 -139 93 -26
21 -40 27 -43 19 -9 -27 -60 -13 -106 27 -52 46 -80 50 -103 15 -21 -32 -13
-64 28 -110 50 -58 101 -77 270 -105 132 -21 206 -66 317 -195 44 -52 78 -95
74 -95 -5 0 -21 9 -38 20 -35 23 -60 27 -31 5 36 -27 -6 -16 -59 15 -90 54
-99 36 -23 -48 l51 -57 -62 62 c-57 57 -61 64 -47 79 9 8 16 18 16 20 0 10
-127 64 -185 79 -77 20 -226 20 -294 -1 -29 -8 -95 -44 -147 -79 -52 -36 -104
-70 -114 -75 -41 -22 -17 0 60 56 44 31 78 59 76 61 -6 6 -97 -36 -159 -74
-32 -19 -60 -33 -62 -31 -9 8 71 77 130 113 124 74 334 118 460 96 68 -12 159
-49 225 -92 34 -22 34 -22 17 -2 -31 36 -150 92 -253 119 -167 43 -225 76
-294 168 -33 43 -40 61 -40 97 0 69 -17 112 -57 149 l-38 35 32 -35 c38 -41
51 -96 43 -180 -5 -54 -5 -55 -17 -25 -6 17 -14 44 -18 60 -9 45 -41 93 -77
115 -35 21 -112 27 -138 10 -11 -7 -6 -8 16 -4 25 5 35 2 48 -17 17 -24 22
-59 8 -59 -4 0 -15 9 -25 20 -18 21 -52 26 -77 10 -13 -8 -13 -13 3 -41 22
-40 22 -46 -8 -62 l-25 -13 21 -23 c12 -13 42 -36 67 -52 53 -34 49 -38 -8 -9
-22 11 -68 47 -104 80 -55 52 -68 60 -91 54 -15 -4 -29 -13 -32 -21 -10 -24
29 -93 83 -148 69 -69 156 -112 270 -131 116 -20 127 -25 34 -18 -140 10 -282
78 -353 167 -17 23 -57 91 -88 153 l-55 112 25 13 c14 6 51 17 81 23 48 10 59
17 87 56 108 150 155 179 299 180 70 0 89 -4 140 -30z m-711 9 c-77 -11 -149
-34 -202 -65 -52 -30 -57 -24 -7 7 73 45 146 69 209 68 l60 -1 -60 -9z m306
-12 c-10 -9 -11 -8 -5 6 3 10 9 15 12 12 3 -3 0 -11 -7 -18z m-2696 -67 c-55
-56 -139 -109 -195 -124 -14 -4 7 9 45 28 39 19 99 62 135 95 36 33 67 60 70
61 2 0 -22 -27 -55 -60z m1653 43 c-15 -2 -42 -2 -60 0 -18 2 -6 4 27 4 33 0
48 -2 33 -4z m-105 -10 c-7 -2 -21 -2 -30 0 -10 3 -4 5 12 5 17 0 24 -2 18 -5z
m190 0 c-7 -2 -21 -2 -30 0 -10 3 -4 5 12 5 17 0 24 -2 18 -5z m-246 -9 c-3
-3 -12 -4 -19 -1 -8 3 -5 6 6 6 11 1 17 -2 13 -5z m1112 -16 c-16 -31 -99
-117 -124 -130 -11 -5 -4 4 16 21 20 16 54 53 75 81 41 54 52 63 33 28z
m-2483 -29 c-55 -65 -150 -133 -201 -144 l-30 -6 32 15 c50 23 145 90 182 130
43 44 52 47 17 5z m4301 -66 c-2 -16 -4 -3 -4 27 0 30 2 43 4 28 2 -16 2 -40
0 -55z m-2824 60 c-18 -2 -48 -2 -65 0 -18 2 -4 4 32 4 36 0 50 -2 33 -4z
m-196 -29 c-3 -3 -12 -4 -19 -1 -8 3 -5 6 6 6 11 1 17 -2 13 -5z m783 -5 c179
-28 325 -160 345 -310 l6 -44 -20 49 c-31 76 -73 110 -87 71 -9 -22 -23 -18
-36 9 -6 14 -17 27 -24 30 -11 4 -11 2 -2 -14 16 -25 5 -35 -22 -20 -13 7 -37
9 -58 5 l-35 -6 32 -20 c17 -10 39 -35 48 -55 15 -30 22 -35 45 -32 15 3 25 1
22 -4 -12 -19 -50 -6 -80 28 -27 29 -39 35 -65 32 -41 -4 -49 -24 -16 -39 28
-13 39 -41 30 -77 -4 -17 -10 -21 -22 -16 -50 20 -54 19 -46 -17 19 -87 86
-166 180 -210 50 -24 54 -27 25 -22 -49 8 -110 45 -154 93 -40 44 -54 73 -64
134 -6 29 -16 45 -49 68 -50 36 -85 39 -118 8 -20 -19 -27 -21 -39 -11 -10 9
-20 9 -34 2 -10 -5 -28 -7 -40 -4 -18 4 -20 9 -11 25 12 23 5 48 -14 48 -7 0
-24 -11 -37 -25 -32 -34 -121 -65 -199 -70 l-66 -4 55 10 c72 13 135 44 160
79 11 15 26 54 35 85 8 32 22 70 31 84 15 24 15 25 0 11 -9 -9 -31 -45 -49
-80 -38 -74 -107 -130 -160 -130 l-31 0 44 37 c28 24 53 59 71 100 55 119 125
172 266 197 98 18 104 18 183 5z m1970 -73 c-12 -20 -36 -46 -53 -58 -26 -18
-24 -13 16 30 26 28 47 57 47 63 0 7 3 10 6 6 4 -3 -4 -22 -16 -41z m116 -29
c-14 -29 -42 -68 -62 -87 l-38 -35 36 43 c20 24 47 68 60 97 12 29 25 49 26
44 2 -5 -8 -33 -22 -62z m-2748 -51 c26 -14 62 -49 93 -91 7 -11 -7 1 -33 27
-59 57 -119 75 -182 53 -50 -18 -61 -10 -15 9 43 19 102 20 137 2z m2469 -32
c-3 -3 -12 -4 -19 -1 -8 3 -5 6 6 6 11 1 17 -2 13 -5z m-69 -11 c-10 -2 -28
-2 -40 0 -13 2 -5 4 17 4 22 1 32 -1 23 -4z m-2413 -67 c55 -16 43 -19 -29
-10 -25 4 -46 11 -46 15 0 12 17 11 75 -5z m2450 -34 c124 -50 195 -82 195
-88 0 -2 -17 3 -37 11 -21 9 -83 34 -138 56 -55 22 -111 46 -125 55 -31 19
-20 16 105 -34z m-3342 -24 c-36 -61 -63 -73 -176 -73 -56 -1 -124 -5 -152 -9
-73 -13 -48 4 38 24 58 14 86 16 126 8 36 -6 63 -6 86 2 37 12 85 61 86 88 0
11 2 12 6 4 2 -7 -4 -26 -14 -44z m-157 6 c-10 -14 -20 -23 -23 -21 -2 3 3 17
13 31 9 15 19 24 22 22 2 -3 -3 -17 -12 -32z m64 23 c0 -2 -10 -12 -22 -23
l-23 -19 19 23 c18 21 26 27 26 19z m2470 -95 c8 -9 -52 29 -87 55 -18 13 -33
28 -33 34 0 7 100 -67 120 -89z m-1106 -13 c-30 -34 -109 -69 -151 -68 -36 1
-36 2 11 10 30 5 69 22 100 43 59 41 66 44 40 15z m427 -31 c12 -24 38 -58 58
-77 20 -18 27 -29 16 -23 -11 6 -30 21 -41 34 -22 24 -68 108 -59 108 2 0 14
-19 26 -42z m-1547 -3 c-4 -9 -16 -21 -28 -27 -19 -10 -18 -8 4 15 29 31 31
32 24 12z m-328 -14 c52 -24 68 -46 18 -25 -28 12 -60 14 -138 10 l-101 -6 60
19 c77 25 110 25 161 2z m4224 -50 c0 -8 -11 0 -25 19 -14 19 -25 36 -25 39 0
2 11 -6 25 -19 14 -13 25 -30 25 -39z m-3089 7 c39 -22 110 -84 214 -187 85
-85 155 -157 155 -159 0 -2 -11 3 -25 12 -42 27 -83 18 -53 -12 9 -9 9 -12 -3
-12 -8 0 -20 5 -25 10 -13 13 -116 51 -122 45 -10 -10 29 -53 65 -71 29 -15
60 -19 131 -19 82 0 90 -1 65 -12 -38 -16 -92 -16 -193 2 -47 8 -107 15 -135
15 -56 0 -162 -23 -203 -44 -43 -22 -76 -30 -68 -17 12 19 103 61 169 77 87
22 109 38 105 76 -2 20 -13 38 -30 51 -25 19 -32 20 -90 9 -35 -7 -73 -15 -85
-18 -13 -4 -23 -2 -23 4 0 6 14 13 31 17 38 9 47 30 23 56 -76 84 -221 55
-358 -70 -38 -33 -73 -61 -79 -61 -7 0 -7 3 -1 9 107 101 209 191 249 217 27
19 45 34 40 34 -6 0 -50 -30 -100 -65 -49 -36 -96 -65 -102 -65 -19 0 -16 17
8 41 11 11 18 23 15 26 -15 16 -61 -15 -116 -78 -61 -68 -121 -109 -157 -109
-10 1 -1 7 19 14 82 29 121 73 116 128 -4 48 -31 47 -108 -3 -62 -41 -147 -79
-173 -79 -6 0 11 11 38 24 28 12 89 53 137 89 131 100 158 111 258 113 50 0
95 6 110 14 94 51 208 50 301 -2z m116 36 c-3 -3 -12 -4 -19 -1 -8 3 -5 6 6 6
11 1 17 -2 13 -5z m955 -118 c28 -14 45 -26 37 -26 -27 0 -114 58 -159 106
l-45 48 57 -51 c32 -28 81 -63 110 -77z m-659 80 c18 -7 43 -26 57 -42 l25
-29 -25 21 c-35 30 -64 44 -113 54 -40 7 -40 8 -9 9 18 1 47 -5 65 -13z m-51
-68 c46 -26 51 -45 6 -22 -18 10 -55 26 -83 36 l-50 19 44 -6 c25 -3 62 -15
83 -27z m-1052 -1 c0 -2 -12 -14 -27 -28 l-28 -24 24 28 c23 25 31 32 31 24z
m1847 -43 c-3 -3 -12 -4 -19 -1 -8 3 -5 6 6 6 11 1 17 -2 13 -5z m-1912 -14
c-8 -13 -106 -70 -120 -70 -5 0 15 14 45 31 30 16 59 34 64 39 13 13 19 13 11
0z m2335 -34 c-110 -101 -210 -167 -252 -165 -22 1 -22 1 2 8 45 14 83 38 170
105 79 61 114 84 80 52z m-473 -20 c13 -6 75 -59 138 -117 122 -111 130 -137
23 -73 -185 109 -202 117 -249 111 -33 -4 -33 -4 6 -6 22 -1 58 -11 79 -24 41
-22 132 -124 121 -135 -3 -3 -24 12 -48 34 -52 50 -82 69 -135 85 -40 12 -43
11 -63 -14 -21 -27 -53 -35 -64 -17 -3 6 -17 10 -30 10 -17 0 -25 -6 -27 -22
-4 -32 -40 -35 -53 -6 -9 20 -17 23 -53 20 -23 -1 -65 -12 -94 -23 -70 -27
-47 -2 31 36 34 16 59 30 57 32 -12 13 -313 -146 -432 -228 -85 -58 -171 -91
-247 -96 -53 -3 -68 -2 -57 6 8 6 29 11 45 11 53 1 159 45 256 107 52 33 117
73 144 88 28 16 91 57 142 92 108 75 129 84 276 123 117 31 183 33 234 6z
m920 8 c-3 -3 -12 -4 -19 -1 -8 3 -5 6 6 6 11 1 17 -2 13 -5z m-246 -88 c-17
-18 -53 -42 -79 -54 -50 -22 -274 -93 -279 -88 -8 8 133 66 197 80 74 17 144
50 170 80 7 9 15 16 18 16 3 0 -9 -15 -27 -34z m-1941 -20 c0 -2 -8 -10 -17
-17 -16 -13 -17 -12 -4 4 13 16 21 21 21 13z m2231 -67 c31 -44 22 -45 -18 -3
-21 22 -49 48 -63 57 -14 10 -5 8 19 -5 24 -13 52 -35 62 -49z m-2798 44 c-7
-2 -21 -2 -30 0 -10 3 -4 5 12 5 17 0 24 -2 18 -5z m-60 -10 c-7 -2 -19 -2
-25 0 -7 3 -2 5 12 5 14 0 19 -2 13 -5z m-558 -69 c-32 -8 -74 -23 -93 -34
-18 -11 -30 -15 -27 -10 15 25 102 58 150 58 20 0 9 -5 -30 -14z m2154 -19
c67 -7 150 -32 197 -60 16 -9 20 -13 9 -9 -146 53 -161 56 -302 61 -78 3 -141
9 -139 12 5 8 144 5 235 -4z m702 -51 c79 -24 146 -60 219 -119 96 -78 149
-109 261 -151 75 -28 96 -40 82 -45 -37 -15 -112 -8 -189 16 -109 35 -152 33
-190 -6 -28 -30 -102 -74 -110 -66 -2 2 14 12 35 22 22 9 52 30 67 46 l28 29
-61 0 c-34 0 -69 3 -78 6 -11 5 -18 0 -22 -15 -7 -28 -33 -27 -34 2 l0 22 -9
-22 c-14 -36 -41 -30 -34 7 9 40 -13 47 -62 21 -21 -12 -52 -21 -69 -21 l-30
1 28 20 c30 23 35 50 12 69 -26 22 -17 33 23 27 l37 -6 -30 16 c-19 11 -55 17
-100 17 -80 1 -117 -15 -253 -108 -50 -35 -92 -56 -109 -56 l-27 0 36 38 c19
20 54 66 78 100 50 77 108 119 198 149 84 28 223 31 303 7z m-3001 3 c0 -1
-33 -34 -72 -72 l-73 -70 70 73 c64 67 75 77 75 69z m2208 -15 c47 -18 108
-57 162 -103 33 -28 8 -14 -66 37 -151 103 -277 99 -420 -13 -87 -69 -124 -95
-124 -91 0 12 189 148 230 167 58 27 153 28 218 3z m1882 -77 c-24 -36 -64
-84 -89 -106 -43 -39 -110 -80 -128 -79 -4 1 9 10 29 20 55 29 148 120 188
183 19 31 37 54 39 52 2 -3 -16 -34 -39 -70z m-4253 27 c-33 -34 -117 -91
-117 -79 0 2 21 18 48 34 26 17 58 43 71 57 14 14 27 26 30 26 3 0 -12 -17
-32 -38z m4213 35 c0 -2 -10 -12 -22 -23 l-23 -19 19 23 c18 21 26 27 26 19z
m-3815 -27 c14 -6 3 -9 -40 -10 -69 -1 -123 -22 -181 -71 l-39 -33 40 43 c64
69 156 99 220 71z m3760 -20 c-8 -13 -140 -102 -175 -119 -21 -9 -22 -9 -7 1
11 7 56 38 100 69 91 63 91 63 82 49z m298 -2 c-5 -7 -38 -51 -74 -98 -76
-101 -135 -167 -163 -182 -12 -6 2 13 29 43 28 30 73 83 99 119 49 65 106 130
114 130 3 0 0 -6 -5 -12z m-2068 -48 c22 -11 54 -31 70 -45 l30 -26 -40 24
c-68 40 -107 51 -167 50 -66 -2 -117 -22 -224 -89 -73 -45 -203 -95 -247 -93
-12 0 12 10 53 23 104 32 122 40 200 91 128 82 167 97 240 89 24 -2 62 -13 85
-24z m1193 -27 c-16 -2 -40 -2 -55 0 -16 2 -3 4 27 4 30 0 43 -2 28 -4z m1209
-45 c-3 -8 -6 -5 -6 6 -1 11 2 17 5 13 3 -3 4 -12 1 -19z m-2877 7 c0 -6 -56
-35 -67 -35 -4 1 8 9 27 20 39 22 40 22 40 15z m1000 -15 c11 -7 3 -8 -27 -4
-62 9 -103 -2 -174 -46 -55 -35 -59 -36 -29 -10 53 46 109 70 165 70 28 0 57
-5 65 -10z m1010 -20 c-8 -5 -19 -10 -25 -10 -5 0 -3 5 5 10 8 5 20 10 25 10
6 0 3 -5 -5 -10z m850 -27 c-11 -17 -11 -17 -6 0 3 10 6 24 7 30 0 9 2 9 5 0
3 -7 0 -20 -6 -30z m-1963 -43 c-26 -5 -68 -20 -94 -34 -25 -15 -48 -24 -50
-22 -11 10 123 66 156 65 33 -1 33 -2 -12 -9z m638 -25 c-30 -25 -156 -95
-171 -95 -4 0 31 23 77 51 46 27 88 54 94 60 5 5 14 9 20 9 5 -1 -3 -12 -20
-25z m-2451 -38 c55 -72 42 -175 -31 -257 -45 -50 -95 -85 -106 -73 -4 3 10
18 31 33 77 56 122 130 122 197 0 56 -14 89 -53 126 -22 20 -25 26 -10 18 12
-6 33 -26 47 -44z m2979 18 c113 -24 245 -95 282 -151 15 -23 15 -23 -11 -14
-14 6 -53 10 -87 10 -115 -1 -191 -45 -263 -152 -40 -59 -131 -154 -140 -146
-1 2 2 24 8 50 9 39 8 51 -6 72 -20 31 -63 35 -103 9 l-26 -17 24 -7 c22 -6
22 -7 -6 -7 -16 0 -41 3 -55 7 l-25 7 23 8 c14 5 22 14 20 24 -5 21 -33 17
-69 -9 -15 -10 -32 -19 -39 -19 -12 0 22 56 49 79 14 12 11 13 -19 7 -69 -12
-141 -35 -156 -51 -9 -9 -18 -14 -20 -12 -12 12 17 44 97 108 49 39 89 73 89
75 0 2 -46 -26 -102 -64 -143 -95 -223 -142 -242 -142 -10 0 -3 11 21 34 l37
33 -60 23 c-81 31 -164 36 -242 16 -58 -15 -145 -22 -114 -9 10 4 8 9 -7 19
-22 16 -95 133 -87 141 5 5 164 -9 306 -27 258 -33 347 -41 374 -36 17 4 64
26 105 51 150 90 300 121 444 90z m-2341 -12 c23 -27 45 -74 52 -114 4 -21 16
-50 28 -65 l22 -29 -22 19 c-12 10 -27 34 -34 53 -9 25 -17 33 -30 29 -20 -5
-72 33 -89 65 -24 45 39 81 73 42z m359 -23 c-13 -11 -28 -20 -33 -20 -6 0 0
9 13 20 13 10 29 19 34 19 6 0 -1 -9 -14 -19z m-824 -62 c-3 -7 -5 -2 -5 12 0
14 2 19 5 13 2 -7 2 -19 0 -25z m3403 22 c-8 -5 -22 -9 -30 -9 -10 0 -8 3 5 9
27 12 43 12 25 0z m-3232 -89 c-4 -50 -12 -82 -31 -113 -31 -54 -111 -129
-166 -157 -54 -28 -53 -20 2 12 57 34 134 117 159 173 11 25 22 70 25 100 8
78 17 66 11 -15z m660 42 c-21 -2 -55 -2 -75 0 -21 2 -4 4 37 4 41 0 58 -2 38
-4z m-578 -62 c-28 -57 -33 -51 -7 8 12 27 23 45 25 41 2 -5 -6 -27 -18 -49z
m1303 -22 c164 -83 326 -204 386 -288 24 -33 22 -37 -10 -21 -15 9 -19 7 -19
-7 -1 -17 -1 -17 -11 0 -14 23 -56 22 -69 -3 -13 -24 0 -55 34 -82 12 -10 15
-18 8 -18 -7 0 -32 18 -56 40 -51 47 -118 79 -165 80 -25 0 -32 -4 -28 -15 5
-12 0 -12 -29 2 -27 13 -37 14 -47 4 -9 -10 -7 -16 13 -31 30 -24 18 -26 -19
-4 -28 17 -38 15 -170 -22 -20 -6 -23 -4 -18 9 6 15 3 15 -29 0 -25 -13 -40
-14 -51 -7 -29 18 -24 29 25 48 91 36 190 84 197 96 4 6 -11 2 -34 -9 -22 -12
-44 -21 -49 -21 -5 0 -26 16 -47 35 -119 108 -310 120 -487 30 -49 -24 -88
-40 -88 -35 0 5 19 25 42 44 61 53 135 77 253 83 125 7 188 -9 280 -72 36 -25
67 -45 70 -45 15 0 2 81 -16 105 -23 28 -26 28 -102 9 l-29 -7 15 29 c19 36
54 70 87 83 43 17 118 13 163 -10z m-1568 -68 c-9 -27 -30 -64 -48 -83 -18
-19 -24 -25 -15 -14 25 31 68 127 69 156 1 17 3 20 6 7 2 -9 -3 -39 -12 -66z
m616 22 c13 -16 12 -17 -3 -4 -17 13 -22 21 -14 21 2 0 10 -8 17 -17z m1325
-42 c23 -10 45 -24 49 -30 4 -7 -9 -5 -32 5 -23 10 -66 16 -111 17 -68 0 -83
9 -37 20 43 10 92 6 131 -12z m-1183 2 c-7 -2 -21 -2 -30 0 -10 3 -4 5 12 5
17 0 24 -2 18 -5z m1484 -39 c-3 -3 -12 -4 -19 -1 -8 3 -5 6 6 6 11 1 17 -2
13 -5z m-1527 -25 c-14 -12 -68 -43 -122 -70 -53 -26 -135 -73 -182 -104 -111
-72 -167 -97 -214 -93 l-36 3 74 37 c41 20 97 56 125 78 61 52 85 64 160 83
33 8 94 31 135 51 85 41 95 43 60 15z m1207 -15 c-3 -3 -12 -4 -19 -1 -8 3 -5
6 6 6 11 1 17 -2 13 -5z m176 -8 c36 -15 65 -45 130 -131 l46 -60 -25 -9 c-21
-7 -33 -2 -72 31 -78 65 -144 106 -207 129 l-60 22 50 15 c64 20 97 21 138 3z
m1512 4 c23 -9 25 -13 15 -25 -17 -20 -32 -19 -120 9 l-75 24 77 1 c42 1 89
-4 103 -9z m-1237 -26 c-6 -5 -146 -44 -158 -44 -3 1 4 6 15 12 32 19 157 47
143 32z m-1291 -30 c68 -23 111 -55 168 -126 28 -35 73 -79 99 -99 61 -46 205
-119 252 -126 33 -5 34 -6 14 -20 -21 -15 -55 -72 -47 -79 2 -3 14 11 26 31
26 45 73 65 148 65 78 -1 149 -31 251 -110 87 -67 100 -87 32 -48 -39 22 -42
22 -54 6 -19 -25 -32 -22 -56 12 -24 34 -36 37 -61 14 -16 -15 -19 -14 -36 5
-24 29 -42 26 -54 -9 l-11 -30 -25 20 c-33 26 -53 25 -53 0 0 -24 -8 -25 -31
-4 -21 19 -39 11 -39 -17 0 -21 -10 -25 -27 -8 -17 17 -33 1 -33 -31 l0 -29
-35 20 c-19 12 -35 25 -35 31 0 15 22 52 39 66 14 11 13 12 -5 3 -12 -6 -27
-25 -33 -43 -54 -147 -162 -269 -301 -336 -84 -41 -208 -73 -272 -71 -25 1
-15 6 39 19 179 45 279 93 366 178 41 40 87 107 87 127 0 8 -34 -11 -111 -62
-79 -52 -94 -55 -51 -10 l32 33 -26 32 c-34 40 -56 40 -88 0 -14 -18 -28 -29
-32 -25 -4 3 9 24 29 46 56 62 71 98 71 171 0 60 -31 160 -49 160 -3 0 2 -14
11 -32 22 -43 30 -145 14 -194 -22 -70 -113 -144 -177 -144 -27 0 -26 2 29 58
69 71 78 88 78 151 0 42 -5 56 -31 86 -39 44 -64 58 -90 50 -14 -5 -19 -13
-16 -26 6 -24 -24 -34 -55 -18 -46 24 -51 63 -12 108 l26 31 -26 -10 c-14 -5
-39 -7 -55 -4 -50 10 -131 -50 -131 -97 0 -25 0 -25 -58 14 l-49 32 16 43 c8
23 31 63 51 89 76 100 259 150 387 107z m100 10 c-3 -3 -12 -4 -19 -1 -8 3 -5
6 6 6 11 1 17 -2 13 -5z m126 -24 c26 -16 47 -32 47 -35 0 -7 -19 3 -42 22 -9
8 -34 21 -55 29 -24 8 -30 13 -17 14 11 0 41 -13 67 -30z m1741 16 c-44 -19
-74 -62 -74 -105 0 -43 20 -75 64 -103 27 -17 28 -19 6 -13 -37 11 -79 54 -86
90 -3 19 1 47 10 68 15 36 67 77 96 77 8 -1 1 -7 -16 -14z m-552 -11 c-29 -7
-65 -21 -80 -31 -26 -17 -26 -17 -12 1 21 25 69 44 110 44 32 -1 30 -2 -18
-14z m-506 -16 c70 -33 71 -49 2 -22 -35 14 -67 29 -72 34 -18 17 27 9 70 -12z
m-1396 -14 c0 -2 -10 -9 -22 -15 -22 -11 -22 -10 -4 4 21 17 26 19 26 11z
m105 -5 c-3 -5 -16 -15 -28 -21 -19 -9 -19 -8 3 10 28 23 34 26 25 11z m1465
-100 c19 -17 26 -27 15 -21 -11 5 -41 28 -65 51 -50 46 -8 21 50 -30z m194 28
c-15 -7 -28 -7 -40 1 -16 9 -12 10 21 10 35 0 37 -2 19 -11z m1046 -18 c0 -5
-4 -10 -9 -10 -6 0 -13 5 -16 10 -3 6 1 10 9 10 9 0 16 -4 16 -10z m-2776 -50
c-27 -55 -24 -54 -109 -36 l-60 12 44 23 c54 28 110 49 133 50 14 1 13 -6 -8
-49z m1451 -16 c22 -19 31 -31 20 -25 -11 6 -38 26 -60 46 -22 20 -31 31 -20
26 11 -6 38 -27 60 -47z m-375 -20 c0 -29 -6 -46 -22 -60 l-21 -19 18 28 c13
20 16 40 12 74 -3 28 -1 40 4 32 5 -8 9 -32 9 -55z m1253 -23 c-2 -3 -16 8
-31 24 l-27 28 31 -24 c17 -13 30 -26 27 -28z m-2371 -10 c79 -25 125 -66 210
-186 63 -90 130 -158 233 -235 39 -29 72 -55 75 -58 6 -6 -48 4 -72 13 -29 11
-21 -13 10 -29 l27 -14 -27 -7 c-16 -4 -25 -11 -22 -16 9 -14 -20 -10 -42 6
-29 22 -39 18 -19 -7 10 -13 -7 3 -38 34 -58 58 -65 62 -46 27 10 -19 9 -19
-10 -9 -11 6 -24 23 -27 38 -7 30 -32 62 -47 62 -6 0 -18 -6 -26 -14 -9 -7
-26 -17 -38 -20 -20 -6 -23 -4 -23 19 0 36 -26 82 -51 90 -14 5 -28 0 -44 -15
l-24 -22 -22 46 c-28 61 -77 98 -121 94 -23 -2 -36 -10 -43 -25 -13 -29 -22
-29 -51 2 -13 14 -32 25 -44 25 -23 0 -25 12 -9 42 10 18 8 25 -11 40 -33 27
-86 23 -117 -8 -27 -27 -23 -40 17 -47 24 -4 24 -4 -3 -6 -20 -1 -37 8 -57 29
-29 31 -54 38 -65 20 -4 -6 -1 -18 7 -27 12 -15 10 -16 -12 -8 -72 23 -166 -6
-294 -90 -55 -36 -122 -76 -150 -90 -75 -37 -191 -63 -302 -69 l-99 -5 110 14
c196 24 270 51 438 159 46 30 106 65 133 79 82 41 221 129 194 122 -52 -13 5
15 80 39 103 34 110 35 240 31 82 -2 134 -9 182 -24z m-1640 -87 c15 -8 28
-17 28 -20 0 -14 -83 44 -122 84 l-43 46 54 -48 c30 -26 67 -54 83 -62z m3908
73 c0 -5 -4 -5 -10 -2 -5 3 -10 14 -10 23 0 15 2 15 10 2 5 -8 10 -19 10 -23z
m426 4 c-8 -12 -84 -28 -161 -35 -78 -7 -60 0 56 23 117 23 111 23 105 12z
m-279 -49 c86 -33 155 -93 88 -76 -13 3 -26 1 -29 -5 -11 -16 -26 -13 -26 5 0
10 -5 14 -15 10 -9 -3 -24 -1 -34 5 -13 9 -25 8 -49 -5 -38 -20 -43 -20 -36
-1 8 21 -39 20 -57 -1 -10 -13 -10 -17 2 -26 12 -8 12 -10 0 -15 -40 -16 -68
-81 -41 -98 5 -3 8 -34 7 -68 -2 -54 1 -67 26 -99 16 -20 48 -46 71 -58 40
-19 44 -19 90 -4 68 23 193 15 266 -17 30 -13 56 -29 57 -36 2 -7 -9 -21 -24
-32 -24 -20 -39 -21 -229 -21 -112 0 -226 -5 -254 -11 -99 -21 -60 -1 62 31
104 28 146 34 273 39 l150 6 -73 19 c-58 15 -89 17 -155 11 -150 -13 -161 -12
-201 19 -58 44 -77 82 -74 145 2 41 -1 56 -13 64 -26 16 -49 1 -49 -32 0 -31
-15 -50 -23 -29 -2 8 -3 7 -3 -2 1 -8 5 -13 10 -10 5 3 15 -11 22 -30 19 -52
16 -58 -10 -25 l-24 30 -11 -28 c-8 -21 -17 -28 -34 -25 -27 4 -67 77 -67 123
0 37 37 119 74 162 75 89 224 127 333 85z m262 -4 c-31 -60 -73 -99 -142 -132
-40 -19 -85 -37 -102 -40 -29 -5 -29 -5 -5 6 122 53 152 72 202 128 29 32 54
59 56 59 1 1 -3 -9 -9 -21z m-758 -95 c-56 -50 -81 -68 -81 -59 0 7 119 106
128 106 4 0 -18 -21 -47 -47z m828 20 c-63 -70 -148 -124 -194 -122 -13 0 -7
5 16 14 67 24 114 53 154 94 43 46 62 56 24 14z m-3162 -59 c-3 -3 -12 -4 -19
-1 -8 3 -5 6 6 6 11 1 17 -2 13 -5z m2143 -36 c-31 -15 -70 -22 -125 -24 l-80
-3 90 14 c50 8 101 18 115 24 46 18 46 10 0 -11z m221 -15 c-35 -69 -105 -114
-173 -112 -30 1 -30 2 10 10 62 12 102 38 142 92 19 26 36 47 38 47 1 0 -6
-17 -17 -37z m-3566 7 l30 -8 -35 0 c-19 0 -46 4 -60 8 -24 8 -24 8 5 8 17 0
44 -4 60 -8z m468 3 c-7 -2 -19 -2 -25 0 -7 3 -2 5 12 5 14 0 19 -2 13 -5z
m1622 -33 c-32 -35 -84 -62 -108 -56 -12 3 -38 21 -57 41 l-34 35 109 0 c108
0 108 0 90 -20z m-1518 -6 c-3 -3 -12 -4 -19 -1 -8 3 -5 6 6 6 11 1 17 -2 13
-5z m698 -19 c86 -18 238 -65 232 -71 -3 -3 -45 6 -93 20 -209 59 -320 53
-478 -26 -79 -40 -83 -28 -4 15 78 43 165 70 253 75 11 1 52 -5 90 -13z m2736
-89 c19 -15 25 -23 14 -18 -37 19 -85 83 -85 114 0 7 9 -5 19 -28 10 -22 34
-53 52 -68z m-1264 32 c-2 -13 -4 -3 -4 22 0 25 2 35 4 23 2 -13 2 -33 0 -45z
m-1173 -121 c33 -56 80 -100 146 -136 71 -39 56 -40 -25 -1 -103 49 -164 136
-171 244 l-4 61 15 -63 c8 -35 25 -82 39 -105z m-635 149 c-23 -19 -380 -147
-408 -145 -9 0 14 9 51 20 37 11 127 44 200 73 114 46 173 66 157 52z m2379
-58 c29 -11 84 -45 123 -76 l71 -57 -38 -8 c-31 -6 -58 -2 -127 19 -109 33
-221 31 -301 -4 -46 -21 -50 -21 -68 -6 -25 23 -12 35 67 63 89 32 210 27 305
-12 36 -14 56 -19 45 -11 -11 8 -51 24 -88 36 -92 28 -216 22 -303 -14 -44
-17 -68 -22 -84 -16 -22 8 -22 9 -6 27 26 28 127 70 193 80 73 11 143 4 211
-21z m-714 -55 c-37 -64 -109 -134 -164 -160 -72 -34 -101 -36 -33 -3 71 36
159 119 194 184 13 25 26 41 27 36 2 -6 -9 -31 -24 -57z m-1319 43 c92 -24
149 -59 235 -142 l85 -82 -38 -7 c-35 -7 -41 -4 -85 38 -158 147 -353 178
-536 85 -44 -22 -132 -102 -148 -133 -6 -11 15 6 46 37 116 117 274 163 421
123 72 -19 161 -73 213 -127 l33 -35 -30 -13 c-28 -11 -32 -10 -67 24 -21 20
-67 51 -103 69 -61 30 -73 32 -166 32 -97 0 -104 -2 -176 -37 -40 -21 -103
-62 -139 -93 -74 -63 -102 -69 -150 -29 -29 25 -66 82 -58 90 13 12 192 121
242 146 123 62 305 86 421 54z m1452 -8 c-3 -8 -6 -5 -6 6 -1 11 2 17 5 13 3
-3 4 -12 1 -19z m-2514 -5 c-13 -2 -35 -2 -50 0 -16 2 -5 4 22 4 28 0 40 -2
28 -4z m280 -70 c-7 -2 -19 -2 -25 0 -7 3 -2 5 12 5 14 0 19 -2 13 -5z m1212
-43 c21 -22 37 -40 34 -40 -3 0 -23 18 -44 40 -21 22 -37 40 -34 40 3 0 23
-18 44 -40z m-986 10 c-20 -11 -135 -40 -163 -40 -36 0 -9 10 75 29 98 22 110
24 88 11z m2536 -60 c13 -6 2 -7 -30 -3 -27 3 -52 7 -54 9 -9 8 65 2 84 -6z
m-2005 -78 c80 -39 103 -66 27 -31 -62 29 -75 31 -145 27 -85 -5 -158 -32
-206 -76 l-30 -27 15 25 c19 30 99 86 143 100 51 15 146 7 196 -18z m3120 8
c-50 -26 -141 -48 -235 -55 -86 -7 -253 15 -310 41 -16 8 -21 12 -10 9 192
-42 342 -43 480 -1 96 30 123 32 75 6z m210 -10 c-106 -90 -215 -124 -395
-125 -74 0 -155 6 -188 13 -78 18 -66 26 14 11 89 -16 261 -14 343 5 73 17
193 75 222 107 9 10 22 19 28 19 6 0 -5 -14 -24 -30z m-4045 -101 c14 -22 -3
-18 -26 7 -23 25 -23 26 -2 15 12 -6 25 -16 28 -22z m604 16 c-61 -16 -101
-41 -124 -75 -11 -16 -21 -27 -24 -25 -2 3 9 21 24 41 31 41 95 74 140 73 26
-1 23 -3 -16 -14z m-274 -35 c25 -11 -1 -11 -35 0 -20 6 -21 8 -5 8 11 0 29
-3 40 -8z m-455 -20 c-14 -4 -37 -8 -52 -9 -52 -2 -124 -33 -218 -96 -112 -74
-133 -85 -157 -85 -10 0 9 15 42 33 33 18 83 49 111 70 84 61 181 94 274 95
l25 0 -25 -8z m1910 -7 c-19 -8 -68 -17 -110 -19 -73 -3 -74 -3 -20 6 30 5 73
13 95 18 59 15 75 12 35 -5z m2241 3 c-6 -8 -35 -24 -64 -37 -47 -22 -66 -24
-197 -24 -101 0 -151 4 -165 13 -18 12 -18 12 10 8 146 -24 281 -14 367 27 64
31 63 30 49 13z m-4063 -3 c-10 -2 -28 -2 -40 0 -13 2 -5 4 17 4 22 1 32 -1
23 -4z m468 -53 c57 -29 117 -52 146 -56 45 -6 47 -8 29 -20 -23 -16 -96 -4
-166 26 -48 22 -144 100 -122 100 9 0 59 -22 113 -50z m649 -75 c22 -13 58
-43 80 -66 l40 -43 -53 47 c-29 25 -76 58 -105 72 -29 14 -41 23 -27 19 14 -3
43 -16 65 -29z m-914 -29 c90 -29 183 -66 168 -66 -9 0 -55 14 -102 30 -149
52 -253 37 -349 -48 -46 -41 -49 -43 -30 -15 28 40 96 88 143 101 50 15 120
14 170 -2z m761 -40 c49 -17 109 -66 132 -108 18 -31 17 -30 -18 9 -96 109
-248 124 -365 36 -20 -15 -30 -20 -22 -10 7 9 29 27 48 39 78 47 154 59 225
34z m2314 -98 c8 -15 14 -31 14 -35 -1 -4 -8 6 -17 22 -8 17 -25 41 -37 55
l-21 25 24 -20 c12 -11 29 -32 37 -47z m-1605 34 c-14 -27 -43 -50 -84 -67
-63 -26 -63 -16 1 16 34 17 67 39 72 50 6 10 13 19 16 19 2 0 0 -8 -5 -18z
m1497 -23 c-3 -8 -7 -3 -11 10 -4 17 -3 21 5 13 5 -5 8 -16 6 -23z m9 -51 c-3
-7 -5 -2 -5 12 0 14 2 19 5 13 2 -7 2 -19 0 -25z m-4037 -5 c-18 -7 -35 -11
-37 -9 -8 7 51 35 61 29 5 -3 -6 -12 -24 -20z m1816 -4 c42 -25 45 -35 4 -14
-16 8 -55 15 -87 16 -42 0 -52 3 -38 9 35 15 87 11 121 -11z m1531 2 c0 -11
-4 -18 -7 -16 -4 2 -22 -12 -41 -31 -19 -20 -42 -40 -51 -45 -12 -6 85 102 99
110 1 0 1 -8 0 -18z m608 -62 c3 -24 2 -35 -1 -24 -21 79 -23 88 -13 78 6 -6
12 -30 14 -54z m72 19 c-3 -7 -5 -2 -5 12 0 14 2 19 5 13 2 -7 2 -19 0 -25z
m-1507 7 c0 -10 -123 -85 -139 -85 -9 0 13 16 48 35 36 19 69 39 75 45 11 11
16 13 16 5z"/>
<path d="M1418 4721 c-66 -38 -73 -48 -11 -17 28 14 54 30 58 36 8 13 9 13
-47 -19z"/>
<path d="M1320 4659 c-22 -18 -22 -19 -3 -10 12 6 25 16 28 21 9 15 3 12 -25
-11z"/>
<path d="M1894 4008 l-29 -33 35 30 c19 17 37 31 39 33 2 1 0 2 -5 2 -6 0 -23
-15 -40 -32z"/>
<path d="M1604 3978 l-29 -33 33 29 c30 28 37 36 29 36 -2 0 -16 -15 -33 -32z"/>
<path d="M771 3960 c14 -31 19 -36 19 -24 0 6 -7 19 -16 30 -14 18 -14 18 -3
-6z"/>
<path d="M802 3865 c0 -16 2 -22 5 -12 2 9 2 23 0 30 -3 6 -5 -1 -5 -18z"/>
<path d="M1602 3809 c-43 -31 -56 -48 -24 -30 23 13 79 60 71 61 -3 0 -24 -14
-47 -31z"/>
<path d="M3927 3875 c-42 -14 -83 -48 -98 -80 -6 -11 -1 -8 11 7 32 41 82 68
147 77 50 7 52 9 18 9 -22 1 -57 -5 -78 -13z"/>
<path d="M4327 3773 c-14 -14 -6 -20 19 -15 19 3 22 7 12 13 -16 11 -23 11
-31 2z"/>
<path d="M3017 3548 c-31 -31 -31 -32 -2 -8 16 14 34 28 40 32 5 5 6 8 2 8 -4
0 -22 -15 -40 -32z"/>
<path d="M2927 3433 c-4 -3 -7 -11 -7 -17 0 -6 5 -5 12 2 6 6 9 14 7 17 -3 3
-9 2 -12 -2z"/>
<path d="M2843 4023 c9 -2 23 -2 30 0 6 3 -1 5 -18 5 -16 0 -22 -2 -12 -5z"/>
<path d="M2745 4001 c-53 -25 -43 -26 20 -1 28 10 43 19 35 19 -8 0 -33 -8
-55 -18z"/>
<path d="M2625 3942 c-75 -48 -121 -100 -135 -153 -6 -23 -9 -43 -7 -45 2 -3
10 16 16 40 15 59 57 107 140 156 36 22 62 40 56 40 -5 0 -37 -17 -70 -38z"/>
<path d="M2903 3933 c-12 -2 -36 -20 -53 -39 -24 -28 -30 -43 -29 -77 l2 -42
6 48 c8 55 30 80 86 101 39 14 34 18 -12 9z"/>
<path d="M1875 3465 c6 -2 55 -5 110 -8 55 -2 89 0 75 4 -24 7 -205 11 -185 4z"/>
<path d="M2098 3443 c7 -3 16 -2 19 1 4 3 -2 6 -13 5 -11 0 -14 -3 -6 -6z"/>
<path d="M2140 3430 c8 -5 20 -10 25 -10 6 0 3 5 -5 10 -8 5 -19 10 -25 10 -5
0 -3 -5 5 -10z"/>
<path d="M780 3169 c-30 -12 -58 -37 -72 -63 -6 -10 5 -3 24 16 19 19 50 39
69 45 19 6 27 11 19 11 -8 1 -26 -4 -40 -9z"/>
<path d="M1400 2831 c-19 -11 -46 -32 -60 -47 -26 -30 -8 -20 37 19 11 10 38
25 60 32 21 8 29 14 18 14 -11 0 -36 -8 -55 -18z"/>
<path d="M3067 3056 c-10 -25 33 -50 47 -27 10 16 -5 41 -24 41 -10 0 -20 -6
-23 -14z"/>
<path d="M3650 2996 c0 -23 23 -41 41 -31 12 8 -11 55 -28 55 -7 0 -13 -11
-13 -24z"/>
<path d="M2673 3143 c-7 -2 -13 -10 -13 -16 0 -8 4 -7 12 1 15 15 52 15 81 1
21 -10 21 -10 3 5 -19 16 -58 20 -83 9z"/>
<path d="M2530 3131 c-45 -14 -84 -39 -115 -72 -30 -33 -30 -33 14 4 60 50
122 70 174 56 21 -6 41 -8 44 -5 5 5 -65 26 -82 25 -5 0 -21 -4 -35 -8z"/>
<path d="M1728 2742 c-10 -4 20 -7 65 -7 91 0 119 -11 190 -73 l42 -36 -35 38
c-50 54 -103 78 -180 82 -36 2 -73 0 -82 -4z"/>
<path d="M3496 1801 c33 -4 67 -11 75 -16 11 -6 12 -5 2 5 -8 8 -39 15 -75 16
l-63 3 61 -8z"/>
<path d="M3216 1783 c-4 -5 -22 -13 -39 -20 -19 -7 -25 -12 -14 -12 18 -1 77
25 77 34 0 8 -16 6 -24 -2z"/>
<path d="M2908 1473 c7 -3 16 -2 19 1 4 3 -2 6 -13 5 -11 0 -14 -3 -6 -6z"/>
<path d="M2844 1454 c-19 -15 -19 -15 1 -6 11 5 27 12 35 15 13 5 13 6 -1 6
-8 1 -24 -6 -35 -15z"/>
<path d="M2750 1267 c0 -3 12 -12 26 -22 15 -9 23 -12 20 -6 -7 11 -46 35 -46
28z"/>
<path d="M1936 1166 c17 -8 43 -29 58 -47 l27 -34 -15 32 c-16 31 -61 63 -88
63 -7 -1 1 -7 18 -14z"/>
<path d="M1060 5095 c-7 -9 -11 -17 -9 -20 3 -2 10 5 17 15 14 24 10 26 -8 5z"/>
<path d="M236 5001 c18 -11 34 -25 37 -33 3 -8 6 -9 6 -1 1 13 -46 53 -63 53
-6 0 3 -9 20 -19z"/>
<path d="M3228 5003 c7 -3 16 -2 19 1 4 3 -2 6 -13 5 -11 0 -14 -3 -6 -6z"/>
<path d="M2871 4924 c0 -11 3 -14 6 -6 3 7 2 16 -1 19 -3 4 -6 -2 -5 -13z"/>
<path d="M4052 4915 c-90 -39 -152 -120 -152 -197 0 -46 28 -98 53 -98 7 0 -1
11 -16 25 -73 69 12 229 143 270 25 7 36 14 25 14 -11 0 -35 -6 -53 -14z"/>
<path d="M2863 4850 c0 -25 2 -35 4 -22 2 12 2 32 0 45 -2 12 -4 2 -4 -23z"/>
<path d="M2871 4784 c0 -11 3 -14 6 -6 3 7 2 16 -1 19 -3 4 -6 -2 -5 -13z"/>
<path d="M2473 4714 c-32 -16 -64 -67 -62 -101 0 -10 7 0 15 21 16 45 41 76
60 76 7 0 16 5 19 10 8 13 6 13 -32 -6z"/>
<path d="M3714 4674 c-19 -15 -19 -15 1 -6 11 5 27 12 35 15 13 5 13 6 -1 6
-8 1 -24 -6 -35 -15z"/>
<path d="M2272 4593 c-29 -42 -54 -94 -48 -101 3 -3 6 -1 6 4 0 6 15 36 34 67
36 60 41 76 8 30z"/>
<path d="M3773 4544 c-7 -18 6 -45 24 -51 6 -2 18 3 27 12 12 12 13 21 6 36
-13 23 -48 25 -57 3z"/>
<path d="M2791 4466 c-14 -16 -5 -42 16 -50 18 -7 43 10 43 30 0 7 -9 18 -19
24 -25 13 -26 13 -40 -4z"/>
<path d="M33 4323 c9 -2 23 -2 30 0 6 3 -1 5 -18 5 -17 0 -22 -2 -12 -5z"/>
<path d="M5098 4323 c7 -3 16 -2 19 1 4 3 -2 6 -13 5 -11 0 -14 -3 -6 -6z"/>
<path d="M114 4305 c21 -7 51 -26 67 -41 16 -15 29 -23 29 -17 0 22 -82 73
-117 73 -10 -1 -1 -7 21 -15z"/>
<path d="M4997 4305 c-21 -7 -42 -17 -45 -21 -4 -4 2 -4 13 1 11 4 43 13 70
20 29 8 40 13 25 14 -14 0 -42 -6 -63 -14z"/>
<path d="M4144 4208 l-19 -23 23 19 c21 18 27 26 19 26 -2 0 -12 -10 -23 -22z"/>
<path d="M4675 4170 c-3 -5 -2 -10 4 -10 5 0 13 5 16 10 3 6 2 10 -4 10 -5 0
-13 -4 -16 -10z"/>
<path d="M4635 4150 c-3 -6 1 -7 9 -4 18 7 21 14 7 14 -6 0 -13 -4 -16 -10z"/>
<path d="M5011 3496 c-17 -20 -2 -45 46 -83 65 -51 63 -51 63 28 0 62 -2 70
-15 59 -8 -7 -15 -24 -15 -39 -1 -26 -1 -26 -34 12 -28 33 -34 36 -45 23z"/>
<path d="M4384 3434 c-19 -15 -19 -15 1 -6 11 5 27 12 35 15 13 5 13 6 -1 6
-8 1 -24 -6 -35 -15z"/>
<path d="M4475 3390 c-3 -6 1 -7 9 -4 18 7 21 14 7 14 -6 0 -13 -4 -16 -10z"/>
<path d="M3891 3187 c2 -2 22 -15 44 -31 l40 -27 -35 30 c-19 17 -39 31 -44
31 -5 0 -7 -1 -5 -3z"/>
<path d="M5056 2957 c-16 -12 -13 -13 19 -9 26 3 33 7 24 13 -19 12 -22 11
-43 -4z"/>
<path d="M150 2778 c-11 -12 -20 -27 -20 -34 0 -19 29 -44 51 -44 11 0 17 -4
14 -10 -12 -20 -57 -10 -84 19 -22 23 -34 28 -66 26 l-40 -3 -3 -174 -2 -175
78 17 c43 10 101 21 127 25 46 6 48 6 36 -12 -8 -10 16 12 52 49 75 77 96 126
77 183 -11 32 -70 95 -90 95 -5 0 -20 4 -35 10 -22 8 -24 13 -15 30 10 18 8
20 -24 20 -23 0 -42 -7 -56 -22z m-90 -201 c0 -18 -4 -37 -8 -44 -4 -6 -7 10
-7 37 0 26 3 46 8 43 4 -2 7 -19 7 -36z"/>
<path d="M40 2775 c-9 -11 -10 -19 -3 -26 7 -7 12 -2 15 15 6 30 5 31 -12 11z"/>
<path d="M4603 2593 c9 -2 23 -2 30 0 6 3 -1 5 -18 5 -16 0 -22 -2 -12 -5z"/>
<path d="M4658 2583 c7 -3 16 -2 19 1 4 3 -2 6 -13 5 -11 0 -14 -3 -6 -6z"/>
<path d="M4691 2576 c2 -2 15 -9 29 -15 24 -11 24 -11 6 3 -16 13 -49 24 -35
12z"/>
<path d="M665 2525 l-30 -14 30 6 c17 3 34 10 40 14 14 13 -5 10 -40 -6z"/>
<path d="M821 2514 c13 -17 26 -30 28 -27 3 2 -8 16 -24 31 l-28 27 24 -31z"/>
<path d="M4920 2513 c8 -3 24 -10 35 -15 20 -9 20 -9 1 6 -11 9 -27 16 -35 15
-14 0 -14 -1 -1 -6z"/>
<path d="M163 2364 c-24 -14 -43 -27 -43 -30 0 -6 67 33 85 48 17 15 1 8 -42
-18z"/>
<path d="M1195 2146 c-17 -7 -37 -21 -45 -32 -14 -19 -14 -19 8 0 12 11 43 25
69 32 30 8 39 13 23 13 -14 0 -39 -6 -55 -13z"/>
<path d="M598 2033 c6 -2 18 -2 25 0 6 3 1 5 -13 5 -14 0 -19 -2 -12 -5z"/>
<path d="M558 2023 c7 -3 16 -2 19 1 4 3 -2 6 -13 5 -11 0 -14 -3 -6 -6z"/>
<path d="M2358 1784 c-39 -21 -35 -28 5 -8 37 19 44 24 31 24 -5 -1 -21 -8
-36 -16z"/>
<path d="M4461 1691 c91 -13 131 -52 126 -121 -1 -16 3 -25 13 -25 21 0 16 52
-8 84 -35 47 -68 64 -129 67 l-58 3 56 -8z"/>
<path d="M181 1674 c0 -11 3 -14 6 -6 3 7 2 16 -1 19 -3 4 -6 -2 -5 -13z"/>
<path d="M171 1634 c0 -11 3 -14 6 -6 3 7 2 16 -1 19 -3 4 -6 -2 -5 -13z"/>
<path d="M4825 1540 c32 -34 40 -32 31 5 -5 19 -13 25 -33 25 l-27 0 29 -30z"/>
<path d="M264 1475 c4 -11 21 -44 39 -74 51 -85 138 -132 242 -130 48 2 48 2
-15 9 -71 7 -144 37 -178 73 -11 12 -37 49 -58 82 -20 33 -33 51 -30 40z"/>
<path d="M615 1285 c25 -9 107 -12 94 -4 -8 5 -34 8 -59 8 -25 0 -40 -2 -35
-4z"/>
<path d="M761 1257 c-8 -10 -4 -20 17 -40 56 -54 196 -98 307 -96 l40 0 -38
14 c-21 8 -50 23 -65 33 -117 82 -233 122 -261 89z"/>
<path d="M132 951 c71 -60 102 -177 58 -221 -35 -35 -48 -26 -42 28 4 44 1 52
-28 86 -28 31 -95 76 -114 76 -3 0 -5 -77 -5 -170 0 -157 2 -169 17 -161 23
12 67 61 82 90 8 16 15 20 22 13 16 -16 -14 -56 -72 -98 -46 -33 -50 -39 -50
-76 0 -36 2 -39 23 -32 33 10 75 32 82 44 3 5 11 10 17 10 21 0 -15 -30 -68
-56 -75 -37 -71 -54 11 -54 36 0 81 7 100 14 19 8 35 13 35 10 0 -12 -70 -32
-133 -39 -84 -8 -86 -29 -4 -33 112 -6 170 25 217 117 41 83 46 121 20 151
-19 23 -20 23 -19 5 2 -36 -1 -40 -17 -17 -20 29 -35 28 -62 -3 -13 -14 -28
-23 -34 -19 -7 4 -5 10 6 16 22 12 20 34 -4 51 -21 14 -21 15 4 21 26 7 56 51
56 84 0 61 -59 156 -114 184 -12 5 -5 -4 16 -21z"/>
<path d="M3029 595 c-11 -25 -19 -50 -17 -55 2 -4 13 16 24 46 26 66 21 72 -7
9z"/>
<path d="M2996 505 c-9 -26 -7 -32 5 -12 6 10 9 21 6 23 -2 3 -7 -2 -11 -11z"/>
<path d="M3817 486 c-43 -42 -61 -106 -46 -160 6 -21 12 -36 15 -34 2 2 0 18
-5 35 -16 55 12 132 63 175 12 10 18 17 14 18 -4 0 -23 -15 -41 -34z"/>
<path d="M2455 385 c28 -7 59 -13 70 -13 11 0 -2 6 -30 13 -27 7 -59 13 -70
13 -11 0 3 -6 30 -13z"/>
<path d="M4265 330 c-13 -41 23 -55 49 -18 18 26 13 38 -19 38 -15 0 -26 -7
-30 -20z"/>
<path d="M2536 325 c-11 -8 -15 -15 -9 -15 6 0 16 7 23 15 16 19 11 19 -14 0z"/>
<path d="M4680 20 c30 -11 66 -20 80 -19 15 0 -1 8 -40 20 -84 25 -111 24 -40
-1z"/>
<path d="M535 15 c79 -18 112 -17 55 1 -25 7 -61 13 -80 13 -29 -1 -25 -3 25
-14z"/>
<path d="M660 10 c25 -8 87 -13 79 -6 -2 2 -26 6 -54 9 -34 4 -42 3 -25 -3z"/>
<path d="M1235 10 c-3 -5 1 -10 9 -10 9 0 16 5 16 10 0 6 -4 10 -9 10 -6 0
-13 -4 -16 -10z"/>
<path d="M4575 9 c22 -4 56 -8 75 -7 32 0 33 1 10 8 -14 4 -47 8 -75 8 l-50 0
40 -9z"/>
</g>
</svg>