<?xml version="1.0" encoding="UTF-8"?>
<svg xmlns="http://www.w3.org/2000/svg"
     viewBox="-1619.9844718999243 -1619.9844718999243 3239.9689437998486 3239.9689437998486"
     width="3239.9689437998486" height="3239.9689437998486">
  <path d="M5.00,0.00 L4.99,-0.05 L4.97,-0.09 L4.95,-0.14 L4.94,-0.19 L4.92,-0.23 L4.91,-0.28 L4.89,-0.32 L4.87,-0.37 L4.85,-0.41 L4.84,-0.46 L4.82,-0.50 L4.80,-0.55 L4.78,-0.59 L4.76,-0.63 L4.74,-0.67 L4.72,-0.72 L4.70,-0.76 L4.68,-0.80 L4.66,-0.84 L4.64,-0.88 L4.61,-0.93 L4.59,-0.97 L4.57,-1.01 L4.55,-1.05 L4.52,-1.09 L4.50,-1.13 L4.48,-1.16 L4.45,-1.20 L4.43,-1.24 L4.40,-1.28 L4.38,-1.32 L4.35,-1.35 L4.33,-1.39 L4.30,-1.43 L4.28,-1.46 L4.25,-1.50 L4.22,-1.54 L4.20,-1.57 L4.17,-1.61 L4.14,-1.64 L4.11,-1.67 L4.09,-1.71 L4.06,-1.74 L4.03,-1.77 L4.00,-1.81 L3.97,-1.84 L3.94,-1.87 L3.92,-1.90 L3.89,-1.93 L3.86,-1.96 L3.83,-2.00 L3.80,-2.03 L3.77,-2.06 L3.74,-2.08 L3.71,-2.11 L3.67,-2.14 L3.64,-2.17 L3.61,-2.20 L3.58,-2.23 L3.55,-2.25 L3.52,-2.28 L3.49,-2.31 L3.45,-2.33 L3.42,-2.36 L3.39,-2.38 L3.36,-2.41 L3.33,-2.43 L3.29,-2.46 L3.26,-2.48 L3.23,-2.50 L3.19,-2.53 L3.16,-2.55 L3.13,-2.57 L3.10,-2.59 L3.06,-2.61 L3.03,-2.64 L2.99,-2.66 L2.96,-2.68 L2.93,-2.70 L2.89,-2.72 L2.86,-2.74 L2.83,-2.75 L2.79,-2.77 L2.76,-2.79 L2.72,-2.81 L2.69,-2.83 L2.65,-2.84 L2.62,-2.86 L2.58,-2.88 L2.55,-2.89 L2.52,-2.91 L2.48,-2.92 L2.45,-2.94 L2.41,-2.95 L2.38,-2.97 L2.34,-2.98 L2.31,-2.99 L2.27,-3.01 L2.24,-3.02 L2.20,-3.03 L2.17,-3.04 L2.13,-3.05 L2.10,-3.07 L2.06,-3.08 L2.03,-3.09 L1.99,-3.10 L1.96,-3.11 L1.92,-3.12 L1.89,-3.12 L1.85,-3.13 L1.82,-3.14 L1.78,-3.15 L1.75,-3.16 L1.71,-3.16 L1.68,-3.17 L1.64,-3.18 L1.61,-3.18 L1.57,-3.19 L1.54,-3.19 L1.51,-3.20 L1.47,-3.20 L1.44,-3.21 L1.40,-3.21 L1.37,-3.22 L1.33,-3.22 L1.30,-3.22 L1.27,-3.23 L1.23,-3.23 L1.20,-3.23 L1.16,-3.23 L1.13,-3.23 L1.10,-3.23 L1.06,-3.24 L1.03,-3.24 L1.00,-3.24 L0.96,-3.24 L0.93,-3.24 L0.90,-3.24 L0.86,-3.23 L0.83,-3.23 L0.80,-3.23 L0.76,-3.23 L0.73,-3.23 L0.70,-3.22 L0.67,-3.22 L0.63,-3.22 L0.60,-3.21 L0.57,-3.21 L0.54,-3.21 L0.51,-3.20 L0.48,-3.20 L0.44,-3.19 L0.41,-3.19 L0.38,-3.18 L0.35,-3.18 L0.32,-3.17 L0.29,-3.16 L0.26,-3.16 L0.23,-3.15 L0.20,-3.14 L0.17,-3.14 L0.14,-3.13 L0.11,-3.12 L0.08,-3.11 L0.05,-3.10 L0.02,-3.10 L-0.01,-3.09 L-0.04,-3.08 L-0.07,-3.07 L-0.10,-3.06 L-0.12,-3.05 L-0.15,-3.04 L-0.18,-3.03 L-0.21,-3.02 L-0.24,-3.01 L-0.26,-3.00 L-0.29,-2.99 L-0.32,-2.97 L-0.35,-2.96 L-0.37,-2.95 L-0.40,-2.94 L-0.43,-2.93 L-0.45,-2.91 L-0.48,-2.90 L-0.50,-2.89 L-0.53,-2.87 L-0.56,-2.86 L-0.58,-2.85 L-0.61,-2.83 L-0.63,-2.82 L-0.65,-2.81 L-0.68,-2.79 L-0.70,-2.78 L-0.73,-2.76 L-0.75,-2.75 L-0.77,-2.73 L-0.80,-2.72 L-0.82,-2.70 L-0.84,-2.69 L-0.87,-2.67 L-0.89,-2.65 L-0.91,-2.64 L-0.93,-2.62 L-0.96,-2.60 L-0.98,-2.59 L-1.00,-2.57 L-1.02,-2.55 L-1.04,-2.54 L-1.06,-2.52 L-1.08,-2.50 L-1.10,-2.48 L-1.12,-2.47 L-1.14,-2.45 L-1.16,-2.43 L-1.18,-2.41 L-1.20,-2.40 L-1.22,-2.38 L-1.24,-2.36 L-1.26,-2.34 L-1.28,-2.32 L-1.29,-2.30 L-1.31,-2.28 L-1.33,-2.26 L-1.35,-2.25 L-1.36,-2.23 L-1.38,-2.21 L-1.40,-2.19 L-1.41,-2.17 L-1.43,-2.15 L-1.45,-2.13 L-1.46,-2.11 L-1.48,-2.09 L-1.49,-2.07 L-1.51,-2.05 L-1.52,-2.03 L-1.54,-2.01 L-1.55,-1.99 L-1.57,-1.97 L-1.58,-1.95 L-1.59,-1.93 L-1.61,-1.91 L-1.62,-1.89 L-1.63,-1.86 L-1.65,-1.84 L-1.66,-1.82 L-1.67,-1.80 L-1.68,-1.78 L-1.69,-1.76 L-1.71,-1.74 L-1.72,-1.72 L-1.73,-1.70 L-1.74,-1.68 L-1.75,-1.65 L-1.76,-1.63 L-1.77,-1.61 L-1.78,-1.59 L-1.79,-1.57 L-1.80,-1.55 L-1.81,-1.53 L-1.82,-1.50 L-1.83,-1.48 L-1.84,-1.46 L-1.84,-1.44 L-1.85,-1.42 L-1.86,-1.40 L-1.87,-1.38 L-1.88,-1.35 L-1.88,-1.33 L-1.89,-1.31 L-1.90,-1.29 L-1.90,-1.27 L-1.91,-1.25 L-1.92,-1.22 L-1.92,-1.20 L-1.93,-1.18 L-1.93,-1.16 L-1.94,-1.14 L-1.94,-1.12 L-1.95,-1.09 L-1.95,-1.07 L-1.96,-1.05 L-1.96,-1.03 L-1.96,-1.01 L-1.97,-0.99 L-1.97,-0.97 L-1.98,-0.94 L-1.98,-0.92 L-1.98,-0.90 L-1.98,-0.88 L-1.99,-0.86 L-1.99,-0.84 L-1.99,-0.82 L-1.99,-0.80 L-1.99,-0.78 L-2.00,-0.75 L-2.00,-0.73 L-2.00,-0.71 L-2.00,-0.69 L-2.00,-0.67 L-2.00,-0.65 L-2.00,-0.63 L-2.00,-0.61 L-2.00,-0.59 L-2.00,-0.57 L-2.00,-0.55 L-2.00,-0.53 L-2.00,-0.51 L-2.00,-0.49 L-2.00,-0.47 L-1.99,-0.45 L-1.99,-0.43 L-1.99,-0.41 L-1.99,-0.39 L-1.99,-0.37 L-1.98,-0.35 L-1.98,-0.33 L-1.98,-0.31 L-1.98,-0.29 L-1.97,-0.27 L-1.97,-0.25 L-1.97,-0.23 L-1.96,-0.21 L-1.96,-0.19 L-1.95,-0.17 L-1.95,-0.15 L-1.95,-0.13 L-1.94,-0.12 L-1.94,-0.10 L-1.93,-0.08 L-1.93,-0.06 L-1.92,-0.04 L-1.92,-0.02 L-1.91,-0.01 L-1.91,0.01 L-1.90,0.03 L-1.89,0.05 L-1.89,0.07 L-1.88,0.08 L-1.88,0.10 L-1.87,0.12 L-1.86,0.13 L-1.86,0.15 L-1.85,0.17 L-1.84,0.19 L-1.84,0.20 L-1.83,0.22 L-1.82,0.24 L-1.81,0.25 L-1.81,0.27 L-1.80,0.28 L-1.79,0.30 L-1.78,0.32 L-1.77,0.33 L-1.77,0.35 L-1.76,0.36 L-1.75,0.38 L-1.74,0.39 L-1.73,0.41 L-1.72,0.42 L-1.71,0.44 L-1.70,0.45 L-1.69,0.47 L-1.68,0.48 L-1.68,0.50 L-1.67,0.51 L-1.66,0.53 L-1.65,0.54 L-1.64,0.55 L-1.63,0.57 L-1.62,0.58 L-1.61,0.60 L-1.60,0.61 L-1.59,0.62 L-1.58,0.64 L-1.56,0.65 L-1.55,0.66 L-1.54,0.67 L-1.53,0.69 L-1.52,0.70 L-1.51,0.71 L-1.50,0.72 L-1.49,0.73 L-1.48,0.75 L-1.47,0.76 L-1.45,0.77 L-1.44,0.78 L-1.43,0.79 L-1.42,0.80 L-1.41,0.81 L-1.40,0.83 L-1.38,0.84 L-1.37,0.85 L-1.36,0.86 L-1.35,0.87 L-1.34,0.88 L-1.32,0.89 L-1.31,0.90 L-1.30,0.91 L-1.29,0.92 L-1.27,0.93 L-1.26,0.94 L-1.25,0.94 L-1.24,0.95 L-1.22,0.96 L-1.21,0.97 L-1.20,0.98 L-1.19,0.99 L-1.17,1.00 L-1.16,1.00 L-1.15,1.01 L-1.14,1.02 L-1.12,1.03 L-1.11,1.04 L-1.10,1.04 L-1.08,1.05 L-1.07,1.06 L-1.06,1.06 L-1.04,1.07 L-1.03,1.08 L-1.02,1.08 L-1.00,1.09 L-0.99,1.10 L-0.98,1.10 L-0.97,1.11 L-0.95,1.11 L-0.94,1.12 L-0.93,1.13 L-0.91,1.13 L-0.90,1.14 L-0.89,1.14 L-0.87,1.15 L-0.86,1.15 L-0.85,1.16 L-0.83,1.16 L-0.82,1.17 L-0.81,1.17 L-0.79,1.17 L-0.78,1.18 L-0.77,1.18 L-0.75,1.19 L-0.74,1.19 L-0.73,1.19 L-0.71,1.20 L-0.70,1.20 L-0.69,1.20 L-0.67,1.20 L-0.66,1.21 L-0.65,1.21 L-0.63,1.21 L-0.62,1.22 L-0.61,1.22 L-0.59,1.22 L-0.58,1.22 L-0.57,1.22 L-0.55,1.23 L-0.54,1.23 L-0.53,1.23 L-0.51,1.23 L-0.50,1.23 L-0.49,1.23 L-0.47,1.23 L-0.46,1.23 L-0.45,1.23 L-0.44,1.23 L-0.42,1.24 L-0.41,1.24 L-0.40,1.24 L-0.38,1.24 L-0.37,1.24 L-0.36,1.24 L-0.35,1.24 L-0.33,1.24 L-0.32,1.23 L-0.31,1.23 L-0.30,1.23 L-0.28,1.23 L-0.27,1.23 L-0.26,1.23 L-0.25,1.23 L-0.23,1.23 L-0.22,1.23 L-0.21,1.23 L-0.20,1.22 L-0.19,1.22 L-0.17,1.22 L-0.16,1.22 L-0.15,1.22 L-0.14,1.21 L-0.13,1.21 L-0.11,1.21 L-0.10,1.21 L-0.09,1.20 L-0.08,1.20 L-0.07,1.20 L-0.06,1.20 L-0.05,1.19 L-0.03,1.19 L-0.02,1.19 L-0.01,1.18 L-0.00,1.18 L0.01,1.18 L0.02,1.17 L0.03,1.17 L0.04,1.17 L0.05,1.16 L0.07,1.16 L0.08,1.15 L0.09,1.15 L0.10,1.15 L0.11,1.14 L0.12,1.14 L0.13,1.13 L0.14,1.13 L0.15,1.12 L0.16,1.12 L0.17,1.11 L0.18,1.11 L0.19,1.10 L0.20,1.10 L0.21,1.09 L0.22,1.09 L0.23,1.08 L0.24,1.08 L0.25,1.07 L0.26,1.07 L0.27,1.06 L0.27,1.06 L0.28,1.05 L0.29,1.05 L0.30,1.04 L0.31,1.03 L0.32,1.03 L0.33,1.02 L0.34,1.02 L0.35,1.01 L0.35,1.00 L0.36,1.00 L0.37,0.99 L0.38,0.98 L0.39,0.98 L0.40,0.97 L0.40,0.96 L0.41,0.96 L0.42,0.95 L0.43,0.94 L0.43,0.94 L0.44,0.93 L0.45,0.92 L0.46,0.92 L0.46,0.91 L0.47,0.90 L0.48,0.90 L0.49,0.89 L0.49,0.88 L0.50,0.87 L0.51,0.87 L0.51,0.86 L0.52,0.85 L0.53,0.85 L0.53,0.84 L0.54,0.83 L0.54,0.82 L0.55,0.82 L0.56,0.81 L0.56,0.80 L0.57,0.79 L0.57,0.79 L0.58,0.78 L0.59,0.77 L0.59,0.76 L0.60,0.75 L0.60,0.75 L0.61,0.74 L0.61,0.73 L0.62,0.72 L0.62,0.71 L0.63,0.71 L0.63,0.70 L0.64,0.69 L0.64,0.68 L0.65,0.67 L0.65,0.67 L0.65,0.66 L0.66,0.65 L0.66,0.64 L0.67,0.63 L0.67,0.63 L0.68,0.62 L0.68,0.61 L0.68,0.60 L0.69,0.59 L0.69,0.59 L0.69,0.58 L0.70,0.57 L0.70,0.56 L0.70,0.55 L0.71,0.54 L0.71,0.54 L0.71,0.53 L0.72,0.52 L0.72,0.51 L0.72,0.50 L0.72,0.50 L0.73,0.49 L0.73,0.48 L0.73,0.47 L0.73,0.46 L0.74,0.45 L0.74,0.45 L0.74,0.44 L0.74,0.43 L0.74,0.42 L0.75,0.41 L0.75,0.40 L0.75,0.40 L0.75,0.39 L0.75,0.38 L0.75,0.37 L0.75,0.36 L0.76,0.36 L0.76,0.35 L0.76,0.34 L0.76,0.33 L0.76,0.32 L0.76,0.31 L0.76,0.31 L0.76,0.30 L0.76,0.29 L0.76,0.28 L0.76,0.27 L0.76,0.27 L0.76,0.26 L0.76,0.25 L0.76,0.24 L0.76,0.24 L0.76,0.23 L0.76,0.22 L0.76,0.21 L0.76,0.20 L0.76,0.20 L0.76,0.19 L0.76,0.18 L0.76,0.17 L0.76,0.17 L0.76,0.16 L0.76,0.15 L0.76,0.14 L0.76,0.13 L0.76,0.13 L0.76,0.12 L0.75,0.11 L0.75,0.10 L0.75,0.10 L0.75,0.09 L0.75,0.08 L0.75,0.08 L0.75,0.07 L0.75,0.06 L0.74,0.05 L0.74,0.05 L0.74,0.04 L0.74,0.03 L0.74,0.03 L0.73,0.02 L0.73,0.01 L0.73,0.00 L0.73,-0.00 L0.73,-0.01 L0.72,-0.02 L0.72,-0.02 L0.72,-0.03 L0.72,-0.04 L0.71,-0.04 L0.71,-0.05 L0.71,-0.06 L0.71,-0.06 L0.70,-0.07 L0.70,-0.08 L0.70,-0.08 L0.70,-0.09 L0.69,-0.09 L0.69,-0.10 L0.69,-0.11 L0.68,-0.11 L0.68,-0.12 L0.68,-0.13 L0.68,-0.13 L0.67,-0.14 L0.67,-0.14 L0.67,-0.15 L0.66,-0.15 L0.66,-0.16 L0.66,-0.17 L0.65,-0.17 L0.65,-0.18 L0.64,-0.18 L0.64,-0.19 L0.64,-0.19 L0.63,-0.20 L0.63,-0.20 L0.63,-0.21 L0.62,-0.22 L0.62,-0.22 L0.61,-0.23 L0.61,-0.23 L0.61,-0.24 L0.60,-0.24 L0.60,-0.25 L0.59,-0.25 L0.59,-0.26 L0.59,-0.26 L0.58,-0.27 L0.58,-0.27 L0.57,-0.27 L0.57,-0.28 L0.57,-0.28 L0.56,-0.29 L0.56,-0.29 L0.55,-0.30 L0.55,-0.30 L0.54,-0.31 L0.54,-0.31 L0.53,-0.31 L0.53,-0.32 L0.53,-0.32 L0.52,-0.33 L0.52,-0.33 L0.51,-0.33 L0.51,-0.34 L0.50,-0.34 L0.50,-0.35 L0.49,-0.35 L0.49,-0.35 L0.48,-0.36 L0.48,-0.36 L0.47,-0.36 L0.47,-0.37 L0.46,-0.37 L0.46,-0.37 L0.45,-0.38 L0.45,-0.38 L0.45,-0.38 L0.44,-0.39 L0.44,-0.39 L0.43,-0.39 L0.43,-0.39 L0.42,-0.40 L0.42,-0.40 L0.41,-0.40 L0.41,-0.41 L0.40,-0.41 L0.40,-0.41 L0.39,-0.41 L0.39,-0.42 L0.38,-0.42 L0.38,-0.42 L0.37,-0.42 L0.37,-0.42 L0.36,-0.43 L0.36,-0.43 L0.35,-0.43 L0.34,-0.43 L0.34,-0.44 L0.33,-0.44 L0.33,-0.44 L0.32,-0.44 L0.32,-0.44 L0.31,-0.44 L0.31,-0.45 L0.30,-0.45 L0.30,-0.45 L0.29,-0.45 L0.29,-0.45 L0.28,-0.45 L0.28,-0.45 L0.27,-0.46 L0.27,-0.46 L0.26,-0.46 L0.26,-0.46 L0.25,-0.46 L0.25,-0.46 L0.24,-0.46 L0.24,-0.46 L0.23,-0.46 L0.23,-0.47 L0.22,-0.47 L0.22,-0.47 L0.21,-0.47 L0.21,-0.47 L0.20,-0.47 L0.20,-0.47 L0.19,-0.47 L0.19,-0.47 L0.18,-0.47 L0.18,-0.47 L0.17,-0.47 L0.17,-0.47 L0.16,-0.47 L0.16,-0.47 L0.15,-0.47 L0.15,-0.47 L0.14,-0.47 L0.14,-0.47 L0.13,-0.47 L0.13,-0.47 L0.12,-0.47 L0.12,-0.47 L0.11,-0.47 L0.11,-0.47 L0.11,-0.47 L0.10,-0.47 L0.10,-0.47 L0.09,-0.47 L0.09,-0.47 L0.08,-0.47 L0.08,-0.47 L0.07,-0.47 L0.07,-0.47 L0.06,-0.47 L0.06,-0.46 L0.05,-0.46 L0.05,-0.46 L0.05,-0.46 L0.04,-0.46 L0.04,-0.46 L0.03,-0.46 L0.03,-0.46 L0.02,-0.46 L0.02,-0.46 L0.01,-0.45 L0.01,-0.45 L0.01,-0.45 L0.00,-0.45 L-0.00,-0.45 L-0.01,-0.45 L-0.01,-0.45 L-0.02,-0.45 L-0.02,-0.44 L-0.02,-0.44 L-0.03,-0.44 L-0.03,-0.44 L-0.04,-0.44 L-0.04,-0.44 L-0.04,-0.43 L-0.05,-0.43 L-0.05,-0.43 L-0.06,-0.43 L-0.06,-0.43 L-0.06,-0.43 L-0.07,-0.42 L-0.07,-0.42 L-0.07,-0.42 L-0.08,-0.42 L-0.08,-0.42 L-0.09,-0.41 L-0.09,-0.41 L-0.09,-0.41 L-0.10,-0.41 L-0.10,-0.41 L-0.10,-0.40 L-0.11,-0.40 L-0.11,-0.40 L-0.11,-0.40 L-0.12,-0.40 L-0.12,-0.39 L-0.12,-0.39 L-0.13,-0.39 L-0.13,-0.39 L-0.13,-0.38 L-0.14,-0.38 L-0.14,-0.38 L-0.14,-0.38 L-0.15,-0.37 L-0.15,-0.37 L-0.15,-0.37 L-0.16,-0.37 L-0.16,-0.36 L-0.16,-0.36 L-0.16,-0.36 L-0.17,-0.36 L-0.17,-0.35 L-0.17,-0.35 L-0.18,-0.35 L-0.18,-0.35 L-0.18,-0.34 L-0.18,-0.34 L-0.19,-0.34 L-0.19,-0.34 L-0.19,-0.33 L-0.19,-0.33 L-0.20,-0.33 L-0.20,-0.32 L-0.20,-0.32 L-0.20,-0.32 L-0.21,-0.32 L-0.21,-0.31 L-0.21,-0.31 L-0.21,-0.31 L-0.22,-0.30 L-0.22,-0.30 L-0.22,-0.30 L-0.22,-0.29 L-0.23,-0.29 L-0.23,-0.29 L-0.23,-0.29 L-0.23,-0.28 L-0.23,-0.28 L-0.24,-0.28 L-0.24,-0.27 L-0.24,-0.27 L-0.24,-0.27 L-0.24,-0.26 L-0.24,-0.26 L-0.25,-0.26 L-0.25,-0.26 L-0.25,-0.25 L-0.25,-0.25 L-0.25,-0.25 L-0.25,-0.24 L-0.26,-0.24 L-0.26,-0.24 L-0.26,-0.23 L-0.26,-0.23 L-0.26,-0.23 L-0.26,-0.22 L-0.26,-0.22 L-0.27,-0.22 L-0.27,-0.22 L-0.27,-0.21 L-0.27,-0.21 L-0.27,-0.21 L-0.27,-0.20 L-0.27,-0.20 L-0.27,-0.20 L-0.28,-0.19 L-0.28,-0.19 L-0.28,-0.19 L-0.28,-0.18 L-0.28,-0.18 L-0.28,-0.18 L-0.28,-0.17 L-0.28,-0.17 L-0.28,-0.17 L-0.28,-0.16 L-0.28,-0.16 L-0.28,-0.16 L-0.29,-0.16 L-0.29,-0.15 L-0.29,-0.15 L-0.29,-0.15 L-0.29,-0.14 L-0.29,-0.14 L-0.29,-0.14 L-0.29,-0.13 L-0.29,-0.13 L-0.29,-0.13 L-0.29,-0.12 L-0.29,-0.12 L-0.29,-0.12 L-0.29,-0.12 L-0.29,-0.11 L-0.29,-0.11 L-0.29,-0.11 L-0.29,-0.10 L-0.29,-0.10 L-0.29,-0.10 L-0.29,-0.09 L-0.29,-0.09 L-0.29,-0.09 L-0.29,-0.08 L-0.29,-0.08 L-0.29,-0.08 L-0.29,-0.08 L-0.29,-0.07 L-0.29,-0.07 L-0.29,-0.07 L-0.29,-0.06 L-0.29,-0.06 L-0.29,-0.06 L-0.29,-0.06 L-0.29,-0.05 L-0.29,-0.05 L-0.29,-0.05 L-0.29,-0.04 L-0.29,-0.04 L-0.29,-0.04 L-0.29,-0.04 L-0.29,-0.03 L-0.29,-0.03 L-0.29,-0.03 L-0.28,-0.02 L-0.28,-0.02 L-0.28,-0.02 L-0.28,-0.02 L-0.28,-0.01 L-0.28,-0.01 L-0.28,-0.01 L-0.28,-0.01 L-0.28,-0.00 L-0.28,-0.00 L-0.28,0.00 L-0.28,0.01 L-0.28,0.01 L-0.28,0.01 L-0.27,0.01 L-0.27,0.02 L-0.27,0.02 L-0.27,0.02 L-0.27,0.02 L-0.27,0.03 L-0.27,0.03 L-0.27,0.03 L-0.27,0.03 L-0.27,0.04 L-0.26,0.04 L-0.26,0.04 L-0.26,0.04 L-0.26,0.04 L-0.26,0.05 L-0.26,0.05 L-0.26,0.05 L-0.26,0.05 L-0.25,0.06 L-0.25,0.06 L-0.25,0.06 L-0.25,0.06 L-0.25,0.06 L-0.25,0.07 L-0.25,0.07 L-0.25,0.07 L-0.24,0.07 L-0.24,0.08 L-0.24,0.08 L-0.24,0.08 L-0.24,0.08 L-0.24,0.08 L-0.24,0.09 L-0.23,0.09 L-0.23,0.09 L-0.23,0.09 L-0.23,0.09 L-0.23,0.10 L-0.23,0.10 L-0.22,0.10 L-0.22,0.10 L-0.22,0.10 L-0.22,0.10 L-0.22,0.11 L-0.22,0.11 L-0.21,0.11 L-0.21,0.11 L-0.21,0.11 L-0.21,0.11 L-0.21,0.12 L-0.21,0.12 L-0.20,0.12 L-0.20,0.12 L-0.20,0.12 L-0.20,0.12 L-0.20,0.13 L-0.20,0.13 L-0.19,0.13 L-0.19,0.13 L-0.19,0.13 L-0.19,0.13 L-0.19,0.13 L-0.19,0.14 L-0.18,0.14 L-0.18,0.14 L-0.18,0.14 L-0.18,0.14 L-0.18,0.14 L-0.17,0.14 L-0.17,0.14 L-0.17,0.15 L-0.17,0.15 L-0.17,0.15 L-0.17,0.15 L-0.16,0.15 L-0.16,0.15 L-0.16,0.15 L-0.16,0.15 L-0.16,0.15 L-0.15,0.16 L-0.15,0.16 L-0.15,0.16 L-0.15,0.16 L-0.15,0.16 L-0.14,0.16 L-0.14,0.16 L-0.14,0.16 L-0.14,0.16 L-0.14,0.16 L-0.13,0.16 L-0.13,0.17 L-0.13,0.17 L-0.13,0.17 L-0.13,0.17 L-0.12,0.17 L-0.12,0.17 L-0.12,0.17 L-0.12,0.17 L-0.12,0.17 L-0.11,0.17 L-0.11,0.17 L-0.11,0.17 L-0.11,0.17 L-0.11,0.17 L-0.11,0.17 L-0.10,0.17 L-0.10,0.18 L-0.10,0.18 L-0.10,0.18 L-0.10,0.18 L-0.09,0.18 L-0.09,0.18 L-0.09,0.18 L-0.09,0.18 L-0.09,0.18 L-0.08,0.18 L-0.08,0.18 L-0.08,0.18 L-0.08,0.18 L-0.08,0.18 L-0.07,0.18 L-0.07,0.18 L-0.07,0.18 L-0.07,0.18 L-0.07,0.18 L-0.06,0.18 L-0.06,0.18 L-0.06,0.18 L-0.06,0.18 L-0.06,0.18 L-0.06,0.18 L-0.05,0.18 L-0.05,0.18 L-0.05,0.18 L-0.05,0.18 L-0.05,0.18 L-0.04,0.18 L-0.04,0.18 L-0.04,0.18 L-0.04,0.18 L-0.04,0.18 L-0.04,0.18 L-0.03,0.18 L-0.03,0.18 L-0.03,0.18 L-0.03,0.18 L-0.03,0.18 L-0.02,0.18 L-0.02,0.18 L-0.02,0.18 L-0.02,0.18 L-0.02,0.18 L-0.02,0.18 L-0.01,0.18 L-0.01,0.18 L-0.01,0.18 L-0.01,0.17 L-0.01,0.17 L-0.01,0.17 L-0.00,0.17 L-0.00,0.17 L-0.00,0.17 L0.00,0.17 L0.00,0.17 L0.00,0.17 L0.01,0.17 L0.01,0.17 L0.01,0.17 L0.01,0.17 L0.01,0.17 L0.01,0.17 L0.01,0.17 L0.02,0.17 L0.02,0.17 L0.02,0.17 L0.02,0.16 L0.02,0.16 L0.02,0.16 L0.03,0.16 L0.03,0.16 L0.03,0.16 L0.03,0.16 L0.03,0.16 L0.03,0.16 L0.03,0.16 L0.04,0.16 L0.04,0.16 L0.04,0.16 L0.04,0.15 L0.04,0.15 L0.04,0.15 L0.04,0.15 L0.04,0.15 L0.05,0.15 L0.05,0.15 L0.05,0.15 L0.05,0.15 L0.05,0.15 L0.05,0.15 L0.05,0.15 L0.05,0.14 L0.06,0.14 L0.06,0.14 L0.06,0.14 L0.06,0.14 L0.06,0.14 L0.06,0.14 L0.06,0.14 L0.06,0.14 L0.06,0.14 L0.07,0.13 L0.07,0.13 L0.07,0.13 L0.07,0.13 L0.07,0.13 L0.07,0.13 L0.07,0.13 L0.07,0.13 L0.07,0.13 L0.08,0.13 L0.08,0.12 L0.08,0.12 L0.08,0.12 L0.08,0.12 L0.08,0.12 L0.08,0.12 L0.08,0.12 L0.08,0.12 L0.08,0.12 L0.08,0.11 L0.08,0.11 L0.09,0.11 L0.09,0.11 L0.09,0.11 L0.09,0.11 L0.09,0.11 L0.09,0.11 L0.09,0.11 L0.09,0.10 L0.09,0.10 L0.09,0.10 L0.09,0.10 L0.09,0.10 L0.09,0.10 L0.10,0.10 L0.10,0.10 L0.10,0.09 L0.10,0.09 L0.10,0.09 L0.10,0.09 L0.10,0.09 L0.10,0.09 L0.10,0.09 L0.10,0.09 L0.10,0.09 L0.10,0.08 L0.10,0.08 L0.10,0.08 L0.10,0.08 L0.10,0.08 L0.10,0.08 L0.10,0.08 L0.10,0.08 L0.10,0.07 L0.11,0.07 L0.11,0.07 L0.11,0.07 L0.11,0.07 L0.11,0.07 L0.11,0.07 L0.11,0.07 L0.11,0.06 L0.11,0.06 L0.11,0.06 L0.11,0.06 L0.11,0.06 L0.11,0.06 L0.11,0.06 L0.11,0.06 L0.11,0.06 L0.11,0.05 L0.11,0.05 L0.11,0.05 L0.11,0.05 L0.11,0.05 L0.11,0.05 L0.11,0.05 L0.11,0.05 L0.11,0.04 L0.11,0.04 L0.11,0.04 L0.11,0.04 L0.11,0.04 L0.11,0.04 L0.11,0.04 L0.11,0.04 L0.11,0.04 L0.11,0.03 L0.11,0.03 L0.11,0.03 L0.11,0.03 L0.11,0.03 L0.11,0.03 L0.11,0.03 L0.11,0.03 L0.11,0.02 L0.11,0.02 L0.11,0.02 L0.11,0.02 L0.11,0.02 L0.11,0.02 L0.11,0.02 L0.11,0.02 L0.11,0.02 L0.11,0.01 L0.11,0.01 L0.11,0.01 L0.11,0.01 L0.11,0.01 L0.11,0.01 L0.11,0.01 L0.11,0.01 L0.11,0.01 L0.11,0.01 L0.11,0.00 L0.11,0.00 L0.11,0.00 L0.11,0.00 L0.11,0.00 L0.11,-0.00 L0.11,-0.00 L0.11,-0.00 L0.11,-0.00 L0.10,-0.00 L0.10,-0.01 L0.10,-0.01 L0.10,-0.01 L0.10,-0.01 L0.10,-0.01 L0.10,-0.01 L0.10,-0.01 L0.10,-0.01 L0.10,-0.01 L0.10,-0.01 L0.10,-0.01 L0.10,-0.02 L0.10,-0.02 L0.10,-0.02 L0.10,-0.02 L0.10,-0.02 L0.10,-0.02 L0.10,-0.02 L0.10,-0.02 L0.10,-0.02 L0.10,-0.02 L0.10,-0.02 L0.09,-0.03 L0.09,-0.03 L0.09,-0.03 L0.09,-0.03 L0.09,-0.03 L0.09,-0.03 L0.09,-0.03 L0.09,-0.03 L0.09,-0.03 L0.09,-0.03 L0.09,-0.03 L0.09,-0.03 L0.09,-0.03 L0.09,-0.04 L0.09,-0.04 L0.09,-0.04 L0.09,-0.04 L0.09,-0.04 L0.08,-0.04 L0.08,-0.04 L0.08,-0.04 L0.08,-0.04 L0.08,-0.04 L0.08,-0.04 L0.08,-0.04 L0.08,-0.04 L0.08,-0.04 L0.08,-0.04 L0.08,-0.05 L0.08,-0.05 L0.08,-0.05 L0.08,-0.05 L0.08,-0.05 L0.08,-0.05 L0.07,-0.05 L0.07,-0.05 L0.07,-0.05 L0.07,-0.05 L0.07,-0.05 L0.07,-0.05 L0.07,-0.05 L0.07,-0.05 L0.07,-0.05 L0.07,-0.05 L0.07,-0.05 L0.07,-0.05 L0.07,-0.06 L0.07,-0.06 L0.06,-0.06 L0.06,-0.06 L0.06,-0.06 L0.06,-0.06 L0.06,-0.06 L0.06,-0.06 L0.06,-0.06 L0.06,-0.06 L0.06,-0.06 L0.06,-0.06 L0.06,-0.06 L0.06,-0.06 L0.06,-0.06 L0.06,-0.06 L0.05,-0.06 L0.05,-0.06 L0.05,-0.06 L0.05,-0.06 L0.05,-0.06 L0.05,-0.06 L0.05,-0.06 L0.05,-0.06 L0.05,-0.06 L0.05,-0.06 L0.05,-0.06 L0.05,-0.06 L0.05,-0.06 L0.04,-0.07 L0.04,-0.07 L0.04,-0.07 L0.04,-0.07 L0.04,-0.07 L0.04,-0.07 L0.04,-0.07 L0.04,-0.07 L0.04,-0.07 L0.04,-0.07 L0.04,-0.07 L0.04,-0.07 L0.04,-0.07 L0.04,-0.07 L0.03,-0.07 L0.03,-0.07 L0.03,-0.07 L0.03,-0.07 L0.03,-0.07 L0.03,-0.07 L0.03,-0.07 L0.03,-0.07 L0.03,-0.07 L0.03,-0.07 L0.03,-0.07 L0.03,-0.07 L0.03,-0.07 L0.03,-0.07 L0.02,-0.07 L0.02,-0.07 L0.02,-0.07 L0.02,-0.07 L0.02,-0.07 L0.02,-0.07 L0.02,-0.07 L0.02,-0.07 L0.02,-0.07 L0.02,-0.07 L0.02,-0.07 L0.02,-0.07 L0.02,-0.07 L0.02,-0.07 L0.01,-0.07 L0.01,-0.07 L0.01,-0.07 L0.01,-0.07 L0.01,-0.07 L0.01,-0.07 L0.01,-0.07 L0.01,-0.07 L0.01,-0.07 L0.01,-0.07 L0.01,-0.07 L0.01,-0.07 L0.01,-0.07 L0.01,-0.07 L0.01,-0.07 L0.00,-0.07 L0.00,-0.07 L0.00,-0.07 L0.00,-0.07 L0.00,-0.07 L0.00,-0.07 L0.00,-0.07 L0.00,-0.07 L-0.00,-0.07 L-0.00,-0.07 L-0.00,-0.07 L-0.00,-0.06 L-0.00,-0.06 L-0.00,-0.06 L-0.00,-0.06 L-0.00,-0.06 L-0.01,-0.06 L-0.01,-0.06 L-0.01,-0.06 L-0.01,-0.06 L-0.01,-0.06 L-0.01,-0.06 L-0.01,-0.06 L-0.01,-0.06 L-0.01,-0.06 L-0.01,-0.06 L-0.01,-0.06 L-0.01,-0.06 L-0.01,-0.06 L-0.01,-0.06 L-0.01,-0.06 L-0.01,-0.06 L-0.01,-0.06 L-0.01,-0.06 L-0.02,-0.06 L-0.02,-0.06 L-0.02,-0.06 L-0.02,-0.06 L-0.02,-0.06 L-0.02,-0.06 L-0.02,-0.06 L-0.02,-0.06 L-0.02,-0.06 L-0.02,-0.06 L-0.02,-0.06 L-0.02,-0.06 L-0.02,-0.05 L-0.02,-0.05 L-0.02,-0.05 L-0.02,-0.05 L-0.02,-0.05 L-0.02,-0.05 L-0.02,-0.05 L-0.02,-0.05 L-0.02,-0.05 L-0.03,-0.05 L-0.03,-0.05 L-0.03,-0.05 L-0.03,-0.05 L-0.03,-0.05 L-0.03,-0.05 L-0.03,-0.05 L-0.03,-0.05 L-0.03,-0.05 L-0.03,-0.05 L-0.03,-0.05 L-0.03,-0.05 L-0.03,-0.05 L-0.03,-0.05 L-0.03,-0.05 L-0.03,-0.05 L-0.03,-0.05 L-0.03,-0.04 L-0.03,-0.04 L-0.03,-0.04 L-0.03,-0.04 L-0.03,-0.04 L-0.03,-0.04 L-0.03,-0.04 L-0.03,-0.04 L-0.03,-0.04 L-0.03,-0.04 L-0.03,-0.04 L-0.03,-0.04 L-0.03,-0.04 L-0.04,-0.04 L-0.04,-0.04 L-0.04,-0.04 L-0.04,-0.04 L-0.04,-0.04 L-0.04,-0.04 L-0.04,-0.04 L-0.04,-0.04 L-0.04,-0.04 L-0.04,-0.03 L-0.04,-0.03 L-0.04,-0.03 L-0.04,-0.03 L-0.04,-0.03 L-0.04,-0.03 L-0.04,-0.03 L-0.04,-0.03 L-0.04,-0.03 L-0.04,-0.03 L-0.04,-0.03 L-0.04,-0.03 L-0.04,-0.03 L-0.04,-0.03 L-0.04,-0.03 L-0.04,-0.03 L-0.04,-0.03 L-0.04,-0.03 L-0.04,-0.03 L-0.04,-0.03 L-0.04,-0.03 L-0.04,-0.03 L-0.04,-0.02 L-0.04,-0.02 L-0.04,-0.02 L-0.04,-0.02 L-0.04,-0.02 L-0.04,-0.02 L-0.04,-0.02 L-0.04,-0.02 L-0.04,-0.02 L-0.04,-0.02 L-0.04,-0.02 L-0.04,-0.02 L-0.04,-0.02 L-0.04,-0.02 L-0.04,-0.02 L-0.04,-0.02 L-0.04,-0.02 L-0.04,-0.02 L-0.04,-0.02 L-0.04,-0.02 L-0.04,-0.02 L-0.04,-0.02 L-0.04,-0.01 L-0.04,-0.01 L-0.04,-0.01 L-0.04,-0.01 L-0.04,-0.01 L-0.04,-0.01 L-0.04,-0.01 L-0.04,-0.01 L-0.04,-0.01 L-0.04,-0.01 L-0.04,-0.01 L-0.04,-0.01 L-0.04,-0.01 L-0.04,-0.01 L-0.04,-0.01 L-0.04,-0.01 L-0.04,-0.01 L-0.04,-0.01 L-0.04,-0.01 L-0.04,-0.01 L-0.04,-0.01 L-0.04,-0.01 L-0.04,-0.01 L-0.04,-0.01 L-0.04,-0.00 L-0.04,-0.00 L-0.04,-0.00 L-0.04,-0.00 L-0.04,-0.00 L-0.04,-0.00 L-0.04,-0.00 L-0.04,-0.00 L-0.04,-0.00 L-0.04,-0.00 L-0.04,-0.00 L-0.04,-0.00 L-0.04,0.00 L-0.04,0.00 L-0.04,0.00 L-0.04,0.00 L-0.04,0.00 L-0.04,0.00 L-0.04,0.00 L-0.04,0.00 L-0.04,0.00 L-0.04,0.00 L-0.04,0.00 L-0.04,0.00 L-0.04,0.00 L-0.04,0.00 L-0.04,0.01 L-0.04,0.01 L-0.04,0.01 L-0.04,0.01 L-0.04,0.01 L-0.04,0.01 L-0.04,0.01 L-0.04,0.01 L-0.04,0.01 L-0.04,0.01 L-0.04,0.01 L-0.04,0.01 L-0.04,0.01 L-0.04,0.01 L-0.04,0.01 L-0.04,0.01 L-0.04,0.01 L-0.04,0.01 L-0.04,0.01 L-0.04,0.01 L-0.03,0.01 L-0.03,0.01 L-0.03,0.01 L-0.03,0.01 L-0.03,0.01 L-0.03,0.01 L-0.03,0.01 L-0.03,0.01 L-0.03,0.01 L-0.03,0.01 L-0.03,0.01 L-0.03,0.01 L-0.03,0.02 L-0.03,0.02 L-0.03,0.02 L-0.03,0.02 L-0.03,0.02 L-0.03,0.02 L-0.03,0.02 L-0.03,0.02 L-0.03,0.02 L-0.03,0.02 L-0.03,0.02 L-0.03,0.02 L-0.03,0.02 L-0.03,0.02 L-0.03,0.02 L-0.03,0.02 L-0.03,0.02 L-0.03,0.02 L-0.03,0.02 L-0.03,0.02 L-0.03,0.02 L-0.03,0.02 L-0.03,0.02 L-0.03,0.02 L-0.03,0.02 L-0.03,0.02 L-0.03,0.02 L-0.03,0.02 L-0.03,0.02 L-0.02,0.02 L-0.02,0.02 L-0.02,0.02 L-0.02,0.02 L-0.02,0.02 L-0.02,0.02 L-0.02,0.02 L-0.02,0.02 L-0.02,0.02 L-0.02,0.02 L-0.02,0.02 L-0.02,0.02 L-0.02,0.02 L-0.02,0.02 L-0.02,0.02 L-0.02,0.02 L-0.02,0.02 L-0.02,0.02 L-0.02,0.02 L-0.02,0.02 L-0.02,0.02 L-0.02,0.02 L-0.02,0.02 L-0.02,0.02 L-0.02,0.02 L-0.02,0.02 L-0.02,0.02 L-0.02,0.02 L-0.02,0.02 L-0.02,0.03 L-0.02,0.03 L-0.02,0.03 L-0.02,0.03 L-0.02,0.03 L-0.02,0.03 L-0.01,0.03 L-0.01,0.03 L-0.01,0.03 L-0.01,0.03 L-0.01,0.03 L-0.01,0.03 L-0.01,0.03 L-0.01,0.03 L-0.01,0.03 L-0.01,0.03 L-0.01,0.03 L-0.01,0.03 L-0.01,0.03 L-0.01,0.03 L-0.01,0.03 L-0.01,0.03 L-0.01,0.03 L-0.01,0.03 L-0.01,0.03 L-0.01,0.03 L-0.01,0.03 L-0.01,0.03 L-0.01,0.03 L-0.01,0.03 L-0.01,0.03 L-0.01,0.03 L-0.01,0.03 L-0.01,0.03 L-0.01,0.03 L-0.01,0.03 L-0.01,0.03 L-0.01,0.03 L-0.01,0.03 L-0.01,0.03 L-0.01,0.03 L-0.01,0.03 L-0.01,0.03 L-0.00,0.03 L-0.00,0.03 L-0.00,0.03 L-0.00,0.03 L-0.00,0.03 L-0.00,0.03 L-0.00,0.03 L-0.00,0.03 L-0.00,0.03 L-0.00,0.03 L-0.00,0.03 L-0.00,0.03 L-0.00,0.03 L-0.00,0.03 L-0.00,0.03 L-0.00,0.03 L-0.00,0.03 L-0.00,0.03 L-0.00,0.03 L-0.00,0.03 L0.00,0.03 L0.00,0.03 L0.00,0.02 L0.00,0.02 L0.00,0.02 L0.00,0.02 L0.00,0.02 L0.00,0.02 L0.00,0.02 L0.00,0.02 L0.00,0.02 L0.00,0.02 L0.00,0.02 L0.00,0.02 L0.00,0.02 L0.00,0.02 L0.00,0.02 L0.00,0.02 L0.00,0.02 L0.00,0.02 L0.00,0.02 L0.00,0.02 L0.00,0.02 L0.01,0.02 L0.01,0.02 L0.01,0.02 L0.01,0.02 L0.01,0.02 L0.01,0.02 L0.01,0.02 L0.01,0.02 L0.01,0.02 L0.01,0.02 L0.01,0.02 L0.01,0.02 L0.01,0.02 L0.01,0.02 L0.01,0.02 L0.01,0.02 L0.01,0.02 L0.01,0.02 L0.01,0.02 L0.01,0.02 L0.01,0.02 L0.01,0.02 L0.01,0.02 L0.01,0.02 L0.01,0.02 L0.01,0.02 L0.01,0.02 L0.01,0.02 L0.01,0.02 L0.01,0.02 L0.01,0.02 L0.01,0.02 L0.01,0.02 L0.01,0.02 L0.01,0.02 L0.01,0.02 L0.01,0.02 L0.01,0.02 L0.01,0.02 L0.01,0.02 L0.01,0.02 L0.01,0.02 L0.01,0.02 L0.01,0.02 L0.01,0.02 L0.01,0.02 L0.01,0.02 L0.01,0.02 L0.01,0.02 L0.01,0.02 L0.01,0.02 L0.01,0.02 L0.01,0.02 L0.01,0.02 L0.01,0.01 L0.01,0.01 L0.01,0.01 L0.01,0.01 L0.01,0.01 L0.01,0.01 L0.01,0.01 L0.01,0.01 L0.01,0.01 L0.01,0.01 L0.01,0.01 L0.01,0.01 L0.01,0.01 L0.01,0.01 L0.01,0.01 L0.01,0.01 L0.01,0.01 L0.01,0.01 L0.01,0.01 L0.02,0.01 L0.02,0.01 L0.02,0.01 L0.02,0.01 L0.02,0.01 L0.02,0.01 L0.02,0.01 L0.02,0.01 L0.02,0.01 L0.02,0.01 L0.02,0.01 L0.02,0.01 L0.02,0.01 L0.02,0.01 L0.02,0.01 L0.02,0.01 L0.02,0.01 L0.02,0.01 L0.02,0.01 L0.02,0.01 L0.02,0.01 L0.02,0.01 L0.02,0.01 L0.02,0.01 L0.02,0.01 L0.02,0.01 L0.02,0.01 L0.02,0.01 L0.02,0.01 L0.02,0.01 L0.02,0.01 L0.02,0.01 L0.02,0.01 L0.02,0.01 L0.02,0.01 L0.02,0.01 L0.02,0.01 L0.02,0.01 L0.02,0.01 L0.02,0.00 L0.02,0.00 L0.02,0.00 L0.02,0.00 L0.02,0.00 L0.02,0.00 L0.02,0.00 L0.02,0.00 L0.02,0.00 L0.02,0.00 L0.02,0.00 L0.02,0.00 L0.02,0.00 L0.02,0.00 L0.02,0.00 L0.02,0.00 L0.02,0.00 L0.02,0.00 L0.02,0.00 L0.02,0.00 L0.02,0.00 L0.02,0.00 L0.02,0.00 L0.02,0.00 L0.02,0.00 L0.02,0.00 L0.02,0.00 L0.02,0.00 L0.02,0.00 L0.02,0.00 L0.02,0.00 L0.02,0.00"
        fill="none"
        stroke="#888"
        stroke-width="2"/>
</svg>
