<?xml version="1.0" standalone="no"?>
<!DOCTYPE svg PUBLIC "-//W3C//DTD SVG 20010904//EN"
 "http://www.w3.org/TR/2001/REC-SVG-20010904/DTD/svg10.dtd">
<svg version="1.0" xmlns="http://www.w3.org/2000/svg"
 width="512.000000pt" height="512.000000pt" viewBox="0 0 512.000000 512.000000"
 preserveAspectRatio="xMidYMid meet">
<metadata>
Created by potrace 1.16, written by Peter Selinger 2001-2019
</metadata>
<g transform="translate(0.000000,512.000000) scale(0.100000,-0.100000)"
fill="#000000" stroke="none">
<path d="M223 5088 c-16 -18 -43 -57 -59 -87 -16 -29 -44 -65 -64 -79 -55 -41
-59 -47 -11 -21 46 25 65 48 101 119 13 24 36 57 52 72 17 16 26 28 21 28 -5
0 -23 -15 -40 -32z"/>
<path d="M475 5104 c22 -8 56 -27 75 -42 52 -42 70 -49 30 -13 -42 38 -103 71
-127 70 -10 0 0 -7 22 -15z"/>
<path d="M902 5075 c29 -25 78 -57 108 -73 49 -24 66 -27 150 -27 61 1 116 7
154 19 73 22 70 29 -4 10 -135 -35 -303 2 -408 90 -16 15 -35 26 -42 26 -7 0
12 -20 42 -45z"/>
<path d="M1014 5099 c21 -11 53 -21 71 -22 18 -1 31 -5 29 -8 -5 -9 168 -1
201 10 24 7 18 8 -30 4 -38 -3 -91 1 -145 12 -47 10 -103 19 -125 21 l-40 5
39 -22z"/>
<path d="M1565 5110 c-3 -6 1 -7 9 -4 18 7 21 14 7 14 -6 0 -13 -4 -16 -10z"/>
<path d="M1725 5083 c-107 -65 -358 -188 -435 -213 -62 -21 -94 -25 -185 -24
-60 1 -129 6 -152 11 -24 6 -43 10 -43 8 0 -11 91 -61 146 -80 38 -14 61 -25
51 -25 -35 0 -309 103 -336 126 -8 7 22 34 38 34 9 0 32 -10 51 -23 38 -26 83
-32 225 -32 58 0 102 6 123 15 32 14 29 15 -75 16 -94 0 -117 4 -175 28 -59
24 -70 33 -88 70 -28 60 -97 85 -151 56 -24 -14 -24 -35 1 -67 25 -32 25 -54
1 -84 -16 -20 -29 -23 -98 -26 -74 -2 -83 0 -107 22 -14 13 -26 31 -26 39 0
11 -8 13 -33 9 -56 -9 -89 43 -45 71 13 8 23 8 38 -2 11 -7 20 -8 20 -2 0 33
-101 33 -143 0 -18 -15 -19 -20 -8 -34 8 -9 11 -26 7 -41 -6 -23 -11 -26 -48
-23 -32 2 -44 -3 -59 -21 -33 -40 -42 -96 -26 -151 13 -45 13 -51 -3 -65 -38
-35 -122 -7 -172 58 -14 18 -18 19 -18 5 0 -28 81 -90 135 -104 l50 -13 70 48
c152 105 244 136 390 135 114 0 182 -16 327 -74 54 -22 111 -40 126 -41 21 0
24 -2 12 -10 -21 -14 -173 -99 -176 -99 -2 0 -29 23 -61 51 -112 100 -266 149
-378 121 -35 -9 -32 -10 25 -5 76 6 173 -15 235 -52 49 -28 155 -116 155 -128
0 -4 -22 -30 -49 -57 -27 -27 -66 -77 -87 -110 l-37 -61 -27 26 c-24 23 -34
26 -86 23 l-59 -3 -3 35 c-6 59 -57 70 -92 20 -16 -22 -27 -29 -40 -25 -14 4
-23 -2 -34 -23 -13 -25 -19 -28 -51 -24 -52 6 -104 -34 -191 -150 -41 -53 -92
-112 -114 -129 l-40 -32 0 -82 0 -81 58 -33 c46 -27 73 -34 144 -41 92 -9 117
-18 162 -59 26 -24 28 -24 17 -4 -6 12 -32 34 -57 49 -36 21 -44 31 -40 47 6
25 -10 57 -28 57 -8 0 -26 -6 -42 -14 -19 -10 -33 -12 -45 -5 -13 6 -25 6 -37
-2 -30 -19 -52 -4 -52 35 0 35 21 66 44 66 24 0 40 28 26 44 -16 20 -9 62 10
57 8 -2 29 -6 46 -9 l31 -4 6 69 c3 38 13 85 21 104 9 19 14 25 10 14 -12 -40
-24 -136 -19 -145 3 -5 18 -7 33 -4 42 8 89 -28 117 -89 25 -52 34 -53 14 0
-6 15 -13 39 -15 53 -2 14 -7 38 -10 53 -6 30 17 67 43 67 17 0 44 62 46 104
2 28 5 31 35 29 18 0 35 -3 37 -5 3 -2 -2 -26 -11 -53 l-14 -50 35 -33 c19
-18 37 -43 39 -55 45 -239 141 -424 262 -510 l46 -32 -29 -12 c-46 -20 -74
-15 -142 26 -105 62 -157 114 -196 194 -38 79 -46 76 -15 -5 11 -29 20 -54 20
-55 0 0 -18 7 -40 18 -22 11 -58 18 -82 18 l-43 -2 45 -6 c56 -9 116 -39 199
-103 35 -28 89 -64 119 -81 50 -28 53 -31 36 -44 -34 -24 -88 -15 -181 32 -49
24 -112 64 -139 87 -39 35 -44 37 -23 12 28 -34 79 -80 119 -107 34 -24 14
-21 -59 7 -34 14 -92 47 -129 74 -58 43 -131 83 -151 82 -3 0 3 -7 13 -15 31
-23 10 -30 -33 -11 -55 25 -77 19 -73 -23 2 -25 -4 -38 -23 -53 -32 -25 -32
-46 3 -94 52 -71 212 -135 375 -151 95 -8 87 -33 -11 -33 -105 0 -264 58 -346
125 -37 30 -57 60 -96 144 -3 8 -12 17 -18 19 -9 3 -12 -26 -12 -106 l0 -110
66 -55 c38 -32 80 -58 99 -61 40 -8 59 -29 52 -56 -4 -16 3 -25 34 -40 21 -11
39 -24 39 -28 0 -10 -126 -52 -152 -52 -10 0 -18 6 -18 14 0 8 -9 17 -19 21
-53 16 -20 71 54 90 46 12 48 13 23 20 -15 4 -35 2 -45 -3 -14 -8 -25 -5 -48
12 -21 16 -38 21 -55 16 -23 -5 -25 -11 -28 -64 -3 -56 -1 -60 30 -87 l33 -28
-32 -1 c-26 0 -33 -4 -33 -20 0 -27 39 -26 165 4 171 42 221 71 385 221 174
160 346 260 502 295 87 20 212 9 278 -24 51 -25 53 -25 29 -4 -15 13 -40 30
-57 39 -28 16 -30 21 -37 95 -9 108 -16 118 -10 14 l6 -85 -121 0 -120 0 -43
35 c-165 134 -251 343 -202 485 5 15 1 13 -17 -7 -13 -16 -26 -28 -29 -28 -13
0 12 146 34 193 34 74 108 168 169 215 95 72 212 142 288 171 193 74 338 59
462 -47 23 -21 57 -46 73 -56 l30 -19 -20 23 c-11 13 -36 38 -55 56 l-35 33
43 1 c46 0 88 -30 78 -56 -7 -18 12 -18 60 2 44 18 121 13 164 -12 14 -9 41
-39 61 -67 34 -51 36 -52 92 -57 63 -6 90 -25 90 -64 0 -36 12 -41 43 -17 18
14 41 21 69 21 36 0 52 -7 96 -44 65 -53 108 -67 219 -75 l85 -6 -36 -22 c-70
-44 -190 -26 -272 40 -59 47 -74 51 -101 24 -24 -24 -95 -33 -108 -13 -4 6
-19 11 -34 11 -36 0 -56 31 -31 49 22 17 22 33 -2 46 -27 14 -47 13 -86 -6
-31 -14 -36 -14 -58 1 -23 14 -29 15 -61 1 -38 -16 -40 -15 -71 29 -13 19 -16
19 -42 4 -26 -14 -30 -14 -56 5 -21 15 -30 17 -39 8 -10 -10 -8 -19 5 -41 27
-46 20 -48 -18 -4 -19 22 -46 43 -60 45 -28 6 -65 -16 -65 -39 0 -11 -5 -13
-17 -8 -38 17 -79 15 -115 -3 -48 -25 -49 -13 -3 22 40 31 38 46 -6 46 -30 0
-103 -32 -114 -50 -3 -5 -11 -10 -17 -10 -21 0 36 52 77 71 54 25 81 24 111
-6 27 -27 44 -32 44 -12 0 6 -23 25 -51 41 -46 26 -58 28 -112 22 -69 -7 -135
-41 -162 -83 -18 -28 -18 -28 16 3 32 30 89 64 105 64 5 0 -12 -13 -37 -29
-80 -50 -106 -101 -78 -154 9 -17 9 -22 -2 -25 -8 -3 -34 -26 -59 -51 -62 -65
-93 -148 -100 -271 l-6 -95 -19 40 c-16 32 -20 61 -20 142 0 56 -2 99 -4 97
-3 -2 -11 -30 -18 -62 l-13 -57 5 58 c7 78 48 177 98 233 23 26 33 42 22 36
-24 -12 -65 -57 -86 -92 -50 -82 -71 -197 -57 -308 10 -87 31 -145 84 -239
l39 -68 6 70 c10 103 34 189 80 285 34 70 58 101 133 175 100 99 176 144 279
165 111 22 223 -24 267 -111 18 -35 25 -40 45 -35 16 4 32 -1 53 -19 28 -23
32 -24 58 -10 16 8 36 15 45 15 33 0 70 -44 113 -133 54 -112 158 -244 239
-303 32 -24 63 -44 68 -44 5 0 15 13 23 29 21 39 70 79 136 110 49 23 66 26
165 25 136 -1 200 -23 278 -94 67 -61 108 -139 136 -254 37 -148 74 -198 158
-212 45 -7 173 28 282 77 72 33 78 48 10 23 -24 -9 -71 -17 -104 -17 -50 -1
-68 4 -100 26 -56 38 -129 60 -174 53 l-38 -6 -20 76 -20 75 26 -6 c14 -4 76
-25 136 -48 98 -37 120 -42 195 -42 135 0 215 50 213 132 -1 22 -9 44 -22 56
-21 21 -21 21 -52 3 -27 -16 -33 -16 -45 -4 -13 13 -12 18 7 42 16 21 18 30 9
41 -33 39 -150 44 -150 5 0 -10 5 -22 10 -25 14 -9 13 -42 -2 -51 -7 -4 -18 2
-26 14 -19 29 -38 28 -92 -8 -51 -34 -61 -32 -31 6 44 56 -23 62 -93 8 -64
-49 -126 -65 -126 -33 0 5 6 9 13 9 27 0 96 60 135 118 76 111 165 147 346
140 102 -4 119 -8 213 -47 132 -54 177 -59 277 -32 42 12 95 30 116 41 50 25
113 25 169 0 58 -27 77 -25 184 11 104 34 142 56 320 182 100 71 127 95 127
113 l0 23 -37 -25 c-113 -77 -252 -122 -398 -129 -59 -3 -81 -2 -65 4 14 5 42
9 63 10 108 3 273 56 383 123 50 30 54 35 54 71 l0 38 -62 -44 c-56 -40 -217
-122 -224 -114 -1 1 44 26 101 55 105 53 191 119 184 139 -2 7 -27 -4 -63 -28
-32 -21 -63 -39 -69 -39 -11 0 -10 1 76 101 55 63 71 99 45 99 -7 0 -24 -12
-40 -27 -15 -14 -40 -28 -55 -29 -15 -2 -41 -6 -56 -10 -19 -4 -33 -1 -47 11
-18 16 -20 14 -54 -40 -46 -71 -116 -139 -175 -170 -57 -30 -53 -30 28 -5 35
11 65 19 67 17 2 -1 -38 -27 -89 -56 -115 -66 -86 -58 49 14 128 69 215 133
254 186 38 53 39 37 1 -23 -44 -70 -88 -108 -202 -174 -159 -94 -324 -140
-388 -108 -30 15 -35 15 -69 0 -31 -14 -51 -15 -117 -8 -77 8 -79 9 -45 19 34
11 33 11 -28 12 -63 1 -102 13 -102 31 0 6 8 10 18 10 43 0 181 43 274 84 190
86 344 208 436 345 46 70 50 81 25 81 -9 0 -37 10 -62 22 -28 14 -68 23 -106
24 l-60 3 55 -8 c70 -11 117 -31 97 -43 -9 -4 -30 -2 -51 7 -19 8 -45 15 -56
15 -24 0 -95 -34 -105 -51 -13 -21 4 -21 31 0 37 29 98 29 118 -1 20 -29 20
-62 1 -78 -13 -11 -21 -9 -45 8 -31 23 -55 31 -28 10 24 -20 52 -74 46 -90 -4
-9 -23 -15 -51 -16 -38 -2 -47 1 -61 23 -19 29 -51 32 -78 8 -27 -24 -49 -2
-25 25 9 10 14 22 10 25 -15 16 -46 5 -79 -28 -19 -19 -41 -35 -48 -35 -7 0
-47 -30 -87 -66 -41 -37 -93 -80 -117 -96 -61 -42 -151 -80 -181 -76 -23 3
-17 8 39 37 89 46 163 99 240 172 l65 61 -81 -66 c-95 -76 -185 -133 -267
-166 -31 -13 -54 -27 -50 -30 148 -121 217 -163 326 -198 153 -50 185 -55 377
-61 l185 -6 -75 -22 c-118 -36 -151 -37 -307 -9 -184 32 -210 40 -316 87 -55
25 -109 41 -143 44 -30 3 -65 10 -77 16 -19 9 -19 8 3 -11 56 -47 232 -118
359 -146 47 -10 80 -19 73 -22 -25 -8 -163 29 -285 77 -108 41 -133 48 -153
39 -20 -9 -28 -6 -59 21 -20 17 -40 31 -46 31 -6 0 -22 -27 -37 -59 -25 -58
-27 -60 -71 -66 -26 -3 -56 -9 -68 -12 l-22 -5 20 38 c10 21 19 56 18 79 l-1
40 -9 -40 c-5 -22 -20 -53 -34 -70 -14 -17 -22 -22 -19 -12 6 17 5 18 -30 3
l-37 -15 45 52 c48 53 57 86 31 107 -24 20 -60 4 -122 -54 -98 -90 -201 -164
-261 -187 -50 -20 -77 -23 -217 -25 -176 -1 -215 -10 -288 -64 -44 -32 -100
-40 -152 -20 -23 9 -25 13 -14 26 13 16 63 16 114 0 11 -3 7 0 -10 8 -45 22
-101 20 -118 -4 -14 -20 -16 -19 -66 36 -86 94 -87 91 32 96 124 5 138 11 267
127 173 155 325 205 476 156 17 -5 28 3 60 45 71 93 163 148 277 165 72 11
131 -2 189 -42 47 -31 50 -32 28 -8 -47 51 -95 67 -204 70 -172 4 -298 52
-426 160 -35 30 -67 55 -71 55 -4 0 -26 16 -49 35 -46 38 -100 47 -135 21 -23
-16 -13 -51 12 -42 25 10 53 -22 53 -61 0 -40 -20 -52 -56 -33 -29 16 -39 8
-39 -33 0 -31 -1 -32 -48 -35 -44 -3 -47 -5 -41 -26 7 -30 -27 -63 -74 -72
-72 -14 -183 20 -274 82 -82 57 -156 215 -143 308 7 54 24 100 49 131 10 13 8
3 -6 -30 -67 -149 11 -356 143 -384 27 -6 70 -11 94 -11 l44 0 -19 33 c-31 52
-52 163 -45 229 7 61 48 153 91 206 l27 32 -55 0 c-42 0 -59 -5 -73 -20 -10
-11 -31 -20 -46 -20 -18 0 -34 8 -41 20 -9 14 -24 20 -49 20 -30 0 -43 -7 -68
-35 -41 -47 -66 -98 -81 -167 -17 -75 -2 -148 46 -220 l35 -53 -35 40 c-46 51
-66 112 -66 194 0 77 31 156 83 209 l31 32 -90 0 c-104 0 -97 5 -185 -125 -63
-93 -154 -188 -230 -239 -60 -40 -79 -43 -128 -17 l-34 18 63 38 c75 45 176
138 234 215 74 97 68 97 -36 1 -55 -51 -47 -23 15 50 51 62 51 63 17 43 -19
-12 -57 -34 -85 -50 -27 -15 -98 -61 -157 -101 -59 -40 -110 -73 -115 -73 -4
1 15 21 42 46 l50 45 -112 -55 c-106 -53 -152 -68 -139 -47 4 5 84 51 179 102
199 107 268 149 247 149 -8 0 -42 -16 -75 -37z m-1325 -212 c-14 -5 -44 -18
-67 -30 -24 -12 -43 -19 -43 -16 0 9 95 54 115 54 16 -1 15 -2 -5 -8z m4345
-181 c0 -8 -8 -16 -18 -18 -21 -4 -49 16 -41 30 9 15 59 5 59 -12z m-1683 -37
c73 -61 160 -94 308 -117 15 -2 9 -4 -15 -5 -86 -2 -232 56 -310 124 -22 19
-37 35 -33 35 3 0 26 -16 50 -37z m-208 -84 c-42 -44 -139 -89 -204 -94 l-55
-4 48 9 c57 10 160 58 202 94 41 34 45 32 9 -5z m1390 -130 c-38 -41 -154
-129 -168 -128 -6 0 0 8 14 17 14 9 59 45 100 79 85 70 97 77 54 32z m-1121
-32 c18 -8 38 -21 46 -31 11 -14 7 -13 -30 4 -58 26 -97 25 -210 -4 -52 -14
-95 -23 -97 -22 -6 6 84 38 143 51 79 18 109 18 148 2z m1128 -68 c-62 -29
-121 -48 -111 -36 7 8 152 65 165 65 6 0 -19 -13 -54 -29z m-2872 5 l23 -17
-65 -66 c-81 -83 -119 -139 -153 -227 -14 -38 -30 -78 -35 -89 -12 -30 -11
111 1 175 24 128 105 240 173 240 18 0 43 -7 56 -16z m-929 3 c0 -2 -10 -12
-22 -23 l-23 -19 19 23 c18 21 26 27 26 19z m2010 -48 c30 -10 47 -18 38 -18
-24 -1 -126 38 -134 51 -4 5 4 4 17 -3 13 -7 49 -21 79 -30z m-137 -96 c-7 -2
-19 -2 -25 0 -7 3 -2 5 12 5 14 0 19 -2 13 -5z m122 -3 c-11 -5 -40 -8 -65 -8
-45 1 -45 1 -10 8 19 4 49 8 65 8 25 0 27 -1 10 -8z m-1780 -52 c8 -17 19 -23
43 -22 31 2 32 1 32 -40 0 -142 107 -329 236 -415 l47 -30 -29 -11 c-76 -29
-81 -28 -152 46 -121 126 -190 272 -199 424 -6 84 -1 93 22 48z m1908 11 c20
-5 37 -13 36 -17 -1 -14 -62 -55 -102 -69 -43 -15 -177 -21 -214 -9 -11 4 -23
12 -26 19 -4 10 9 12 52 10 50 -4 63 0 126 36 79 45 76 45 128 30z m-2463 -52
c0 -2 -19 -21 -42 -42 l-43 -40 40 43 c36 39 45 47 45 39z m3270 -20 c0 -2
-17 -19 -37 -38 l-38 -34 34 38 c33 34 41 42 41 34z m-42 -189 c-22 -33 -96
-88 -119 -88 -11 0 -30 12 -43 27 l-23 27 84 22 c46 12 87 24 90 28 16 16 24
4 11 -16z m-778 -55 c0 -5 -7 -16 -14 -26 -13 -17 -15 -17 -42 7 l-29 25 43 1
c23 0 42 -3 42 -7z m1096 -82 c-8 -12 -128 -57 -186 -70 -25 -6 -63 -10 -85
-10 -34 1 -37 2 -15 9 14 4 57 12 95 18 39 6 97 22 130 36 33 13 61 25 63 25
2 1 1 -3 -2 -8z m-3182 -216 c105 -35 187 -64 183 -64 -5 -1 -63 13 -130 30
-148 37 -262 80 -302 114 l-30 26 44 -21 c24 -12 130 -50 235 -85z m-27 -62
c160 -54 214 -81 97 -47 -68 19 -286 102 -294 111 -3 3 4 3 15 -1 10 -4 93
-32 182 -63z m-401 -48 c14 -22 19 -33 10 -25 -10 7 -24 27 -33 44 -19 38 -12
32 23 -19z m229 -95 c13 -6 15 -9 5 -9 -8 0 -22 4 -30 9 -18 12 -2 12 25 0z"/>
<path d="M2866 5083 c-62 -48 -157 -161 -195 -233 -17 -32 -31 -62 -31 -66 0
-5 13 15 29 43 55 100 146 204 235 271 16 12 24 22 19 22 -5 0 -31 -16 -57
-37z"/>
<path d="M3360 5114 c0 -15 97 -128 158 -185 155 -144 413 -241 601 -227 l61
4 -23 -24 c-34 -37 -71 -52 -129 -52 -44 0 -71 -9 -161 -55 -60 -30 -117 -55
-127 -55 -10 0 -22 -4 -25 -10 -3 -5 -2 -10 4 -10 5 0 30 -16 56 -36 l47 -35
51 27 c123 63 268 182 389 318 63 71 99 103 125 113 63 21 70 16 32 -24 -61
-66 -76 -90 -22 -35 32 32 64 55 83 59 49 9 15 23 -58 23 -45 0 -62 4 -60 12
8 23 57 51 114 64 l59 13 -55 -6 c-30 -3 -67 -11 -81 -19 -28 -14 -79 -69 -79
-85 0 -6 -39 -29 -87 -52 -49 -22 -110 -56 -138 -75 -48 -33 -53 -34 -120 -29
-38 3 -101 16 -140 29 l-70 23 150 5 c127 5 158 10 202 29 56 25 114 80 140
136 18 37 41 50 122 65 147 27 353 -9 507 -89 54 -28 103 -51 109 -50 5 0 -10
9 -34 20 -26 11 -41 23 -35 28 19 18 130 71 162 77 17 4 32 11 32 16 0 16 -47
0 -134 -43 -99 -49 -121 -45 -74 13 18 24 53 62 77 85 l45 43 -72 0 c-68 0
-72 -1 -86 -27 -9 -16 -29 -43 -45 -62 l-29 -35 -88 17 c-49 9 -113 19 -143
23 l-53 7 67 35 c37 20 64 37 58 39 -5 2 -39 -12 -75 -31 -52 -27 -82 -35
-144 -40 -135 -11 -148 -17 -201 -98 -65 -97 -123 -130 -237 -136 -51 -3 -109
2 -158 12 -42 9 -95 16 -117 16 -44 0 -71 8 -71 20 0 12 95 22 209 24 86 1
101 4 149 30 30 17 67 47 84 69 l31 38 -34 -5 c-40 -7 -51 -1 -70 39 -12 26
-21 31 -64 36 -28 3 -57 9 -66 13 -9 4 -21 1 -28 -7 -9 -12 -21 -13 -53 -5
-23 5 -48 14 -55 19 -6 6 -22 9 -35 7 -22 -3 -21 -5 12 -26 19 -12 39 -23 45
-25 6 -2 6 -17 0 -43 -8 -32 -15 -40 -38 -42 -23 -3 -28 1 -33 27 -7 35 -7 35
-33 19 -15 -9 -24 -8 -45 5 -37 25 -70 21 -105 -12 -29 -28 -31 -28 -47 -10
-16 18 -16 20 2 41 l19 22 -24 -17 c-24 -16 -25 -15 -54 23 -25 35 -47 51 -47
34z"/>
<path d="M4362 5105 c-46 -7 -86 -16 -89 -19 -11 -11 64 -6 143 9 137 26 98
33 -54 10z"/>
<path d="M3170 5061 c0 -4 12 -11 28 -14 28 -6 87 -46 78 -54 -2 -2 -22 5 -45
16 -54 28 -85 27 -105 -4 -19 -28 -38 -32 -56 -10 -25 30 -61 18 -117 -40 -56
-58 -71 -89 -28 -61 13 9 35 16 48 16 24 0 57 -27 57 -47 0 -6 13 -13 30 -16
40 -9 53 -53 22 -78 l-22 -17 32 -28 c52 -44 186 -101 299 -129 116 -28 163
-31 222 -13 l40 12 -29 13 c-26 11 -18 12 71 13 l100 2 -60 14 c-128 31 -365
164 -480 269 -40 37 -31 32 47 -25 122 -89 221 -142 334 -180 136 -46 294 -75
280 -51 -3 5 -23 12 -43 16 -129 24 -280 110 -439 250 -94 83 -176 134 -236
149 -16 3 -28 2 -28 -3z"/>
<path d="M4548 4983 c6 -2 18 -2 25 0 6 3 1 5 -13 5 -14 0 -19 -2 -12 -5z"/>
<path d="M4590 4976 c0 -2 7 -7 16 -10 8 -3 12 -2 9 4 -6 10 -25 14 -25 6z"/>
<path d="M978 4953 c7 -3 16 -2 19 1 4 3 -2 6 -13 5 -11 0 -14 -3 -6 -6z"/>
<path d="M1018 4943 c6 -2 18 -2 25 0 6 3 1 5 -13 5 -14 0 -19 -2 -12 -5z"/>
<path d="M1083 4933 c9 -2 23 -2 30 0 6 3 -1 5 -18 5 -16 0 -22 -2 -12 -5z"/>
<path d="M1370 4930 c-9 -6 -10 -10 -3 -10 6 0 15 5 18 10 8 12 4 12 -15 0z"/>
<path d="M4745 4900 c27 -12 43 -12 25 0 -8 5 -22 9 -30 9 -10 0 -8 -3 5 -9z"/>
<path d="M5007 4866 c-37 -12 -73 -29 -80 -36 -7 -7 2 -5 21 5 19 9 63 23 99
30 36 8 68 16 71 19 13 14 -48 4 -111 -18z"/>
<path d="M4810 4876 c0 -3 9 -10 20 -16 11 -6 20 -8 20 -6 0 3 -9 10 -20 16
-11 6 -20 8 -20 6z"/>
<path d="M2631 4754 c0 -11 3 -14 6 -6 3 7 2 16 -1 19 -3 4 -6 -2 -5 -13z"/>
<path d="M5065 4741 c-22 -10 -56 -34 -76 -52 -19 -19 -26 -26 -14 -16 12 9
51 33 86 52 68 37 71 47 4 16z"/>
<path d="M428 4733 c7 -3 16 -2 19 1 4 3 -2 6 -13 5 -11 0 -14 -3 -6 -6z"/>
<path d="M2625 4690 c-8 -13 3 -30 20 -30 20 0 30 21 14 31 -18 11 -26 11 -34
-1z"/>
<path d="M1117 4635 c-105 -71 -220 -227 -242 -330 -3 -17 7 0 23 37 53 121
148 235 251 303 36 24 48 35 38 35 -1 0 -32 -20 -70 -45z"/>
<path d="M478 4663 c6 -2 18 -2 25 0 6 3 1 5 -13 5 -14 0 -19 -2 -12 -5z"/>
<path d="M1435 4656 c-52 -13 -145 -51 -145 -60 0 -3 25 6 55 19 71 32 168 47
220 35 51 -12 58 -5 8 9 -47 13 -74 13 -138 -3z"/>
<path d="M348 4619 c-21 -11 -38 -22 -38 -24 0 -5 79 32 89 41 12 11 -18 1
-51 -17z"/>
<path d="M1911 4621 c-10 -6 1 -8 30 -4 24 3 46 7 48 9 10 9 -65 3 -78 -5z"/>
<path d="M25 4610 c-4 -6 -4 -14 -1 -17 3 -4 -1 -14 -10 -24 -8 -9 -14 -29
-12 -44 l3 -27 78 51 c42 28 77 52 77 55 0 2 -10 4 -23 4 -12 0 -41 3 -63 7
-28 5 -44 3 -49 -5z"/>
<path d="M498 4613 c6 -2 18 -2 25 0 6 3 1 5 -13 5 -14 0 -19 -2 -12 -5z"/>
<path d="M618 4613 c6 -2 18 -2 25 0 6 3 1 5 -13 5 -14 0 -19 -2 -12 -5z"/>
<path d="M2000 4616 c0 -2 7 -7 16 -10 8 -3 12 -2 9 4 -6 10 -25 14 -25 6z"/>
<path d="M1245 4564 l-30 -26 33 22 c17 12 32 23 32 26 0 7 -4 5 -35 -22z"/>
<path d="M518 4533 c12 -2 32 -2 45 0 12 2 2 4 -23 4 -25 0 -35 -2 -22 -4z"/>
<path d="M303 4500 c-23 -17 -73 -69 -113 -115 -39 -47 -98 -103 -130 -125
-33 -23 -60 -43 -60 -46 0 -2 19 5 42 17 24 12 70 51 103 87 33 35 92 98 132
138 39 41 71 74 69 74 -1 0 -21 -14 -43 -30z"/>
<path d="M45 4404 c-27 -25 -37 -37 -20 -26 28 19 84 72 74 72 -2 0 -26 -21
-54 -46z"/>
<path d="M3720 4446 c0 -2 8 -10 18 -17 15 -13 16 -12 3 4 -13 16 -21 21 -21
13z"/>
<path d="M3445 4425 c-16 -8 -50 -34 -75 -56 l-45 -41 45 34 c70 54 90 62 165
69 l70 6 -65 1 c-40 1 -77 -4 -95 -13z"/>
<path d="M3620 4420 c8 -5 20 -10 25 -10 6 0 3 5 -5 10 -8 5 -19 10 -25 10 -5
0 -3 -5 5 -10z"/>
<path d="M3473 4360 c-18 -11 -33 -22 -33 -25 0 -3 12 2 26 11 14 10 53 20 87
24 l62 7 -55 2 c-39 1 -64 -5 -87 -19z"/>
<path d="M40 4315 c-24 -25 -42 -45 -39 -45 3 0 25 20 49 45 24 25 42 45 39
45 -3 0 -25 -20 -49 -45z"/>
<path d="M4455 4274 c-38 -19 -59 -32 -45 -28 30 8 120 52 120 59 0 6 7 9 -75
-31z"/>
<path d="M3604 4279 c16 -12 37 -41 48 -63 16 -34 18 -36 13 -11 -7 33 -38 71
-70 86 -11 6 -7 0 9 -12z"/>
<path d="M3865 4255 c22 -18 86 -53 70 -38 -5 6 -28 20 -50 32 -22 13 -31 15
-20 6z"/>
<path d="M2963 4242 c-50 -18 -143 -84 -143 -102 0 -5 -41 -50 -91 -100 -81
-81 -86 -89 -50 -71 47 24 172 29 228 9 45 -16 176 3 240 36 66 33 201 142
215 172 10 20 9 27 -3 35 -24 15 -37 10 -58 -24 -11 -18 -30 -42 -41 -52 -18
-16 -24 -17 -60 -5 -40 13 -41 13 -79 -24 -27 -27 -46 -37 -62 -34 -13 2 -29
-3 -35 -11 -15 -19 -37 -4 -31 20 4 14 0 19 -13 19 -11 0 -23 7 -28 16 -7 13
-15 14 -47 5 -22 -6 -41 -8 -44 -5 -14 14 30 62 79 87 51 27 61 28 135 23 44
-3 91 -8 105 -11 14 -3 7 2 -15 10 -65 26 -143 28 -202 7z m-183 -217 c0 -2
-10 -9 -22 -15 -22 -11 -22 -10 -4 4 21 17 26 19 26 11z"/>
<path d="M62 4152 c-34 -31 -62 -64 -62 -72 0 -15 104 81 121 113 14 24 11 22
-59 -41z"/>
<path d="M946 4173 c-23 -142 17 -314 93 -403 17 -19 15 -12 -8 30 -57 105
-74 174 -75 297 -1 62 -2 113 -2 113 -1 0 -4 -17 -8 -37z"/>
<path d="M1576 4179 c-15 -11 -37 -40 -49 -62 -33 -62 -30 -189 5 -273 74
-177 222 -314 415 -384 167 -60 263 -79 447 -90 187 -10 258 -25 353 -71 64
-31 173 -122 162 -134 -4 -3 -60 14 -126 40 -150 57 -284 91 -433 110 -64 7
-158 23 -210 34 -124 27 -146 25 -43 -4 45 -12 148 -32 230 -44 176 -26 253
-45 433 -110 98 -35 157 -51 215 -56 251 -21 361 -72 535 -243 130 -129 301
-243 430 -287 l64 -22 -51 -6 c-66 -8 -155 -53 -221 -112 l-52 -47 -62 32
c-49 24 -75 31 -113 29 -27 -1 -62 2 -76 5 -35 10 -109 -11 -109 -30 0 -23 29
-29 59 -11 24 14 51 18 140 18 39 0 141 -47 141 -65 0 -7 -11 -18 -25 -24 -22
-10 -31 -8 -71 23 -56 43 -83 50 -128 35 -28 -9 -36 -17 -36 -35 0 -36 -30
-48 -59 -24 -13 10 -35 19 -50 19 -32 0 -111 -35 -111 -49 0 -5 12 -3 28 5 41
21 71 17 100 -14 15 -15 41 -34 59 -41 36 -15 51 -45 33 -66 -17 -21 -43 -19
-63 5 -23 27 -37 25 -70 -10 -34 -35 -64 -38 -101 -9 -20 16 -30 19 -39 10
-21 -21 -47 -12 -54 19 -6 35 -11 36 -52 13 -35 -20 -51 -11 -32 18 26 43 -1
29 -81 -41 -46 -39 -114 -89 -153 -111 -68 -38 -266 -109 -304 -109 -10 0 -49
14 -87 32 -92 43 -190 45 -277 5 -71 -33 -75 -42 -4 -14 37 14 75 21 132 21
95 1 156 -23 258 -102 53 -40 77 -52 131 -62 98 -18 154 -7 271 53 99 50 101
51 195 52 75 1 106 6 144 24 90 40 189 114 291 218 56 57 111 103 121 104 10
0 39 25 64 55 91 110 195 166 312 167 91 0 191 -47 285 -135 38 -35 88 -79
112 -99 l44 -36 -67 -6 c-37 -4 -78 -2 -93 4 -23 8 -24 8 -13 -6 10 -12 8 -16
-14 -25 -22 -8 -35 -6 -69 11 -61 32 -157 37 -200 11 -22 -13 -39 -17 -48 -11
-37 23 -119 -10 -119 -49 0 -12 7 -9 29 12 36 35 82 33 91 -2 5 -23 5 -23 28
7 28 39 86 56 141 41 21 -5 44 -16 50 -23 9 -11 1 -13 -44 -9 -70 6 -105 -14
-105 -59 0 -43 -17 -71 -39 -64 -10 3 -31 0 -45 -6 -23 -11 -29 -9 -49 9 -32
30 -55 28 -59 -5 -3 -25 -7 -28 -38 -28 -19 0 -41 -4 -49 -9 -22 -14 -122 -16
-144 -3 -16 10 -21 9 -31 -7 -63 -103 -92 -140 -139 -176 -65 -48 -112 -59
-165 -37 -57 24 -132 45 -126 36 3 -5 24 -14 47 -20 23 -7 61 -21 84 -31 33
-15 53 -18 85 -13 51 8 45 -1 -27 -40 -27 -15 -54 -31 -59 -36 -18 -17 -41 -8
-61 24 -18 29 -26 32 -76 35 -48 2 -58 0 -79 -23 -16 -17 -34 -25 -57 -25 -23
0 -37 -7 -49 -24 -8 -14 -21 -23 -29 -20 -7 3 -41 -13 -76 -36 -59 -38 -143
-71 -178 -69 -9 0 7 9 36 19 60 21 143 68 143 80 0 13 -105 44 -124 37 -9 -4
-16 -15 -16 -25 0 -42 -233 -55 -310 -19 -19 10 -26 15 -15 11 69 -20 129 -24
183 -13 100 20 118 44 60 79 -42 25 -79 25 -101 0 -21 -25 -28 -25 -60 0 -22
17 -26 18 -37 5 -33 -40 -124 8 -119 63 4 36 -5 48 -52 73 -27 13 -55 19 -82
17 -35 -3 -43 -7 -45 -26 -5 -33 -26 -37 -61 -13 -34 25 -50 26 -77 6 -10 -8
-25 -15 -33 -15 -11 0 -11 4 2 18 26 28 20 38 -7 13 -20 -19 -28 -21 -45 -11
-15 7 -32 8 -59 1 -20 -5 -66 -13 -102 -16 -74 -7 -192 -39 -225 -61 -21 -13
-27 -12 -76 21 -29 19 -58 37 -64 39 -5 2 9 22 31 45 68 65 156 76 248 29 l38
-20 82 56 c59 40 111 65 191 92 172 57 220 64 380 57 93 -4 154 -2 182 6 36
10 217 121 209 128 -1 2 -27 -2 -57 -7 -102 -20 -424 -61 -514 -66 -55 -4
-100 -2 -115 5 -21 9 -18 10 22 5 25 -3 68 -1 95 5 94 22 188 49 172 50 -32 2
-329 -38 -344 -47 -14 -7 -13 -11 5 -27 11 -10 20 -24 20 -31 0 -17 -39 -44
-55 -37 -8 2 -25 -3 -38 -12 -24 -15 -26 -15 -47 16 -21 29 -26 31 -71 27 -27
-3 -75 -19 -106 -35 -32 -17 -85 -45 -118 -62 -41 -22 -61 -28 -64 -20 -10 31
169 130 354 195 137 49 141 59 5 14 -50 -16 -158 -64 -240 -105 -127 -64 -265
-114 -278 -101 -9 10 500 254 563 271 103 26 285 32 380 10 101 -22 107 -14 7
11 -115 29 -300 25 -456 -9 -192 -42 -310 -85 -504 -184 -158 -81 -189 -93
-232 -93 -28 0 -50 5 -50 10 0 6 5 10 10 10 18 0 314 169 308 176 -3 2 -40
-10 -84 -27 -138 -53 -366 -129 -388 -129 -20 1 -20 2 4 16 l25 15 -32 -5
c-28 -5 -61 3 -133 30 -11 4 -5 11 20 24 72 39 140 59 256 74 119 16 205 41
379 111 154 62 264 87 410 92 151 6 251 -5 437 -46 238 -53 301 -50 442 20 94
46 356 248 356 274 0 6 -6 20 -14 31 -13 16 -27 19 -113 19 l-98 0 -125 67
c-69 36 -141 71 -160 77 -22 7 -48 28 -70 58 -55 72 -56 77 -9 50 24 -14 62
-29 84 -32 22 -4 75 -23 119 -41 48 -21 116 -41 175 -50 156 -25 193 -33 252
-58 59 -24 129 -74 129 -92 0 -25 -137 -153 -195 -182 -33 -17 -76 -47 -95
-68 l-35 -38 44 38 c24 21 66 48 93 61 28 13 64 37 82 53 17 17 51 42 76 57
25 15 34 23 20 19 -23 -6 -24 -6 -10 11 8 10 38 29 65 41 41 19 67 24 141 24
53 0 113 -6 145 -16 66 -19 168 -74 229 -122 71 -56 79 -58 23 -6 -109 103
-246 163 -372 164 l-74 0 -68 64 c-81 77 -160 117 -299 152 -109 26 -169 53
-265 116 l-60 40 40 -35 c73 -65 136 -96 260 -128 66 -17 149 -45 184 -62 68
-33 188 -135 174 -147 -4 -4 -23 -12 -42 -19 -32 -10 -36 -9 -72 24 -69 62
-158 96 -302 115 -182 23 -248 49 -329 126 -63 60 -125 93 -175 94 -24 0 -45
12 -82 44 -72 64 -130 102 -228 148 -49 23 -99 52 -113 64 -68 62 -327 72
-503 20 -87 -26 -185 -70 -242 -109 l-30 -21 24 27 c14 15 47 41 73 58 27 18
47 33 45 36 -3 2 -35 -3 -72 -12 -37 -8 -70 -14 -72 -12 -7 7 48 39 101 58
l51 19 -45 -6 c-64 -8 -121 -36 -163 -78 -47 -46 -51 -98 -12 -145 l26 -30
-64 -45 c-62 -44 -155 -91 -164 -82 -3 2 13 16 34 30 37 25 34 30 -17 26 -38
-3 -74 -25 -108 -67 -29 -35 -31 -36 -32 -14 0 15 17 41 49 72 26 27 45 49 41
49 -19 0 -94 -66 -125 -109 -45 -62 -65 -71 -65 -31 0 40 -24 39 -36 -1 -7
-25 -19 -35 -64 -53 -31 -13 -103 -45 -160 -73 -122 -59 -200 -86 -232 -81
-19 3 -13 8 29 27 28 12 59 31 69 42 17 19 16 19 -17 13 -19 -3 -60 -13 -92
-21 -32 -9 -60 -14 -62 -11 -3 3 19 18 47 33 167 90 394 259 498 371 l45 48
-63 -55 c-212 -183 -334 -258 -499 -303 -116 -33 -137 -32 -53 0 56 21 160 80
160 89 0 2 -35 -14 -78 -36 -43 -21 -110 -47 -150 -57 l-72 -17 0 -71 0 -71
70 15 c91 20 144 9 148 -29 4 -31 -41 -73 -70 -66 -13 4 -18 -2 -20 -27 -3
-26 -7 -31 -31 -31 -20 -1 -33 -9 -47 -33 -11 -18 -27 -32 -35 -32 -12 0 -15
-14 -15 -71 0 -71 0 -71 26 -66 l25 4 -25 -26 c-24 -25 -34 -51 -21 -51 3 0
34 24 68 53 171 145 327 215 575 258 203 34 337 21 437 -43 22 -14 74 -55 115
-92 41 -36 94 -75 116 -86 50 -25 130 -35 164 -22 25 10 24 10 -10 15 -19 4
-56 9 -82 12 -31 4 -59 16 -79 32 -30 25 -31 29 -25 79 8 68 60 227 93 284 35
60 138 166 191 197 24 14 69 34 100 45 37 12 45 17 22 13 -118 -19 -295 -163
-363 -296 -42 -80 -54 -75 -44 19 4 39 3 52 -4 42 -32 -49 -66 -125 -84 -195
-19 -69 -23 -77 -33 -59 -15 28 2 103 43 189 57 119 190 247 318 305 23 11 31
17 17 14 -144 -35 -340 -238 -397 -410 -8 -27 -19 -53 -23 -57 -11 -12 -110
41 -110 58 0 26 47 131 79 178 17 25 54 71 82 103 39 44 33 40 -24 -18 -73
-74 -119 -146 -146 -230 l-12 -37 -88 6 c-218 14 -496 -62 -711 -195 -36 -22
-66 -39 -68 -37 -10 9 21 44 47 55 26 10 29 15 20 32 -15 28 -3 65 28 85 14 9
58 21 97 25 95 10 172 50 304 161 126 105 175 132 268 147 38 7 79 14 91 16
13 2 61 34 108 69 226 173 422 252 651 262 176 9 302 -23 458 -115 103 -61
182 -134 252 -234 75 -107 154 -183 254 -243 86 -52 195 -94 243 -95 34 0 34
-10 1 -34 -56 -40 -206 4 -339 99 -66 47 -121 106 -197 215 -80 114 -186 202
-321 265 -99 47 -174 65 -297 70 l-105 4 100 -10 c283 -28 475 -140 645 -379
79 -111 121 -153 209 -209 73 -47 145 -75 215 -86 60 -8 44 -25 -24 -25 -47 0
-181 22 -239 39 -19 6 -36 9 -38 7 -2 -2 15 -16 37 -31 58 -40 49 -42 -17 -4
-108 61 -188 116 -273 186 -174 143 -259 189 -394 214 -52 10 -80 10 -132 0
-76 -14 -168 -57 -204 -95 l-24 -27 37 16 c49 20 86 19 122 -5 l29 -19 32 34
c26 29 39 35 72 35 24 0 49 -7 63 -19 22 -18 23 -22 12 -52 -15 -39 -3 -58 90
-146 76 -70 191 -139 325 -193 101 -41 114 -54 21 -21 -193 68 -355 177 -431
290 -30 45 -65 80 -80 81 -5 0 -8 -11 -8 -25 0 -22 -4 -25 -37 -25 -64 0 -70
-11 -39 -64 54 -92 139 -159 281 -219 102 -43 60 -40 -55 4 -102 39 -163 79
-237 156 -71 75 -98 80 -98 21 0 -49 -9 -55 -48 -33 -43 23 -79 15 -120 -26
-27 -27 -29 -35 -25 -80 6 -54 25 -82 76 -108 l33 -17 -150 -57 c-82 -31 -160
-57 -174 -57 -14 0 -78 27 -143 59 -136 67 -207 92 -94 33 41 -22 104 -56 140
-76 l65 -37 -55 4 c-42 3 -72 14 -125 46 -38 22 -79 41 -91 41 -25 0 -49 -24
-39 -40 13 -22 -5 -60 -32 -66 -20 -5 -30 -2 -43 16 -15 19 -20 21 -39 10 -20
-10 -26 -9 -46 10 -16 15 -37 21 -76 23 -30 1 -60 6 -66 10 -33 21 0 86 43 88
15 0 14 2 -6 10 -34 14 -110 4 -158 -20 -22 -11 -59 -42 -84 -70 -37 -41 -55
-52 -101 -64 l-57 -15 17 30 c29 48 118 124 187 158 132 65 262 62 354 -7 39
-30 43 -31 22 -8 -37 40 -96 67 -161 72 -144 13 -331 -80 -410 -206 -25 -39
-38 -47 -126 -83 -54 -21 -102 -43 -107 -48 -23 -23 7 -16 111 26 141 56 263
84 373 83 107 -1 199 -12 208 -26 4 -5 26 -24 50 -41 l43 -31 -31 -16 c-28
-15 -35 -14 -98 6 -78 25 -281 38 -322 20 -20 -8 -15 -9 27 -5 29 4 69 3 90
-1 37 -8 37 -8 -34 -20 -40 -7 -102 -23 -139 -34 -92 -30 -277 -115 -282 -129
-2 -7 41 9 95 34 213 100 337 132 467 119 43 -4 75 -9 72 -12 -2 -3 -42 -9
-88 -14 -145 -16 -236 -40 -327 -87 -47 -25 -116 -61 -153 -80 -38 -19 -68
-41 -68 -48 0 -17 40 -3 180 64 141 68 239 100 371 119 184 28 304 1 405 -90
43 -39 59 -47 90 -47 49 0 95 -28 124 -75 16 -27 27 -34 39 -29 9 4 36 9 61
11 36 4 58 -2 110 -29 35 -18 66 -39 68 -46 2 -7 -11 -19 -30 -26 -30 -13 -36
-13 -66 6 -53 33 -105 29 -145 -10 -51 -49 -106 -40 -165 28 -47 56 -95 67
-182 45 -115 -30 -115 -30 -141 4 -18 25 -30 31 -59 31 -47 0 -60 -15 -60 -65
0 -28 -6 -47 -18 -58 -24 -22 -31 -21 -59 5 l-23 22 -38 -37 c-34 -33 -40 -36
-57 -24 -18 14 -18 27 1 71 7 18 4 19 -37 13 -36 -4 -52 -14 -85 -50 -38 -42
-42 -44 -65 -31 -32 18 -101 17 -146 -1 -90 -38 -97 -84 -23 -162 27 -29 56
-53 65 -53 28 0 55 -20 55 -40 0 -29 -55 -60 -94 -53 -22 3 -39 -1 -54 -14
-20 -16 -23 -26 -20 -81 l3 -63 36 53 c19 29 49 60 65 68 110 55 144 93 125
139 -18 41 -75 67 -115 51 -21 -8 -29 -4 -55 26 -37 41 -38 54 -8 81 49 46
123 51 178 12 17 -12 30 -15 40 -8 34 21 91 7 137 -34 22 -20 24 -20 51 -4 55
32 142 12 157 -35 9 -29 6 -34 -18 -30 -29 5 -86 -17 -102 -39 -9 -13 -12 -35
-9 -60 8 -54 -15 -86 -73 -100 -64 -16 -86 -53 -82 -135 5 -75 30 -117 108
-176 58 -45 108 -67 152 -68 36 0 158 105 158 137 0 29 33 47 60 33 15 -8 26
-7 45 6 32 21 95 13 138 -18 26 -18 32 -19 51 -8 61 38 122 29 194 -30 27 -22
47 -30 75 -30 80 0 128 48 199 200 54 115 109 186 191 247 133 98 276 144 452
144 162 -1 271 -35 411 -132 93 -65 151 -127 269 -293 52 -72 125 -169 163
-216 l70 -85 -74 -12 c-41 -6 -96 -18 -122 -26 -60 -17 -99 -3 -160 59 -40 40
-90 64 -135 64 -16 0 -18 5 -12 41 6 34 3 44 -16 65 -29 31 -66 31 -91 -1 -27
-34 -80 -34 -113 0 -30 29 -32 51 -5 60 11 3 20 14 20 24 0 50 -75 57 -127 11
-37 -33 -45 -35 -74 -20 -26 14 -25 57 1 65 24 7 26 37 5 55 -10 9 -31 10 -65
6 -43 -6 -51 -4 -62 14 -25 40 -51 24 -72 -42 -4 -15 -9 -16 -30 -6 -38 17
-86 -1 -114 -42 -21 -31 -23 -45 -20 -111 4 -98 36 -152 100 -170 24 -7 47
-16 53 -21 18 -16 81 -7 156 22 100 39 170 47 229 26 25 -9 62 -16 83 -16 29
0 46 -7 69 -30 32 -32 34 -56 6 -74 -14 -8 -22 -8 -35 2 -38 27 -99 52 -130
52 -36 0 -85 -36 -114 -85 -11 -16 -19 -25 -19 -18 0 6 16 33 36 59 l36 47
-43 -6 c-52 -7 -113 -48 -157 -107 -87 -117 -112 -145 -174 -196 -115 -95
-309 -200 -403 -218 -16 -4 -7 2 22 13 198 74 421 247 376 292 -9 9 -18 5 -38
-19 -48 -57 -265 -178 -395 -220 -81 -26 -171 -42 -224 -41 -31 1 -23 4 29 10
150 19 252 57 387 145 97 62 158 112 158 130 0 30 -61 12 -203 -61 -129 -67
-264 -126 -285 -125 -4 1 23 17 61 36 37 19 67 36 67 39 0 3 -33 -12 -74 -32
-41 -20 -72 -41 -69 -46 3 -6 1 -7 -4 -4 -6 4 -36 -4 -67 -18 -80 -35 -103
-31 -31 6 33 16 73 41 90 54 l29 24 -79 -25 c-177 -57 -259 -69 -585 -84 -115
-5 -214 -15 -242 -23 -46 -15 -47 -14 -74 14 -23 24 -189 119 -208 119 -3 0
-6 -7 -6 -15 0 -22 -38 -18 -50 5 -8 14 -21 20 -45 20 l-35 0 0 -65 0 -65 39
20 c85 45 196 35 266 -22 l37 -31 -82 -43 c-46 -23 -87 -47 -93 -53 -6 -6 -22
-11 -35 -11 -17 0 -22 -4 -19 -14 4 -9 -8 -27 -30 -46 l-35 -32 -21 44 -21 43
-4 -38 c-2 -20 -2 -51 0 -68 l3 -30 110 79 c187 134 269 166 430 166 134 0
186 -14 350 -95 143 -71 214 -93 320 -103 67 -6 41 5 -57 22 -31 6 -76 20
-100 31 -24 12 -35 19 -26 16 10 -2 71 -12 135 -21 142 -20 309 -14 488 16 66
11 133 20 149 20 27 0 28 -1 14 -22 -18 -27 -193 -99 -323 -133 -154 -40 -250
-48 -459 -41 -199 8 -216 10 -216 31 0 19 18 28 54 27 22 -1 26 2 16 8 -8 6
-36 10 -62 10 -29 0 -60 8 -82 21 -38 22 -56 19 -56 -12 0 -10 -4 -19 -9 -19
-17 0 -81 30 -81 39 0 22 32 33 89 29 76 -4 69 7 -13 21 -72 13 -136 4 -165
-23 -14 -13 -41 -16 -124 -16 -58 0 -108 -4 -111 -9 -3 -5 -18 -12 -33 -15
-35 -9 -243 -126 -243 -138 0 -12 0 -12 85 37 103 58 183 85 276 92 145 11
306 -36 426 -124 37 -28 80 -58 95 -68 50 -31 30 -10 -32 35 -33 24 -60 45
-60 46 0 6 47 -14 127 -55 117 -58 182 -75 273 -68 138 9 280 57 440 146 19
11 49 23 65 27 l30 7 -20 -23 c-11 -13 18 9 64 48 202 174 387 259 629 292
199 27 384 -4 578 -100 103 -50 163 -92 349 -242 61 -49 144 -105 190 -128 80
-39 82 -40 185 -38 l105 1 -90 7 c-99 8 -170 31 -259 85 -63 38 -186 134 -186
145 0 22 201 18 265 -5 13 -5 7 5 -18 31 -59 58 -94 115 -123 196 -14 40 -35
82 -45 93 -19 19 -19 19 -19 -8 0 -27 -22 -38 -36 -16 -4 7 -22 9 -49 4 -26
-3 -46 -2 -50 5 -11 17 -47 11 -72 -12 -20 -19 -27 -20 -44 -10 -18 11 -21 9
-33 -20 -25 -61 -26 -63 -20 -33 6 32 43 92 76 122 19 17 79 23 133 12 29 -6
31 31 4 64 -31 41 -90 67 -149 67 -65 0 -99 -18 -133 -69 -15 -23 -31 -41 -35
-41 -14 0 -32 24 -32 42 0 31 -27 20 -69 -28 -44 -50 -56 -39 -26 21 14 27 11
26 -25 -12 -22 -23 -40 -37 -41 -30 0 7 -7 -6 -15 -28 l-14 -40 5 50 5 50 -25
-28 c-14 -15 -25 -35 -25 -43 0 -8 -5 -14 -10 -14 -6 0 -8 11 -4 26 8 30 -2
28 -44 -9 -18 -17 -46 -23 -134 -32 l-111 -11 119 114 c224 214 384 292 599
292 106 0 170 -15 256 -61 103 -55 176 -135 244 -268 51 -99 66 -119 121 -165
34 -28 59 -52 54 -54 -13 -5 -91 37 -140 76 l-45 36 35 -38 c54 -59 126 -103
240 -147 107 -42 218 -68 300 -69 l45 -1 -30 -24 c-53 -44 -106 -58 -198 -53
-66 3 -97 10 -141 32 -71 35 -154 110 -206 188 -22 33 -40 56 -40 50 0 -20
100 -160 141 -197 61 -54 132 -84 224 -92 68 -5 76 -8 60 -20 -29 -20 4 -17
65 7 137 54 283 187 347 317 61 123 56 231 -14 313 -44 51 -59 59 -158 84
-101 26 -106 44 -25 90 52 29 61 31 160 31 102 0 107 -1 190 -41 162 -78 249
-171 346 -373 99 -204 124 -252 170 -320 62 -92 57 -48 -6 50 -57 89 -57 92 9
152 39 35 41 40 41 96 0 69 -12 84 -67 79 -35 -3 -38 -6 -41 -37 -3 -24 3 -40
20 -59 l23 -25 -26 17 c-29 18 -53 62 -42 78 4 8 0 9 -13 4 -44 -19 -49 -17
-76 32 l-27 48 98 42 c54 22 110 44 124 48 25 6 27 10 27 65 0 57 -1 59 -21
49 -29 -16 -49 -5 -49 25 0 22 -4 25 -39 25 -22 0 -44 -6 -51 -15 -16 -20 -35
-19 -67 2 -25 17 -27 17 -37 -1 -24 -41 -59 -76 -75 -76 -32 0 -59 27 -54 55
3 14 0 32 -7 40 -16 19 -54 19 -69 1 -10 -12 -21 -10 -74 14 -34 16 -84 34
-112 41 -27 6 -57 14 -64 16 -20 5 62 60 109 73 45 13 125 13 172 0 20 -6 60
-26 88 -45 29 -19 60 -35 70 -35 32 0 172 49 225 78 40 22 51 33 53 57 4 28 3
29 -15 14 -23 -20 -107 -69 -118 -69 -5 0 23 21 61 48 l69 47 3 133 c2 127 -1
145 -25 121 -6 -6 -28 -9 -49 -7 -36 3 -39 6 -42 36 -3 27 1 34 22 42 33 12
33 30 1 60 -23 22 -28 22 -67 11 -36 -11 -43 -11 -54 3 -6 9 -22 16 -34 16
-14 0 -37 14 -56 35 -20 23 -41 35 -57 35 -36 0 -43 -18 -17 -45 34 -36 20
-57 -32 -54 -38 3 -43 1 -40 -16 15 -88 16 -84 -14 -90 -16 -3 -37 -11 -47
-16 -12 -7 -29 -6 -53 3 -45 16 -69 2 -69 -40 -1 -31 -32 -74 -67 -93 -12 -6
-48 -4 -108 8 -86 16 -93 16 -157 -1 -93 -25 -175 -29 -258 -13 l-70 13 150
23 c223 35 287 64 340 156 24 40 25 75 4 75 -5 0 -24 -16 -41 -36 -40 -46
-141 -118 -202 -144 -26 -11 -73 -23 -104 -26 l-57 -5 55 21 c75 27 182 102
228 158 21 26 73 100 116 165 120 183 215 245 386 254 142 8 257 -29 368 -116
29 -23 52 -37 52 -32 0 6 -18 25 -40 42 -22 18 -40 36 -40 40 0 5 18 14 40 20
29 9 40 18 40 31 0 11 -3 18 -8 16 -85 -37 -100 -40 -144 -26 l-43 15 60 17
c110 31 135 45 135 79 0 24 -3 28 -17 22 -83 -35 -240 -85 -266 -84 -30 0 -29
2 22 25 30 13 80 43 110 66 31 23 58 44 60 45 2 2 2 5 -1 8 -2 3 -49 -5 -103
-17 -84 -19 -99 -20 -109 -7 -9 11 -30 13 -101 9 -83 -5 -90 -7 -93 -27 -2
-12 5 -34 14 -49 18 -26 17 -27 -5 -45 -32 -26 -58 -24 -104 8 -33 23 -42 25
-67 16 -24 -9 -33 -8 -51 8 -26 23 -39 24 -39 5 0 -23 -19 -29 -36 -12 -28 28
-49 19 -142 -66 -67 -60 -154 -109 -255 -143 -106 -35 -133 -27 -32 9 125 45
203 92 281 172 76 78 112 100 189 121 l50 13 -49 -5 c-67 -7 -131 -44 -207
-121 -51 -52 -85 -76 -164 -114 -132 -64 -208 -84 -246 -65 -44 23 -42 30 19
55 115 48 175 92 297 217 154 157 193 178 340 178 108 0 122 -5 230 -84 l40
-29 65 14 65 14 -64 -4 c-57 -4 -68 -2 -93 19 -17 14 -23 25 -15 28 23 8 232
-9 255 -21 12 -7 22 -10 22 -7 0 16 -77 35 -144 35 -69 0 -78 2 -109 29 -37
33 -81 48 -91 32 -9 -14 -39 -14 -86 0 -30 9 -170 125 -170 142 0 7 93 -11
135 -26 22 -8 83 -36 135 -61 121 -57 188 -75 319 -81 127 -7 204 3 209 27 3
14 -2 15 -40 6 -55 -13 -192 -3 -285 20 -39 10 -74 20 -78 23 -3 3 27 9 67 13
154 14 338 79 338 118 0 15 -5 19 -17 14 -17 -6 -17 -5 0 8 9 7 17 25 17 39
l0 27 -75 -50 c-70 -45 -217 -110 -247 -110 -7 0 24 18 70 40 91 43 113 63 29
25 -86 -37 -220 -83 -268 -90 -36 -5 -55 -1 -102 20 -69 32 -149 55 -193 55
-20 0 -54 16 -100 48 -68 48 -113 68 -272 122 -77 27 -278 142 -340 195 l-26
22 61 7 c66 7 89 1 146 -38 101 -69 163 -88 405 -121 215 -29 412 -33 511 -10
88 21 176 65 268 134 119 89 133 106 133 150 0 33 -4 40 -29 51 -52 21 -79 9
-95 -44 -6 -18 -7 -18 -26 -1 -26 23 -60 9 -86 -34 -22 -37 -45 -46 -75 -31
-17 10 -24 9 -37 -4 -14 -14 -18 -14 -43 1 l-29 17 -56 -58 c-98 -100 -197
-127 -339 -92 -49 12 -49 13 -20 20 188 46 288 89 301 128 6 20 -12 58 -27 58
-5 0 -33 -18 -61 -41 -48 -37 -128 -85 -128 -75 0 2 23 18 50 36 55 35 77 64
59 76 -6 3 -16 1 -22 -5 -17 -17 -48 -13 -63 7 -12 16 -14 16 -42 0 -28 -17
-30 -17 -47 2 -10 11 -22 20 -27 20 -5 0 -43 -23 -84 -51 -88 -60 -198 -99
-299 -105 l-70 -4 84 15 c142 25 273 90 353 174 41 42 36 48 -7 10 -11 -10
-33 -21 -50 -25 -28 -6 -27 -4 16 30 59 46 106 106 114 142 6 27 6 27 -12 -6
-19 -37 -53 -53 -53 -25 0 9 -11 27 -26 41 -33 34 -62 27 -128 -33 -76 -68
-163 -127 -268 -183 -51 -27 -88 -50 -82 -50 27 0 151 44 188 67 34 22 38 22
23 6 -35 -40 -145 -84 -272 -111 -102 -21 -127 -23 -140 -12 -20 16 -19 30 1
30 29 0 197 61 279 102 73 36 175 103 175 114 0 6 -4 4 -79 -44 -102 -65 -340
-162 -396 -162 -12 0 -32 11 -44 24 l-23 24 59 17 c175 49 262 109 483 335 81
83 163 157 185 168 210 104 444 -16 470 -242 l7 -58 -33 18 c-17 11 -72 56
-120 100 -65 59 -101 85 -133 94 -48 13 -98 7 -117 -16 -10 -12 -7 -12 17 1
63 33 115 12 225 -91 100 -93 151 -123 260 -154 134 -37 212 -24 302 50 34 29
37 36 37 81 0 27 -1 49 -2 49 -2 0 -28 -10 -58 -22 -48 -20 -73 -23 -203 -23
-136 0 -150 2 -163 19 -8 11 -14 23 -14 26 0 4 40 6 88 6 82 -1 93 1 162 36
41 21 101 58 132 84 l58 46 0 90 c0 67 -3 89 -12 85 -7 -2 -25 3 -40 11 -22
13 -31 13 -57 2 -19 -7 -34 -22 -37 -37 -6 -22 -8 -23 -23 -8 -24 21 -36 19
-55 -10 -19 -29 -44 -32 -61 -8 -10 14 -16 15 -27 5 -8 -6 -18 -9 -22 -5 -12
13 -111 3 -122 -12 -13 -17 -42 -19 -63 -6 -9 6 -23 4 -38 -6 -21 -14 -25 -14
-42 1 -22 20 -55 21 -84 2 -20 -13 -27 -12 -67 7 -95 46 -213 17 -267 -64 -24
-37 -30 -40 -57 -34 -17 4 -48 9 -68 12 -21 3 -38 9 -38 14 0 15 68 49 99 49
29 0 111 34 111 45 0 3 -14 -2 -31 -11 -18 -9 -53 -17 -79 -18 -28 -2 -59 -11
-76 -23 -52 -37 -157 -86 -287 -133 -136 -50 -141 -60 -30 -60 28 0 82 -7 120
-16 48 -11 93 -15 156 -11 48 3 87 3 87 1 0 -3 -23 -32 -52 -65 -38 -43 -57
-57 -70 -53 -13 4 -18 0 -18 -14 0 -37 -59 -69 -76 -41 -4 7 -22 9 -43 6 -24
-3 -41 0 -50 10 -11 13 -16 12 -35 -6 -11 -11 -34 -24 -51 -30 -25 -9 -27 -8
-11 2 11 6 40 31 65 53 26 23 55 44 66 47 14 3 10 5 -11 6 -23 1 -43 -9 -76
-38 -44 -39 -45 -39 -61 -20 -12 13 -30 19 -59 19 -24 0 -53 3 -64 6 -15 4
-28 -2 -43 -17 -18 -19 -24 -21 -45 -11 -14 6 -41 8 -61 5 -26 -4 -41 -1 -55
12 -18 16 -23 17 -46 5 -33 -18 -47 0 -39 52 4 30 1 39 -14 48 -33 17 -62 11
-91 -20 -39 -42 -79 -40 -140 5 -62 45 -66 59 -28 83 30 19 33 19 65 4 32 -15
37 -15 66 2 56 33 88 37 144 21 38 -11 61 -26 86 -55 47 -55 139 -93 206 -84
37 5 55 2 77 -11 l29 -17 -24 21 c-18 17 -36 21 -87 21 -82 0 -162 29 -189 69
-30 46 -91 76 -150 73 -73 -2 -89 -5 -101 -21 -10 -13 -18 -13 -51 -2 -34 11
-47 11 -78 0 -30 -11 -39 -11 -42 -1 -3 6 -14 12 -26 12 -12 0 -33 9 -47 20
-14 11 -35 20 -46 20 -27 0 -46 22 -39 43 10 25 57 28 87 6 29 -21 63 -25 73
-9 9 15 48 12 75 -7 l25 -17 -20 23 c-17 20 -26 22 -69 17 -37 -4 -54 -2 -67
10 -9 8 -29 16 -43 18 -14 1 -34 9 -43 18 -10 8 -24 18 -30 22 -19 10 -53 -12
-53 -34 0 -26 -55 -60 -95 -60 -63 1 -185 80 -185 121 0 48 -89 123 -138 117
-34 -4 -40 -34 -17 -93 22 -58 83 -116 174 -165 81 -44 63 -45 -29 -2 -69 32
-147 110 -184 185 -26 52 -31 57 -61 57 -43 0 -69 28 -56 63 8 20 6 28 -9 42
-24 21 -58 12 -65 -18 -2 -12 -6 -31 -9 -42 -2 -11 -3 9 -2 43 1 56 -2 66 -23
83 -28 23 -59 24 -89 3 -26 -18 -52 -65 -52 -94 0 -11 -4 -20 -10 -20 -24 0
-1 106 33 154 31 44 97 69 160 61 50 -6 54 -5 95 30 24 21 40 40 37 43 -3 3
-16 -5 -29 -17 -20 -19 -24 -20 -29 -7 -4 9 -13 13 -22 10 -25 -10 -47 16 -41
48 5 26 4 28 -15 17 -11 -6 -27 -8 -36 -5 -8 4 -28 -5 -45 -19 -16 -14 -37
-25 -47 -25 -37 0 -53 42 -29 80 10 15 9 23 -6 39 -27 30 -58 26 -78 -9 -12
-21 -25 -30 -42 -30 -27 0 -56 23 -56 46 0 20 -23 17 -54 -7z m125 -165 c-54
-58 -73 -101 -81 -189 l-7 -70 -1 65 c-2 79 29 155 85 206 52 47 53 42 4 -12z
m272 -474 l32 -35 -34 30 c-34 31 -91 111 -91 129 0 5 14 -12 31 -40 17 -27
45 -65 62 -84z m2385 39 c34 -17 55 -20 93 -16 36 5 60 1 85 -10 29 -14 40
-15 70 -4 38 14 107 10 262 -15 100 -16 124 -13 161 20 l24 21 -17 -27 c-25
-39 -60 -58 -141 -77 -67 -16 -75 -17 -100 -2 -25 15 -27 15 -43 -7 -16 -20
-22 -22 -46 -12 -37 14 -60 -3 -51 -39 6 -22 0 -19 -45 23 -77 72 -141 98
-248 98 -100 1 -155 -18 -229 -78 -24 -20 -46 -34 -49 -31 -3 3 2 21 10 41 50
121 156 167 264 115z m-319 -129 c-29 -17 -142 -40 -189 -39 -38 1 -33 3 26
11 39 4 91 15 115 22 53 17 70 19 48 6z m891 6 c0 -10 -99 -64 -144 -79 -73
-25 -81 -20 -11 6 33 13 80 35 105 50 47 28 50 29 50 23z m-87 -219 l102 -12
-45 -22 c-72 -33 -125 -46 -164 -39 -35 7 -36 8 -36 52 0 41 2 45 20 39 11 -4
66 -12 123 -18z m-1803 -33 c0 -2 -9 0 -20 6 -11 6 -20 13 -20 16 0 2 9 0 20
-6 11 -6 20 -13 20 -16z m190 -41 c59 -19 187 -18 257 2 30 9 57 14 59 12 7
-7 -106 -36 -166 -43 -60 -7 -159 13 -208 42 -15 8 -18 12 -7 8 11 -3 40 -13
65 -21z m1705 -33 c-11 -5 -36 -8 -55 -8 l-35 1 40 7 c57 10 74 10 50 0z
m-764 -37 c-12 -23 -58 -65 -96 -89 -16 -11 -1 9 35 43 36 34 66 62 68 63 1 0
-2 -8 -7 -17z m-514 1 c-3 -3 -12 -4 -19 -1 -8 3 -5 6 6 6 11 1 17 -2 13 -5z
m-40 -10 c-3 -3 -12 -4 -19 -1 -8 3 -5 6 6 6 11 1 17 -2 13 -5z m-40 -10 c-3
-3 -12 -4 -19 -1 -8 3 -5 6 6 6 11 1 17 -2 13 -5z m1503 -143 c0 -5 -24 -25
-52 -45 -76 -52 -186 -87 -288 -92 l-85 -4 91 19 c97 20 210 62 284 105 51 29
50 29 50 17z m-850 -55 c0 -2 -8 -10 -17 -17 -16 -13 -17 -12 -4 4 13 16 21
21 21 13z m-4140 -21 c0 -2 -10 -9 -22 -15 -22 -11 -22 -10 -4 4 21 17 26 19
26 11z m4100 -9 c0 -9 -67 -45 -95 -51 -24 -5 -22 -2 10 11 22 10 49 23 60 31
21 14 25 15 25 9z m-2135 -56 c10 -11 16 -20 13 -20 -3 0 -13 9 -23 20 -10 11
-16 20 -13 20 3 0 13 -9 23 -20z m309 -199 c43 -25 122 -60 175 -78 53 -17 89
-32 80 -33 -25 0 -164 47 -222 76 -75 38 -165 104 -218 161 -84 89 -70 93 19
5 57 -58 114 -102 166 -131z m1664 192 c-21 -2 -57 -2 -80 0 -24 2 -7 4 37 4
44 0 63 -2 43 -4z m-2152 -251 c-5 -4 -106 46 -106 53 0 3 25 -7 55 -22 30
-15 53 -29 51 -31z m797 -59 c-7 -2 -19 -2 -25 0 -7 3 -2 5 12 5 14 0 19 -2
13 -5z m-216 -9 c-3 -3 -12 -4 -19 -1 -8 3 -5 6 6 6 11 1 17 -2 13 -5z m2523
-38 c-36 -18 -76 -36 -90 -40 -14 -4 11 11 55 33 44 21 85 39 90 40 6 0 -19
-15 -55 -33z m-1489 -133 c13 -16 12 -17 -3 -4 -17 13 -22 21 -14 21 2 0 10
-8 17 -17z m-2448 -10 c-7 -2 -21 -2 -30 0 -10 3 -4 5 12 5 17 0 24 -2 18 -5z
m1843 -198 c-58 -54 -214 -133 -276 -140 l-45 -5 50 13 c93 24 254 112 294
161 7 9 16 16 20 16 3 -1 -16 -21 -43 -45z m156 8 c-11 -16 -35 -41 -53 -58
-20 -18 -13 -7 17 27 53 62 67 74 36 31z m767 -74 c-28 -40 -90 -85 -158 -116
-83 -37 -72 -20 16 26 44 23 97 59 118 81 47 48 54 51 24 9z m525 -101 c-35
-39 -166 -139 -216 -164 -64 -33 -53 -14 15 25 28 16 88 59 132 95 87 70 98
77 69 44z m-2359 -69 c57 -17 175 -84 188 -107 4 -5 -35 -11 -96 -15 -86 -5
-111 -3 -157 13 -30 11 -68 19 -85 19 -21 -1 -13 -5 28 -15 86 -21 96 -28 57
-44 -25 -10 -39 -11 -64 -2 -18 7 -79 12 -136 12 l-104 0 33 -27 33 -28 -59 0
c-47 0 -65 -5 -97 -28 -21 -15 -51 -27 -65 -27 l-26 0 29 -23 c37 -30 27 -47
-25 -47 -38 0 -39 -1 -39 -34 0 -18 -7 -39 -15 -46 -10 -8 -16 -33 -17 -69
l-2 -56 -3 58 c-3 42 -8 57 -19 57 -8 0 -23 14 -33 31 -40 65 -115 87 -165 48
-64 -50 -76 -152 -32 -254 16 -36 21 -53 11 -45 -25 21 -55 118 -55 178 0 76
35 147 103 207 63 57 100 77 137 73 22 -2 37 6 67 38 67 69 198 132 319 154
69 12 216 2 289 -21z m1784 -57 c64 -33 134 -65 156 -71 105 -28 306 -31 369
-5 16 6 13 -3 -14 -42 -77 -111 -114 -155 -163 -193 -74 -57 -119 -65 -288
-49 -126 11 -142 10 -175 -5 -28 -14 -39 -15 -50 -6 -23 19 -17 32 36 77 50
43 60 68 38 90 -14 14 -58 16 -58 3 0 -5 -7 -12 -15 -15 -11 -4 -19 3 -25 19
-13 33 -53 33 -86 0 -14 -14 -29 -25 -34 -25 -12 0 -13 30 -2 46 14 22 73 45
115 46 54 1 82 -8 127 -40 l35 -25 -32 31 c-77 74 -213 61 -297 -27 -20 -21
-46 -34 -83 -42 -48 -11 -58 -10 -85 5 -37 23 -109 23 -163 2 -22 -9 -29 -14
-15 -11 73 17 137 17 169 0 26 -13 47 -15 104 -10 102 10 135 -6 239 -114 91
-94 173 -156 272 -202 l61 -30 -76 4 c-98 5 -134 23 -275 135 -133 106 -169
122 -267 121 l-72 -2 78 -7 c51 -5 93 -16 123 -31 42 -23 236 -171 230 -177
-4 -3 -308 113 -388 149 -37 17 -78 29 -90 27 -20 -3 -19 -6 15 -22 53 -26 55
-36 7 -36 -27 0 -53 8 -78 25 -20 14 -43 25 -52 25 -8 0 0 -9 18 -20 19 -11
32 -26 29 -33 -6 -19 -44 -20 -69 -3 -29 21 -114 21 -164 0 l-38 -16 -34 38
c-57 67 -58 74 -16 74 21 0 52 -5 70 -12 29 -10 40 -8 105 22 95 43 143 49
198 20 24 -12 40 -17 37 -12 -11 19 -75 42 -113 42 -21 -1 -74 -16 -118 -34
-61 -26 -85 -32 -103 -25 -13 5 -45 9 -71 9 -31 0 -53 5 -61 15 -14 17 -18 14
75 40 147 41 213 74 292 147 75 70 76 70 120 64 40 -5 48 -3 95 35 98 77 163
100 267 95 68 -3 84 -8 190 -64z m-1539 -12 c19 -11 31 -19 25 -19 -5 0 -26 8
-45 19 -19 11 -30 19 -25 19 6 0 26 -8 45 -19z m-1173 -6 c-3 -3 -12 -4 -19
-1 -8 3 -5 6 6 6 11 1 17 -2 13 -5z m-74 -23 c-159 -73 -234 -276 -160 -436
16 -33 35 -67 44 -77 9 -10 14 -21 11 -24 -9 -8 -55 56 -80 112 -17 37 -22 68
-22 129 0 96 29 170 91 232 39 39 115 83 143 83 8 0 -4 -9 -27 -19z m2217 -1
c12 -8 10 -10 -10 -10 -14 -1 -43 -7 -65 -15 -47 -17 -59 -10 -26 16 25 20 76
25 101 9z m-2450 -54 c0 -2 -8 -10 -17 -17 -16 -13 -17 -12 -4 4 13 16 21 21
21 13z m293 -35 c-136 -99 -161 -246 -67 -396 21 -34 22 -36 3 -15 -35 40 -72
130 -77 186 -5 64 11 115 52 162 34 38 103 92 119 92 6 0 -8 -13 -30 -29z
m1584 -47 c-3 -3 -12 -4 -19 -1 -8 3 -5 6 6 6 11 1 17 -2 13 -5z m-1950 -56
c-3 -8 -6 -5 -6 6 -1 11 2 17 5 13 3 -3 4 -12 1 -19z m-10 -120 c-2 -18 -4 -4
-4 32 0 36 2 50 4 33 2 -18 2 -48 0 -65z m4254 24 c-23 -43 -107 -124 -183
-177 l-83 -57 71 4 c87 6 159 42 252 124 35 31 65 54 68 52 10 -10 -134 -135
-191 -165 -35 -18 -90 -36 -130 -43 -39 -6 -116 -23 -172 -36 -101 -24 -206
-32 -187 -15 5 4 45 14 88 21 126 19 130 28 11 23 -93 -4 -112 -8 -124 -24
-10 -15 -17 -16 -33 -8 -26 14 -46 5 -50 -22 -5 -35 -31 -46 -73 -30 -28 10
-39 10 -50 1 -25 -21 -18 -64 15 -95 37 -35 42 -65 8 -41 -12 9 -39 16 -59 16
-22 0 -47 8 -63 21 -24 19 -35 21 -83 15 -54 -6 -55 -6 -48 16 17 57 17 68 0
75 -11 4 -22 0 -30 -10 -6 -9 -30 -17 -56 -19 -67 -5 -64 -28 15 -104 72 -71
60 -71 -22 0 -30 25 -57 46 -62 46 -4 0 -16 -12 -25 -27 -14 -21 -15 -30 -6
-46 14 -22 6 -19 -46 19 -17 13 -39 24 -47 24 -9 0 -16 8 -16 19 0 10 -7 24
-15 31 -8 7 -15 20 -15 29 0 9 -11 37 -24 64 -13 26 -19 50 -14 53 14 9 128 6
187 -6 29 -5 91 -10 137 -10 82 0 85 1 136 40 29 22 78 50 108 61 58 22 71 22
357 3 180 -12 297 26 397 130 67 71 71 74 57 48z m-4334 -214 c12 -26 43 -71
70 -100 29 -32 38 -46 23 -37 -71 45 -131 171 -128 272 l1 62 7 -75 c3 -41 16
-96 27 -122z m2714 78 c118 -27 209 -108 253 -224 14 -37 26 -74 26 -83 0 -9
11 -26 25 -39 41 -38 31 -54 -15 -24 -35 23 -44 25 -66 15 -28 -13 -44 -7 -44
15 0 10 -7 13 -25 8 -35 -9 -65 20 -65 62 0 71 -99 136 -177 115 -37 -10 -70
-37 -88 -71 -4 -8 3 -3 16 12 32 35 60 48 104 48 58 0 125 -46 125 -87 0 -22
-31 -43 -55 -37 -16 4 -26 0 -33 -12 -10 -19 -32 -11 -32 12 0 25 -20 15 -48
-26 -29 -42 -60 -51 -82 -25 -7 8 -18 15 -24 15 -12 0 -70 68 -141 164 l-29
39 34 29 c54 45 110 76 170 92 69 19 101 19 171 2z m-332 -66 l-44 -39 -19 22
c-18 22 -18 22 20 39 22 10 50 18 63 18 21 0 20 -4 -20 -40z m-1012 -112 c-3
-7 -5 -2 -5 12 0 14 2 19 5 13 2 -7 2 -19 0 -25z m2958 -28 c-22 -10 -69 -21
-105 -24 l-65 -6 79 15 c43 8 85 19 95 25 9 5 21 9 26 9 6 0 -8 -9 -30 -19z
m-575 -88 c-13 -5 -78 17 -85 28 -3 4 17 1 44 -8 28 -10 46 -18 41 -20z
m-1555 -111 c18 -7 17 -10 -15 -30 -42 -25 -50 -26 -50 -6 0 34 -44 12 -113
-57 -39 -40 -67 -66 -62 -58 73 125 162 181 240 151z m673 -73 c23 -16 42 -31
42 -33 0 -2 3 -12 7 -22 5 -14 -1 -12 -23 8 -16 15 -48 39 -71 54 -24 15 -43
30 -43 32 0 10 48 -11 88 -39z m-1164 -35 c-73 -166 -186 -284 -351 -367 -71
-35 -81 -33 -15 4 152 84 263 194 340 339 24 45 45 81 48 81 2 0 -8 -26 -22
-57z m163 -37 c-24 -47 -60 -98 -103 -142 l-66 -69 54 62 c30 34 74 100 99
147 54 103 66 105 16 2z m1764 52 c50 -14 115 -70 123 -104 8 -30 -16 -74 -39
-74 -8 0 -21 14 -30 30 -18 35 -42 38 -79 9 -31 -25 -33 -42 -6 -76 20 -26 28
-93 10 -93 -5 0 -17 14 -25 31 -18 33 -52 37 -47 5 5 -28 -17 -36 -49 -17 -24
13 -32 14 -49 3 -13 -8 -26 -9 -37 -4 -9 6 -27 5 -44 -1 -41 -16 -59 4 -59 64
0 44 -3 51 -26 61 -24 11 -29 10 -48 -15 -26 -32 -47 -34 -64 -7 -9 14 -23 20
-51 20 -73 0 -85 -15 -55 -71 8 -17 14 -33 11 -35 -2 -2 -15 16 -28 40 l-24
45 30 31 c21 22 26 33 17 42 -8 8 -19 8 -41 -2 -34 -14 -52 -5 -72 33 -23 42
54 87 150 87 68 0 102 -11 149 -47 26 -19 31 -28 21 -34 -9 -5 9 -9 47 -9 57
0 64 3 100 36 65 62 130 78 215 52z m804 2 c-3 -5 -12 -10 -18 -10 -7 0 -6 4
3 10 19 12 23 12 15 0z m-105 -50 c-8 -5 -19 -10 -25 -10 -5 0 -3 5 5 10 8 5
20 10 25 10 6 0 3 -5 -5 -10z m-2821 -90 c-33 -63 -127 -158 -190 -194 -42
-23 -31 -13 46 47 64 49 122 118 151 179 10 21 19 36 22 34 2 -3 -11 -32 -29
-66z m2317 -44 c8 -14 14 -35 12 -48 -3 -23 -12 -25 -93 -18 -5 0 -22 -2 -37
-6 -24 -5 -28 -3 -28 15 0 16 11 27 44 41 24 10 47 23 50 29 12 18 35 12 52
-13z m-30 -151 c-51 -39 -130 -58 -233 -59 -63 -1 -106 3 -113 10 -8 8 2 9 40
1 68 -13 195 5 264 37 60 29 68 31 42 11z m-480 -104 c30 -12 85 -25 122 -30
44 -5 54 -9 31 -10 -93 -3 -238 49 -289 104 -22 23 -18 22 27 -8 29 -20 78
-45 109 -56z m-2748 72 c-16 -2 -40 -2 -55 0 -16 2 -3 4 27 4 30 0 43 -2 28
-4z m3882 -33 c-9 -17 -30 -28 -30 -16 0 2 -3 11 -6 20 -5 12 0 16 20 16 24 0
25 -2 16 -20z m-3585 0 c-11 -5 -31 -8 -45 -8 -23 0 -22 1 5 8 42 11 65 11 40
0z m-82 -17 c-7 -2 -21 -2 -30 0 -10 3 -4 5 12 5 17 0 24 -2 18 -5z m-75 -10
c-10 -2 -26 -2 -35 0 -10 3 -2 5 17 5 19 0 27 -2 18 -5z m-100 -10 c-10 -2
-28 -2 -40 0 -13 2 -5 4 17 4 22 1 32 -1 23 -4z m2945 -30 c-7 -2 -19 -2 -25
0 -7 3 -2 5 12 5 14 0 19 -2 13 -5z m-2633 -224 c-80 -28 -82 -29 -35 -24 l50
6 -45 -22 c-139 -65 -309 -78 -448 -34 -46 15 -82 28 -80 30 1 2 28 -1 58 -7
95 -18 285 7 485 62 104 28 112 22 15 -11z"/>
<path d="M3610 1759 c25 -6 62 -17 83 -24 20 -7 37 -11 37 -9 0 10 -67 32
-115 37 l-50 6 45 -10z"/>
<path d="M3460 1739 c-61 -27 -101 -60 -124 -100 -16 -28 -11 -25 27 17 45 50
112 86 177 97 22 4 22 4 -5 5 -16 1 -50 -8 -75 -19z"/>
<path d="M3777 1553 c-15 -14 -6 -23 12 -13 28 14 52 12 73 -7 20 -18 25 -4 6
15 -13 13 -80 17 -91 5z"/>
<path d="M3910 1540 c-9 -6 6 -7 45 -3 33 3 62 7 64 9 10 9 -95 3 -109 -6z"/>
<path d="M3720 1105 c-13 -16 0 -21 16 -6 5 5 23 11 39 14 28 4 28 4 -6 6 -22
0 -42 -5 -49 -14z"/>
<path d="M1388 103 c7 -3 16 -2 19 1 4 3 -2 6 -13 5 -11 0 -14 -3 -6 -6z"/>
<path d="M1328 93 c7 -3 16 -2 19 1 4 3 -2 6 -13 5 -11 0 -14 -3 -6 -6z"/>
<path d="M1258 83 c6 -2 18 -2 25 0 6 3 1 5 -13 5 -14 0 -19 -2 -12 -5z"/>
<path d="M5021 4047 c-51 -46 -128 -105 -172 -132 -68 -40 -91 -48 -145 -53
-41 -3 -69 -1 -78 7 -9 7 -29 9 -55 5 -37 -6 -43 -4 -68 25 -33 37 -60 43 -42
9 10 -18 8 -24 -7 -35 -24 -17 -34 -16 -57 5 -19 16 -20 16 -34 -5 -18 -27
-58 -30 -67 -7 -5 14 -9 14 -22 3 -14 -12 -19 -11 -32 9 -16 24 -59 30 -92 12
-17 -9 -18 -14 -8 -36 11 -22 9 -28 -7 -40 -10 -8 -25 -14 -32 -14 -25 0 -75
31 -127 79 -38 35 -45 39 -29 16 99 -141 361 -230 493 -167 55 26 161 30 180
7 11 -13 4 -15 -51 -15 -40 0 -75 -6 -94 -16 -79 -43 -248 -25 -392 41 -40 19
-73 32 -73 30 0 -9 91 -56 146 -76 87 -30 257 -38 316 -14 24 10 84 21 138 25
83 5 106 12 180 47 47 22 118 52 158 67 40 16 94 42 120 60 l47 31 2 87 2 88
-82 -83 c-75 -77 -179 -157 -201 -157 -5 0 22 22 60 49 38 26 95 75 125 109
56 60 105 122 96 122 -3 0 -46 -37 -96 -83z m63 -88 c-31 -33 -148 -114 -180
-125 -10 -3 6 10 36 31 30 20 79 57 109 81 62 51 77 57 35 13z m-664 -163 c0
-9 -125 -46 -154 -46 -48 0 -18 17 59 33 76 17 95 19 95 13z"/>
<path d="M4969 4053 c-13 -16 -12 -17 4 -4 9 7 17 15 17 17 0 8 -8 3 -21 -13z"/>
<path d="M4892 3996 c-46 -33 -53 -43 -14 -20 19 10 38 25 44 32 15 17 8 14
-30 -12z"/>
<path d="M3603 3966 c-38 -12 -113 -53 -113 -61 0 -2 26 10 58 27 41 21 82 32
133 38 70 7 71 7 19 8 -30 0 -74 -5 -97 -12z"/>
<path d="M2236 3930 c50 -102 294 -292 371 -289 27 1 26 1 -6 9 -78 19 -277
176 -359 285 l-23 30 17 -35z"/>
<path d="M4808 3944 c-38 -20 -36 -28 2 -9 17 9 30 18 30 20 0 7 -1 6 -32 -11z"/>
<path d="M5073 3840 c-24 -11 -43 -21 -43 -23 0 -2 20 0 45 6 26 6 45 16 45
24 0 7 -1 13 -2 12 -2 0 -22 -9 -45 -19z"/>
<path d="M0 3830 c0 -5 21 -9 48 -9 42 1 44 2 17 9 -44 11 -65 11 -65 0z"/>
<path d="M1420 3813 c0 -6 11 -42 25 -80 28 -75 82 -155 117 -174 l22 -12 -23
29 c-47 62 -95 140 -117 193 -13 31 -23 51 -24 44z"/>
<path d="M660 3805 c1 -16 63 -91 100 -121 26 -21 22 -14 -16 27 -28 30 -58
65 -68 79 -9 13 -16 20 -16 15z"/>
<path d="M2855 3777 c-29 -13 -28 -14 26 -9 71 5 121 -11 171 -56 53 -48 80
-104 88 -182 l7 -65 1 60 c2 70 -23 133 -71 183 -62 66 -161 96 -222 69z"/>
<path d="M2766 3645 c-24 -18 -16 -19 18 -4 72 33 184 -51 233 -176 6 -16 12
-24 12 -17 3 44 -60 138 -122 183 -45 33 -108 39 -141 14z"/>
<path d="M1290 3493 c-120 -14 -217 -51 -260 -100 l-25 -28 30 26 c68 60 169
88 325 90 86 1 97 3 60 10 -47 8 -72 8 -130 2z"/>
<path d="M995 3349 c-4 -6 -5 -12 -2 -15 2 -3 7 2 10 11 7 17 1 20 -8 4z"/>
<path d="M1608 3263 c12 -2 32 -2 45 0 12 2 2 4 -23 4 -25 0 -35 -2 -22 -4z"/>
<path d="M1548 3253 c6 -2 18 -2 25 0 6 3 1 5 -13 5 -14 0 -19 -2 -12 -5z"/>
<path d="M4311 3233 c7 -12 15 -20 18 -17 3 2 -3 12 -13 22 -17 16 -18 16 -5
-5z"/>
<path d="M834 3190 c-22 -9 -65 -37 -95 -62 -154 -125 -209 -168 -266 -207
-35 -23 -63 -44 -63 -47 0 -7 94 42 146 78 27 18 92 71 144 117 53 46 121 96
155 112 65 31 47 39 -21 9z"/>
<path d="M3964 3188 l-19 -23 23 19 c21 18 27 26 19 26 -2 0 -12 -10 -23 -22z"/>
<path d="M4449 3186 c22 -26 128 -99 191 -132 79 -40 169 -40 265 0 47 19 94
31 143 34 l72 5 0 43 0 44 -43 -33 c-24 -18 -92 -50 -150 -71 -92 -33 -117
-38 -170 -34 -74 5 -154 39 -235 101 -31 23 -64 47 -72 52 -13 8 -13 7 -1 -9z"/>
<path d="M3905 3144 l-30 -26 33 22 c17 12 32 23 32 26 0 7 -4 5 -35 -22z"/>
<path d="M1805 3119 c153 -14 240 -62 384 -208 59 -60 89 -86 70 -61 -57 77
-173 184 -236 217 -77 42 -162 63 -238 62 l-60 -2 80 -8z"/>
<path d="M1681 3039 c-46 -14 -34 -21 15 -8 54 15 177 5 248 -20 77 -27 85
-20 9 9 -66 26 -217 36 -272 19z"/>
<path d="M2390 2846 c0 -2 8 -10 18 -17 15 -13 16 -12 3 4 -13 16 -21 21 -21
13z"/>
<path d="M2485 2740 c27 -27 51 -50 54 -50 3 0 -17 23 -44 50 -27 28 -51 50
-54 50 -3 0 17 -22 44 -50z"/>
<path d="M3295 2704 c-22 -7 -29 -11 -15 -8 67 16 199 16 251 1 29 -9 55 -14
57 -12 2 2 -20 11 -49 19 -64 19 -190 20 -244 0z"/>
<path d="M5046 2674 c-126 -65 -165 -71 -710 -104 -82 -5 -151 -12 -154 -15
-17 -17 665 30 742 50 69 19 196 81 196 95 0 13 6 15 -74 -26z"/>
<path d="M3640 2656 c0 -3 9 -10 20 -16 11 -6 20 -8 20 -6 0 3 -9 10 -20 16
-11 6 -20 8 -20 6z"/>
<path d="M3313 2625 c-18 -8 -33 -16 -33 -19 0 -3 16 2 35 10 42 17 98 17 148
0 47 -17 49 -10 2 10 -43 18 -110 18 -152 -1z"/>
<path d="M3690 2626 c0 -2 8 -10 18 -17 15 -13 16 -12 3 4 -13 16 -21 21 -21
13z"/>
<path d="M3250 2540 c-19 -10 -48 -31 -65 -45 -25 -22 -23 -22 18 5 26 17 61
36 78 42 26 9 33 7 56 -13 l25 -24 -4 25 c-2 21 -9 25 -38 27 -20 2 -50 -6
-70 -17z"/>
<path d="M4063 2483 c15 -2 39 -2 55 0 15 2 2 4 -28 4 -30 0 -43 -2 -27 -4z"/>
<path d="M3935 2464 c-66 -23 -136 -84 -197 -172 -32 -45 -56 -82 -53 -82 2 0
31 35 64 79 84 110 136 149 233 175 39 11 45 15 23 15 -16 -1 -48 -7 -70 -15z"/>
<path d="M2058 2313 c12 -2 32 -2 45 0 12 2 2 4 -23 4 -25 0 -35 -2 -22 -4z"/>
<path d="M2158 2313 c12 -2 32 -2 45 0 12 2 2 4 -23 4 -25 0 -35 -2 -22 -4z"/>
<path d="M1998 2303 c6 -2 18 -2 25 0 6 3 1 5 -13 5 -14 0 -19 -2 -12 -5z"/>
<path d="M2844 2261 c-96 -48 -142 -80 -79 -55 22 9 54 23 70 31 l30 14 -25
-23 c-14 -13 -37 -31 -50 -41 l-25 -18 25 12 c43 20 100 70 94 81 -4 6 -2 8 3
5 6 -4 18 2 28 13 25 27 19 26 -71 -19z"/>
<path d="M4963 2173 c9 -2 25 -2 35 0 9 3 1 5 -18 5 -19 0 -27 -2 -17 -5z"/>
<path d="M595 2011 c-11 -5 -29 -19 -40 -32 l-20 -24 25 22 c14 12 41 26 60
31 19 6 26 10 15 10 -11 1 -29 -3 -40 -7z"/>
<path d="M718 2013 c7 -3 16 -2 19 1 4 3 -2 6 -13 5 -11 0 -14 -3 -6 -6z"/>
<path d="M222 1913 l-49 -48 46 39 c64 55 66 56 59 56 -4 0 -29 -21 -56 -47z"/>
<path d="M2290 1940 c8 -5 20 -10 25 -10 6 0 3 5 -5 10 -8 5 -19 10 -25 10 -5
0 -3 -5 5 -10z"/>
<path d="M2390 1885 c13 -14 26 -25 28 -25 3 0 -5 11 -18 25 -13 14 -26 25
-28 25 -3 0 5 -11 18 -25z"/>
<path d="M4854 1884 c103 -16 169 -48 226 -111 46 -49 54 -44 11 8 -54 65
-195 122 -295 118 -17 -1 9 -7 58 -15z"/>
<path d="M4652 1871 c-29 -10 -59 -24 -65 -31 -7 -7 3 -5 22 5 18 9 61 23 95
30 38 9 50 14 31 14 -16 0 -54 -8 -83 -18z"/>
<path d="M209 1823 l-34 -38 38 34 c34 33 42 41 34 41 -2 0 -19 -17 -38 -37z"/>
<path d="M2664 1806 c-17 -13 -14 -13 24 -3 36 10 50 9 90 -7 75 -29 95 -30
116 -7 18 20 18 20 -17 9 -28 -9 -44 -8 -76 6 -51 20 -111 21 -137 2z"/>
<path d="M4504 1778 l-19 -23 23 19 c12 11 22 21 22 23 0 8 -8 2 -26 -19z"/>
<path d="M4745 1769 c-26 -7 -25 -8 10 -4 108 12 238 -31 322 -106 l48 -43
-45 47 c-83 88 -233 135 -335 106z"/>
<path d="M4595 1628 c-42 -50 -43 -81 -2 -86 30 -4 35 9 12 28 -23 19 -18 46
16 74 17 14 26 26 21 26 -6 0 -27 -19 -47 -42z"/>
<path d="M2148 1573 c17 -2 47 -2 65 0 17 2 3 4 -33 4 -36 0 -50 -2 -32 -4z"/>
<path d="M2078 1563 c7 -3 16 -2 19 1 4 3 -2 6 -13 5 -11 0 -14 -3 -6 -6z"/>
<path d="M2300 1555 c30 -8 60 -14 65 -14 20 2 -71 27 -95 27 -14 0 0 -6 30
-13z"/>
<path d="M2390 1530 c8 -5 20 -10 25 -10 6 0 3 5 -5 10 -8 5 -19 10 -25 10 -5
0 -3 -5 5 -10z"/>
<path d="M2153 1493 c9 -2 25 -2 35 0 9 3 1 5 -18 5 -19 0 -27 -2 -17 -5z"/>
<path d="M2250 1476 c25 -7 60 -20 78 -30 17 -9 32 -14 32 -11 0 11 -105 55
-130 54 -17 -1 -11 -5 20 -13z"/>
<path d="M244 1383 c-28 -97 3 -208 78 -279 l42 -39 -37 44 c-79 95 -102 210
-62 314 4 9 5 17 1 17 -3 0 -13 -25 -22 -57z"/>
<path d="M124 1303 c-14 -47 -15 -66 -5 -106 9 -40 63 -137 76 -137 2 0 -8 26
-23 58 -23 49 -27 70 -27 150 0 50 -1 92 -2 92 -1 0 -10 -26 -19 -57z"/>
<path d="M892 1095 c-46 -20 -90 -53 -102 -75 -8 -15 -4 -26 22 -56 41 -46
125 -84 201 -91 31 -3 57 -9 57 -13 0 -13 -112 -30 -200 -30 -147 0 -321 54
-466 144 -54 34 -56 34 -24 7 80 -69 254 -140 397 -161 45 -7 119 -10 173 -7
l95 6 -45 -22 c-118 -57 -420 -20 -635 78 -52 23 -57 24 -42 7 29 -32 133 -83
252 -123 122 -42 127 -49 14 -20 -148 38 -257 101 -316 182 -21 29 -43 49 -54
49 -20 0 -26 -24 -9 -35 15 -9 12 -35 -4 -35 -7 0 -21 12 -30 26 -21 30 -37
27 -47 -9 -7 -24 -2 -31 39 -60 26 -17 83 -51 127 -74 44 -23 77 -43 74 -43
-15 0 -125 53 -177 86 -33 22 -58 32 -60 25 -6 -18 -28 -13 -60 14 -17 14 -39
25 -51 25 -19 0 -21 -6 -21 -54 l0 -53 68 -6 c40 -3 107 -20 167 -42 167 -62
223 -75 315 -75 218 0 517 119 655 260 l40 41 -25 19 c-35 27 -111 27 -128 0
-16 -26 -37 -25 -55 1 -13 17 -18 19 -35 8 -25 -15 -50 -6 -61 23 -10 27 -4
48 14 48 22 0 26 17 9 34 -19 19 -29 19 -72 1z m-477 -365 c13 -6 15 -9 5 -9
-8 0 -22 4 -30 9 -18 12 -2 12 25 0z"/>
<path d="M1496 1084 c-10 -45 -80 -147 -134 -195 -128 -113 -329 -225 -518
-289 -125 -43 -96 -46 41 -5 244 74 518 270 594 427 18 37 31 73 29 80 -3 7
-8 -1 -12 -18z"/>
<path d="M1108 1082 c-32 -6 -19 -17 21 -17 22 0 37 3 35 6 -6 10 -36 16 -56
11z"/>
<path d="M82 1023 c-7 -2 -17 -14 -23 -26 l-12 -22 24 21 c13 12 31 24 39 27
13 5 13 5 0 5 -8 0 -21 -2 -28 -5z"/>
<path d="M1670 1013 c0 -26 -84 -132 -139 -176 -33 -27 -106 -73 -163 -103
-113 -61 -97 -63 22 -4 89 45 188 117 222 162 33 43 71 118 64 126 -3 3 -6 1
-6 -5z"/>
<path d="M4341 909 c7 -5 23 -9 35 -9 49 0 118 -35 177 -89 46 -42 55 -48 38
-23 -29 41 -74 75 -131 100 -48 20 -145 38 -119 21z"/>
<path d="M4233 895 c-18 -8 -33 -17 -33 -20 0 -3 9 -1 20 5 12 6 40 15 63 20
35 6 37 8 12 9 -16 0 -45 -6 -62 -14z"/>
<path d="M1760 854 c-41 -23 -172 -115 -195 -137 -18 -17 59 25 136 74 64 41
123 89 108 89 -2 0 -24 -12 -49 -26z"/>
<path d="M3012 869 c-118 -15 -259 -75 -337 -145 l-40 -35 50 36 c65 48 174
100 251 119 69 18 221 21 273 6 19 -5 37 -8 39 -5 6 6 -67 22 -123 27 -27 3
-79 1 -113 -3z"/>
<path d="M3004 781 c-23 -10 -45 -24 -49 -31 -4 -6 11 -2 34 9 104 54 232 27
352 -73 14 -11 7 -3 -15 18 -88 84 -233 119 -322 77z"/>
<path d="M3350 775 c13 -14 26 -25 28 -25 3 0 -5 11 -18 25 -13 14 -26 25 -28
25 -3 0 5 -11 18 -25z"/>
<path d="M2764 678 l-29 -33 33 29 c17 17 32 31 32 33 0 8 -8 1 -36 -29z"/>
<path d="M81 441 c-10 -6 3 -10 42 -12 31 -2 53 0 48 4 -13 13 -75 19 -90 8z"/>
<path d="M2619 430 c255 -20 383 -78 626 -284 33 -29 83 -67 110 -84 28 -18
37 -23 21 -10 -16 13 -56 46 -89 73 -182 152 -219 179 -312 224 -121 60 -214
82 -360 86 l-110 4 114 -9z"/>
<path d="M4658 306 c5 -148 -2 -184 -50 -255 -38 -57 -29 -65 12 -10 48 67 64
136 57 254 -8 157 -23 166 -19 11z"/>
<path d="M4776 363 c20 -43 41 -84 48 -91 7 -7 -6 27 -30 77 -24 50 -46 91
-48 91 -3 0 11 -35 30 -77z"/>
<path d="M545 395 c-5 -2 -23 -6 -39 -10 -56 -12 -20 -12 49 0 44 8 57 13 35
13 -19 0 -39 -1 -45 -3z"/>
<path d="M670 375 c24 -8 46 -13 48 -11 5 5 -59 26 -77 25 -9 0 4 -7 29 -14z"/>
<path d="M4566 374 c-3 -9 -6 -22 -6 -29 0 -37 -46 -129 -85 -173 -48 -54
-147 -109 -210 -118 -39 -5 -39 -5 16 19 68 29 107 56 148 102 58 67 36 73
-51 14 -88 -60 -212 -120 -266 -128 l-47 -8 59 -26 c32 -15 75 -27 95 -26 l36
0 -47 15 c-27 8 -48 19 -48 24 0 14 23 12 94 -6 77 -20 140 -13 220 24 84 39
136 86 136 122 0 37 -26 59 -35 31 -3 -12 -13 -21 -21 -21 -17 0 -17 4 0 66
23 81 32 171 12 118z"/>
<path d="M408 341 c-25 -16 -49 -35 -54 -43 -5 -8 0 -7 12 3 10 9 39 28 64 42
25 15 40 27 34 27 -5 0 -31 -13 -56 -29z"/>
<path d="M2615 333 c-61 -6 -156 -40 -190 -68 l-30 -25 36 20 c50 28 147 60
183 60 17 0 38 5 46 10 8 5 11 9 5 8 -5 -1 -28 -3 -50 -5z"/>
<path d="M2703 323 c9 -2 25 -2 35 0 9 3 1 5 -18 5 -19 0 -27 -2 -17 -5z"/>
<path d="M1498 253 c7 -3 16 -2 19 1 4 3 -2 6 -13 5 -11 0 -14 -3 -6 -6z"/>
<path d="M1980 210 c-70 -63 -190 -150 -254 -184 -27 -14 -43 -26 -36 -26 41
0 234 135 319 224 49 50 36 44 -29 -14z"/>
<path d="M4374 238 l-19 -23 23 19 c12 11 22 21 22 23 0 8 -8 2 -26 -19z"/>
<path d="M1448 243 c6 -2 18 -2 25 0 6 3 1 5 -13 5 -14 0 -19 -2 -12 -5z"/>
<path d="M470 230 c8 -5 20 -10 25 -10 6 0 3 5 -5 10 -8 5 -19 10 -25 10 -5 0
-3 -5 5 -10z"/>
<path d="M1398 233 c6 -2 18 -2 25 0 6 3 1 5 -13 5 -14 0 -19 -2 -12 -5z"/>
<path d="M4820 231 c0 -3 9 -31 21 -61 12 -31 21 -80 22 -112 l0 -58 56 0 c42
0 75 8 128 32 40 18 72 38 70 43 -5 14 -245 152 -274 158 -13 2 -23 1 -23 -2z"/>
<path d="M1008 223 c6 -2 18 -2 25 0 6 3 1 5 -13 5 -14 0 -19 -2 -12 -5z"/>
<path d="M1180 220 c-113 -4 -125 -6 -75 -11 58 -6 264 6 274 16 2 3 -11 4
-30 3 -19 -1 -95 -5 -169 -8z"/>
<path d="M585 174 c131 -76 225 -124 243 -124 9 1 -6 11 -33 23 -28 12 -100
50 -161 85 -61 34 -115 62 -120 62 -5 0 27 -21 71 -46z"/>
<path d="M4310 194 c-40 -29 -139 -81 -190 -100 -19 -7 -28 -13 -19 -13 23 -1
186 82 224 113 39 33 30 32 -15 0z"/>
<path d="M149 153 c-13 -16 -12 -17 4 -4 9 7 17 15 17 17 0 8 -8 3 -21 -13z"/>
<path d="M2622 149 c-71 -28 -61 -34 13 -9 146 50 299 11 468 -120 29 -23 39
-17 10 7 -58 46 -158 104 -211 122 -83 28 -206 28 -280 0z"/>
<path d="M2315 125 c-61 -37 -162 -125 -143 -125 5 0 34 22 64 49 29 27 77 63
106 80 29 17 48 31 42 31 -5 0 -37 -16 -69 -35z"/>
<path d="M1659 133 c-13 -16 -12 -17 4 -4 16 13 21 21 13 21 -2 0 -10 -8 -17
-17z"/>
<path d="M94 108 l-29 -33 33 29 c30 28 37 36 29 36 -2 0 -16 -15 -33 -32z"/>
<path d="M266 114 c-26 -8 -46 -17 -44 -19 2 -2 26 2 53 10 102 31 228 11 337
-54 35 -21 44 -24 28 -10 -14 12 -54 36 -90 52 -80 37 -204 47 -284 21z"/>
<path d="M2075 113 c-16 -9 -56 -38 -88 -64 l-59 -49 39 0 c31 0 53 10 111 53
39 28 71 58 72 65 0 17 -39 14 -75 -5z"/>
<path d="M2153 67 c-44 -34 -79 -64 -77 -66 3 -4 79 52 139 103 55 46 21 26
-62 -37z"/>
<path d="M2635 96 c-45 -14 -130 -57 -160 -80 -18 -14 2 -15 230 -15 l250 0
-40 24 c-48 30 -93 40 -143 32 l-37 -6 24 19 c13 11 32 20 42 20 10 0 19 5 19
10 0 14 -137 11 -185 -4z"/>
<path d="M3210 77 c0 -3 17 -17 37 -33 20 -15 33 -23 29 -16 -8 13 -66 56 -66
49z"/>
<path d="M333 19 c-18 -5 -33 -11 -33 -12 0 -1 49 -2 109 -2 60 0 103 4 96 8
-24 13 -138 17 -172 6z"/>
<path d="M3297 9 c7 -7 15 -10 18 -7 3 3 -2 9 -12 12 -14 6 -15 5 -6 -5z"/>
</g>
</svg>