<?xml version="1.0" standalone="no"?>
<!DOCTYPE svg PUBLIC "-//W3C//DTD SVG 20010904//EN"
 "http://www.w3.org/TR/2001/REC-SVG-20010904/DTD/svg10.dtd">
<svg version="1.0" xmlns="http://www.w3.org/2000/svg"
 width="900.000000pt" height="900.000000pt" viewBox="0 0 900.000000 900.000000"
 preserveAspectRatio="xMidYMid meet">
<metadata>
Created by potrace 1.10, written by Peter Selinger 2001-2011
</metadata>
<g transform="translate(0.000000,900.000000) scale(0.100000,-0.100000)"
fill="#000000" stroke="none">
<path d="M3753 6143 c-39 -32 -151 -125 -248 -208 -171 -145 -360 -303 -669
-563 l-146 -123 2 -1232 3 -1232 1238 -3 1237 -2 43 38 c23 21 111 96 196 166
84 70 165 138 180 151 44 39 180 153 362 305 95 80 196 165 224 190 28 25 66
57 83 73 l32 27 0 1223 c0 938 -3 1226 -12 1235 -9 9 -297 12 -1233 12 l-1222
0 -70 -57z m2190 7 c167 0 217 -3 217 -12 0 -7 -28 -35 -61 -63 -34 -27 -67
-55 -74 -62 -11 -11 -123 -108 -195 -170 -30 -25 -81 -67 -220 -183 -56 -47
-170 -143 -254 -214 -83 -71 -168 -142 -190 -157 l-39 -29 -1147 0 c-911 0
-1150 3 -1158 13 -8 9 4 25 50 62 34 28 69 57 77 65 9 8 73 62 141 119 69 58
157 132 195 165 39 34 95 81 125 106 58 49 130 109 170 143 14 12 68 57 120
101 52 43 103 86 114 95 28 24 104 26 1046 24 476 -1 963 -2 1083 -3z m288
-1231 l1 -1174 -34 -30 c-31 -28 -52 -46 -183 -155 -27 -23 -72 -61 -100 -85
-27 -23 -111 -94 -186 -156 -278 -234 -465 -392 -497 -421 -66 -61 -62 -140
-62 1139 0 637 3 1167 6 1178 3 11 72 75 152 143 81 67 176 148 212 179 99 85
132 113 210 178 40 33 107 89 150 125 42 36 98 83 125 105 26 22 80 68 119
102 39 33 75 58 79 53 4 -4 8 -535 8 -1181z m-1116 -904 l0 -1190 -1181 -3
-1182 -2 -6 22 c-8 30 -8 2332 0 2352 6 15 117 16 1188 14 l1181 -3 0 -1190z"/>
</g>
</svg>
